<?xml version="1.0" encoding="utf-8"?>
<!-- Generator: Adobe Illustrator 19.2.1, SVG Export Plug-In . SVG Version: 6.00 Build 0)  -->
<svg version="1.1" id="Lines" xmlns="http://www.w3.org/2000/svg" xmlns:xlink="http://www.w3.org/1999/xlink" x="0px" y="0px"
	 viewBox="0 0 600 150" style="enable-background:new 0 0 600 150;" xml:space="preserve">
<style type="text/css">
	.st0{fill:#E4D1BA;}
	.st1{opacity:0.4;}
	.st2{fill:#754C29;}
	.st3{opacity:0.4;fill:#754C29;enable-background:new    ;}
	.st4{fill:none;stroke:#8B5E3C;stroke-width:4;stroke-linecap:round;stroke-miterlimit:10;}
	.st5{fill:none;}
	.st6{opacity:0.3;fill:#8B5E3C;}
	.st7{font-family:'PirataOne-Regular';}
	.st8{font-size:64px;}
	.st9{fill:#8B5E3C;}
</style>
<title>header-banner</title>
<path class="st0" d="M593.7,11.6c-0.9-4.6-5-7.9-9.7-7.9c-7.3,0.2-10,3.9-10,7.6c0,0.7,0,5.5-0.1,12.7l0,0
	c-8.8,0.2-21.6-0.3-30.5-1.1C304.5,2.6,31,19.2,14.7,23.5c-6.5,1.7-10,7.1-9.9,12.2c0,0.1,0.9,102.8,0.9,103l0,0
	c-0.2,4.6,3.7,8.8,12.5,8.6c8.3-0.2,10.8-3.2,10.4-6.1l0,0l-0.8-13.6l-1.4-0.2c55.4-4.4,301.1-10.2,518.1,8.1
	c11.1,0.9,28.3,1.5,36.2,0.8c10-1,14-5.5,14.2-9.9l0,0l-1.1-112.8C593.9,12.9,593.9,12.2,593.7,11.6z M5.9,137.2l-0.2,1.4
	C5.7,138.2,5.8,137.7,5.9,137.2z M588.2,116.8L588.2,116.8z"/>
<g class="st1">
	<path class="st2" d="M15,128.7c-9,1.9-9.3,9.8-9.3,9.8l0,0c-0.2,4.7,3.7,9,12.5,8.8c8.3-0.2,10.8-3.2,10.4-6.2l0,0l-0.1-2l-4-3.2
		l-5.2-0.1l-2.1,1l-1.9,2.2L15,128.7z M5.7,138.5c0-0.5,0.1-1,0.2-1.5L5.7,138.5z"/>
</g>
<path class="st3" d="M580.4,116.4l-2.4,0.9l-3.1,2.6l0.5,3.3c0.8,1.1,1.7,2.1,2.9,2.9c1.2,0.6,2.5,0.8,3.8,0.5
	c7.1-1.2,6.8-2.6,6.8-2.6l-0.6-7.9l-4-0.6L580.4,116.4z M588.2,116.2L588.2,116.2z"/>
<path class="st4" d="M588.2,116.8c0,1.2,0.6,7.7,0.6,7.7c-2.2,1.6-4.8,2.5-7.5,2.6c-7.1,0.4-10.8-10.4,3.8-10.8
	c10.6-0.3,17.1,17.8-4.4,20c-7.9,0.8-25.1,0.2-36.2-0.8c-239-20.2-512.7-11.2-528.9-6.9c-13.3,3.6-14.1,19,2.5,18.6
	s9.8-11.9,4.1-11.8c-3.6,0.1-5.6,0.9-7.1,3.5"/>
<path class="st4" d="M593.9,13.6c0-0.7,0-1.4-0.2-2.1c-0.9-4.6-5-7.9-9.7-7.9c-7.3,0.2-10,3.9-10,7.6c0,3.1-0.8,88.5,1.1,111.5"/>
<path class="st4" d="M5.7,138.7c0-0.1-0.9-102.8-0.9-103c0-5,3.5-10.4,9.9-12.2c16.2-4.3,289.8-20.9,528.8-0.6
	c8.8,0.8,21.7,1.3,30.5,1.1"/>
<line class="st4" x1="593.9" y1="13.6" x2="595" y2="126.4"/>
<line class="st4" x1="15.2" y1="139.1" x2="15" y2="129"/>
<line class="st4" x1="27.9" y1="127.7" x2="28.6" y2="141.2"/>
<rect x="5.9" y="45.3" class="st5" width="576" height="70"/>
<text transform="matrix(1 0 0 1 65.0638 94.5455)" class="st6 st7 st8">And Also Much Cattle</text>
<rect x="4" y="43.3" class="st5" width="576" height="70"/>
<text transform="matrix(1 0 0 1 63.1538 92.5455)" class="st9 st7 st8">And Also Much Cattle</text>
</svg>
