<?xml version="1.0" encoding="utf-8"?>
<!-- Generator: Adobe Illustrator 19.2.1, SVG Export Plug-In . SVG Version: 6.00 Build 0)  -->
<svg version="1.1" id="Layer_1" xmlns="http://www.w3.org/2000/svg" xmlns:xlink="http://www.w3.org/1999/xlink" x="0px" y="0px"
	 viewBox="0 0 930 625.9" style="enable-background:new 0 0 930 625.9;" xml:space="preserve">
<style type="text/css">
	.st0{display:none;}
	.st1{display:inline;fill:#ED1C24;}
	.st2{display:inline;fill:#FFFFFF;}
	.st3{fill:#7D0000;}
	.st4{fill:#FFFFFF;}
	.st5{fill:none;}
	.st6{enable-background:new    ;}
</style>
<g id="car_fill" class="st0">
	<polygon class="st1" points="109.8,332.8 96,338.9 88.5,347.9 85.2,361.9 86.8,382.9 89.5,399.8 85.2,414.6 67.7,425.1 63.8,430.8 
		63.2,438.6 64.3,446.9 66.5,455.4 71.2,459.4 98.8,463.1 139.3,463.1 322.8,458.3 433.5,458.4 495.5,459.8 539.8,460.6 
		580.8,463.1 706.7,464.8 746.8,459.1 806.2,451.1 811.2,448.4 810.2,435 809.1,424.6 802,422.3 790.5,420.5 791.9,404.6 
		789.5,390.4 781.7,367.3 765.9,348.2 740.4,330.9 709.5,312.4 669.6,294.4 625.5,279.9 573.8,273 555.3,268.8 542.8,308.1 
		538.2,318.8 531.5,317.6 514,334.7 475.4,353.7 445.2,349.8 405.1,336.5 372.9,316.1 363.4,318.1 320.2,318.4 306.8,319.7 
		179.3,324.9 159.6,327.9 150.5,326.1 	"/>
	<polygon class="st2" points="129.8,329.1 131.3,339.8 130.1,364.3 126.7,373.1 122.8,374.4 111.2,375.7 89.8,374.4 86.4,374 
		85.3,364.4 87.4,349.6 93.1,341.5 98.4,337.4 106.7,333.5 126.7,329 	"/>
</g>
<g id="car_lines">
	<g>
		<path class="st3" d="M576.1,525.6c-3.8-0.4-7.7-0.3-11.5-0.4c-7.7-0.3-15.5-1.2-23.2-0.9c-3.9,0.2-7.8-0.2-11.8,0
			c-3.7,0.2-7.5,0.1-11.2,0.1c-3.6,0-7.1,0-10.7,0c-4.8,0-9.5,0.3-14.3,0.2c-5.5-0.1-11-0.3-16.5,0c-3.5,0.2-6.9,0.1-10.4,0
			c-2.2,0-4.5-0.1-6.8-0.1c-3.5,0.1-7,0.9-10.4,0.5c-3.9-0.4-7.7,0-11.5,0c-11.9,0-23.7,0.3-35.6,0.4c-1.7,0-3.3,0.2-4.9,0.1
			c-4.4-0.2-8.9-0.1-13.3,0.1c-7.6,0.5-15.1,0.2-22.7,0.6c-1.4,0.1-2.7,0.4-4.1,0.4c-4.8-0.2-9.6,0.6-14.4,1.1
			c-4.4,0.4-8.9,0.9-13.3,0.8c-7.8-0.1-15.5,0.8-23.2,1.5c-2.2,0.2-4.5,0.2-6.8,0.3c-1.1,0-1.7-0.5-1.2-1.6c0.1-0.2,0.1-0.3,0.1-0.5
			c1.8-6.2,1.9-12.5,0.8-18.7c-0.9-5.1-1.7-10.4-4-15.3c-0.6-1.4-1.3-2.8-1.8-4.3c-1.8-5-4-9.9-7.6-13.9c-3.5-3.9-6.2-8.3-9.5-12.4
			c-2.7-3.4-5.6-6.3-10-7.7c-2.1-0.7-8.5,0-9.6-0.2c-0.6-0.1-1.2-0.3-1.8-0.4c-3.1-0.5-6.3-1.3-9.3-0.6c-7.2,1.6-14.7,1.6-22,3.2
			c-6.4,1.4-12.3,3.7-18,6.7c-6.8,3.6-11.1,9.7-15.7,15.5c-0.8,1-1.5,2.1-2.1,3.3c-1.8,3.6-3.5,7.2-5.3,10.8
			c-1.6,3.1-2.6,6.4-3.7,9.7c-0.8,2.4-1.1,4.9-1.8,7.3c-1.8,6.5-2.6,13.1-1.7,19.8c0.4,3,1.2,6,2,8.9c1.4,5.1,4,9.6,6.6,14.1
			c0.6,1,1.9,4,2.9,3.7c1.6,1.8,3,3.8,5,4.9c4.2,2.5,8.7,4.4,13.4,5.8c5.9,1.8,12,2.7,18.1,3.4c8.8,1,17.5,0.1,26.1-1.8
			c4-0.9,7.9-2.2,11.9-3c3.8-0.8,7.1-2.5,10-4.8c3.2-2.4,6.5-4.7,9.6-7.3c3.8-3.1,7.4-6.4,10.1-10.5c2.1-3,3.8-6.2,5.2-9.6
			c0.5-1.3,1.4-2,2.7-2c3.9,0,7.8-0.5,11.7-0.8c6.3-0.6,12.6-0.8,19-0.6c6.3,0.2,12.5-0.7,18.7-1.4c6.5-0.7,13-0.8,19.5-1.2
			c6-0.3,12-0.2,18-0.4c10-0.3,20.1-0.3,30.1-0.4c6.6,0,13.1-0.2,19.7-0.4c3.6-0.1,7.3-0.4,10.9-0.3c6.3,0.1,12.5-0.5,18.8-0.2
			c7.1,0.3,14.2,0,21.3,0c3.7,0,7.4,0.5,11.1,0.3c4-0.1,8-0.2,11.9-0.4c2.7-0.1,5.4-0.1,8-0.1c3.7,0,7.4,0.1,11.2-0.1
			c5.3-0.3,10.7,0.3,16-0.2c0.7-0.1,1.4,0,2.1,0.2c1.1,0.2,2.3,0.3,3.4,0c0.7-0.2,1.4-0.1,2.1,0c4.4,0.8,8.9,0.6,13.3,0.9
			c3.4,0.2,6.8,0.2,10.2,0.3L576.1,525.6z M178,518.8c1.1-6.1,2.5-12.1,4.6-17.9c0.8-2.1,2.4-3.4,4.1-4.6c5-3.8,10-7.6,15.2-11.1
			c4.1-2.8,7.8-6,12.1-8.4c2.9-1.6,5.7-3.4,8.5-5c1.9-1.1,3.9-1.3,6-1.1c-0.9,0.1-1.4,0.8-1.8,1.4c-2.3,3-5.3,5.3-8,7.9
			s-5.4,5.2-8.1,7.7c-2.9,2.7-6,5.2-8.5,8.5c-1.1,1.5-2.5,2.8-3.9,4.1c-4.1,4.1-7.7,8.7-11.6,13c-1.4,1.5-3.2,2.2-4.6,3.8
			c-0.8,0.9-2,1.4-2.7,2.4c-0.3,0.4-0.7,0.7-1.1,0.3C178,519.6,177.9,519.2,178,518.8z M297,521.6c-0.4,3.1-1.1,6.1-2,9.1
			c-0.9,2.9-1.8,5.7-3.3,8.4c-2.6,4.6-5.9,8.6-9.7,12.2c-3.8,3.6-8.2,6.5-12.3,9.7c-3.8,2.9-8.6,3.6-13.2,4.8
			c-5.3,1.4-10.6,2.8-16.1,3.3c-5,0.5-10,1-15.1-0.1c-2.8-0.6-5.9-0.5-8.8-0.9c-4.6-0.7-9-2-13.4-3.4c-3.3-1.1-6.4-2.6-9.4-4.4
			c-1.4-0.8-2.5-2.2-4-2.9c-0.7-0.3-0.6-1.1-0.2-1.6c0.5-0.5,1.2-0.7,1.3-1.6c-0.9-0.6-1.2,0.9-2.2,0.3c-0.2-0.3,0.3-0.7,0.6-1
			c2.4-2,4.4-4.4,6.9-6.4c4.8-3.9,9.4-8.1,14.1-12c1.5-1.3,3.2-2.4,4.4-4c0.3-0.4,0.8-0.7,0.9-1.2c0.2-0.8-0.1-1.4-0.7-1.8
			c-0.7-0.4-1.1,0.2-1.4,0.7c-3,4.7-7.5,7.9-11.6,11.5c-1.1,0.9-2.1,1.9-3,2.9c-2.3,2.4-5.1,4.1-7.5,6.4c-1.3,1.3-2.3,2.8-4.1,3.7
			c-3.6-5.4-6-11.1-7.6-17.3c-0.8-3.1-1.8-6.1-1.9-9.4c-0.1-1.8,0.3-3.2,1.9-4.3c1.6-1.1,2.6-2.8,4.1-4c3.3-2.6,5.8-6,8.6-9.1
			c4.6-5.1,9-10.5,14.1-15.3c2.6-2.4,5-5.1,7.8-7.3c2.5-2.1,4.7-4.6,7.1-6.8c4-3.6,7.7-7.5,11.8-11.1c2.6-2.3,5.1-4.5,7.9-6.3
			c0.4-0.3,0.7-0.7,1-1.2c0.2-0.4,0.2-0.8-0.1-1.2c-0.4-0.4-0.8-0.2-1.2,0c-4.2,3.3-8.8,6.1-12,10.6c-1.5-2.7-1.8-2.8-4.6-1.5
			c-3.3,1.6-6.3,3.6-9.4,5.6c-3,2-6.2,3.8-9,6.1c-3.5,2.8-7.1,5.3-10.8,7.7c-3,1.9-5.6,4.4-8.4,6.7c-0.3,0.2-0.5,0.5-0.9,0.4
			c-0.3-0.4-0.4-0.8-0.1-1.2c2.4-3.3,3.6-7.2,5.7-10.5c2.8-4.4,6.1-8.2,9.7-11.8c2.9-2.9,6.2-5.1,9.8-6.7c4.4-2,8.7-4.2,13.6-5
			c5.9-0.9,11.8-1.9,17.8-2.3c0.6,0,1.2-0.2,1.7-0.5c0.9-0.4,1.9-0.9,3-0.2c0.5,0.3,1.3,0.3,1.8,0.1c2.1-0.7,4.2-0.2,6.1,0.5
			c3.2,1.1,6.4,1.3,9.7,1.2c2.6-0.1,4.6,1.4,6.5,3c1.1,1,2.2,2,3.1,3.1c1.1,1.2,1,2.3-0.3,3.5c-3.2,3-6.4,5.9-9.5,8.8
			c-3.6,3.4-7.1,6.9-10.2,10.8c-0.8,1.1-2.1,1.7-2.6,3.1c-0.1,0.4-0.4,0.8,0,1.2c0.4,0.3,0.8,0.4,1.2,0.2c1.1-0.4,2.1-1.1,2.5-2.2
			c1.3-3.6,4.2-6,6.8-8.6c3.2-3.3,6.7-6.3,10.3-9.3c1.3-1.1,2.7-2.2,3.8-3.6c0.6-0.7,1-0.4,1.4,0.2c0.6,0.9,1.2,1.9,1.8,2.9
			c1,1.6,1.1,2.6-0.3,3.8c-3.1,2.6-5.7,5.6-8.9,8.1c-2.1,1.7-4.1,3.6-5.9,5.5c-2.3,2.4-4.5,4.8-6.7,7.3c-0.5,0.5-1.5,1-0.8,1.9
			c0.8,1.1,1.7,0.5,2.5,0c0.6-0.4,1.4-0.5,0.8-1.7c-0.4-0.7,0.6-1.7,1.3-2.3c5.2-5,10.5-10,16.1-14.5c1.7-1.4,3.1-3,5.2-4.1
			c2.8,3.2,5.2,6.7,7,10.6c1.4,3.2,2.6,6.4,3.9,9.6c0.5,1.1,0.5,1.8-0.5,2.9c-4.5,4.5-9.2,8.7-13.9,13c-3.1,2.9-6.2,5.9-9.2,8.9
			c-0.6,0.6-0.7,1.3-0.7,2.2c0.9-0.6,1.8-1.2,2.6-1.9c4.2-4.1,8.3-8.2,12.8-11.9c2.9-2.4,6-4.8,8.8-7.3c1.2-1.1,1.7-0.9,2,0.7
			c0.4,1.7,1,3.4,1.1,5.1c0.1,1.1-0.1,2.1-1,2.8c-2.7,2.3-5.2,4.9-7.9,7.2c-3.3,2.9-6.4,6.1-9.6,9.3c-2.8,2.8-5.6,5.5-8.1,8.5
			c-1.5,1.7-3,3.6-4.7,5.2c-2.4,2.2-4.6,4.6-6.7,7c-3.7,4.2-8.3,7.6-12,11.9c-1.4,1.7-2.7,3.4-4,5.1c-0.3,0.4-0.7,1-0.1,1.7
			c0.5,0.5,1.1,0.7,1.7,0.4c1.7-0.9,3.6-1.8,4.3-3.8c-0.4-0.6-0.7-0.2-0.9-0.1c-0.3,0.2-0.6,0.5-0.9,0.1c-0.2-0.2-0.1-0.5,0.1-0.7
			c1.6-1.9,3.2-3.9,5-5.7c0.9-0.8,1.6-1.8,2.5-2.6c1.7-1.7,2.9-3.9,5.2-5.1c0.4-0.2,0.7-0.6,0.9-0.9c0.7-2.1,2.8-3,4.2-4.5
			c3.6-3.9,7.4-7.6,11.3-11.1c2.1-2,3.7-4.5,6.3-6.1c2.5-1.5,4.3-4.1,6.4-6.1c2.7-2.6,5.6-4.9,8.6-7.5
			C297.7,516,297.3,518.8,297,521.6z"/>
	</g>
	<g>
		<path class="st4" d="M699,517.6c-0.5-5.8-1.3-11.6-3.4-17.1c-2.5-6.8-4.2-13.9-9.1-19.8c-3.4-4-7.1-7.3-11.5-10
			c-3.7-2.3-7.9-3.6-11.7-5.9c-1.1-0.7-2.4-1.2-3.7-1.4c-5.5-0.9-11-1.6-16.6-1.3c-5.7,0.3-11.3,1.1-16.6,3.1
			c-4.2,1.6-8.3,3.6-12.3,5.7c-1.5,0.8-3,1.3-4.4,2.3c-2.5,1.7-4.7,3.7-6.9,5.6c-3.6,3.2-7.4,6.3-10.1,10.6c-0.6,1-1.3,2.1-2,3
			c-4.2,5.2-7.2,11.1-9.6,17.3c-1.9,4.8-2.6,10-2.6,15.1c0,1.5,2.1,17.1,3.9,22.3c2.1,5.9,5.8,11,10.2,15.3
			c7,6.9,15.8,10.8,25.5,12.1c6.3,0.8,12.7,1.3,19,1.8c4.6,0.3,9.2,0.8,13.7-0.7c1.2-0.4,2.5-0.6,3.8-0.8c5.7-1,10.7-3.6,15.4-6.7
			c3.2-2.1,5.9-4.8,9.2-6.7c5.6-3.2,9.6-8.3,13.4-13.3c5.2-6.9,7.2-14.8,7.4-23.3C700.2,522.4,699.2,520,699,517.6z"/>
		<path d="M643.6,578.6c-1.8,0-3.6-0.1-5.4-0.2l-1.8-0.1c-6.1-0.5-12.4-1-18.6-1.8c-10.6-1.4-19.6-5.7-26.7-12.7
			c-5.1-4.9-8.6-10.3-10.7-16.1c-1.9-5.5-4-21.3-4-23c0-5.9,0.9-11.2,2.7-15.8c2.8-7.2,6-13,9.9-17.8c0.5-0.7,1.1-1.6,1.8-2.8
			c2.6-4.1,6-7.1,9.3-10l2.2-2c1.9-1.7,3.9-3.4,6.1-4.9c1-0.7,2.1-1.2,3.1-1.7c0.5-0.2,1-0.5,1.5-0.7c5-2.6,8.8-4.4,12.5-5.8
			c4.9-1.8,10.3-2.9,17.2-3.2c5.9-0.3,11.7,0.4,17,1.3c1.5,0.2,3.1,0.8,4.5,1.7c1.7,1,3.6,1.9,5.5,2.8c2,0.9,4.2,1.9,6.2,3.1
			c4.4,2.7,8.3,6.1,12,10.4c4.2,5,6.1,10.8,8,16.3c0.5,1.4,0.9,2.7,1.4,4.1c2.3,5.9,3.1,12.2,3.5,17.6l0,0c0.1,0.8,0.3,1.7,0.5,2.6
			c0.3,1.5,0.7,3.1,0.5,4.8c-0.2,9.8-2.8,17.8-7.8,24.4c-3.5,4.6-7.8,10.3-14,13.8c-1.7,1-3.3,2.2-4.9,3.5c-1.3,1-2.7,2.1-4.2,3.1
			c-5.9,3.9-10.9,6.1-16.2,7c-1.3,0.2-2.5,0.4-3.5,0.7C648.8,578.4,646.2,578.6,643.6,578.6z M645.7,464c-0.9,0-1.7,0-2.6,0.1
			c-6.4,0.3-11.5,1.3-16,3c-3.6,1.4-7.3,3.1-12.1,5.6c-0.6,0.3-1.1,0.6-1.7,0.8c-0.9,0.4-1.7,0.8-2.5,1.3c-2.1,1.4-3.9,3-5.7,4.6
			l-2.2,1.9c-3.2,2.8-6.3,5.5-8.5,9.1c-0.8,1.3-1.5,2.3-2.1,3.2c-3.6,4.5-6.7,10-9.3,16.8c-1.6,4.1-2.5,9-2.5,14.4
			c0,1.6,2.1,16.8,3.8,21.6c1.8,5.1,5.1,10,9.7,14.5c6.5,6.4,14.7,10.2,24.4,11.5c6.1,0.8,12.4,1.3,18.4,1.8l1.7,0.1
			c4.1,0.3,8,0.6,11.7-0.7c1.4-0.5,2.8-0.7,4.1-0.9c4.6-0.8,9.1-2.8,14.6-6.4c1.3-0.9,2.6-1.9,3.9-2.9c1.7-1.3,3.4-2.7,5.4-3.9
			c5.5-3.1,9.5-8.5,12.8-12.8c4.5-6,6.8-13.2,7-22.1l0-0.1c0.1-1.1-0.2-2.4-0.5-3.7c-0.2-1-0.4-2-0.5-3.1l0,0
			c-0.4-5.1-1.2-11-3.3-16.6c-0.5-1.4-1-2.8-1.5-4.2c-1.9-5.5-3.6-10.6-7.3-15.1c-3.4-4-7-7.1-11-9.6c-1.8-1.1-3.7-2-5.7-2.9
			c-2-0.9-4-1.8-6-3c-0.9-0.6-2-1-3-1.1C654.9,464.7,650.3,464,645.7,464z"/>
	</g>
	<g>
		<path class="st4" d="M298.4,528.8c0.1-0.2,0.1-0.3,0.1-0.5c1.8-6.2,1.9-12.5,0.8-18.7c-0.9-5.1-1.7-10.4-4-15.3
			c-0.6-1.4-1.3-2.8-1.8-4.3c-1.8-5-4-9.9-7.6-13.9c-3.5-3.9-6.2-8.3-9.5-12.4c-2.7-3.4-5.6-6.3-10-7.7c-2.1-0.7-8.5,0-9.6-0.2
			c-0.6-0.1-1.2-0.3-1.8-0.4c-3.1-0.5-6.3-1.3-9.3-0.6c-7.2,1.6-14.7,1.6-22,3.2c-6.4,1.4-12.3,3.7-18,6.7
			c-6.8,3.6-11.1,9.7-15.7,15.5c-0.8,1-1.5,2.1-2.1,3.3c-1.8,3.6-3.5,7.2-5.3,10.8c-1.6,3.1-2.6,6.4-3.7,9.7
			c-0.8,2.4-1.1,4.9-1.8,7.3c-1.8,6.5-2.6,13.1-1.7,19.8c0.4,3,1.2,6,2,8.9c1.4,5.1,4,9.6,6.6,14.1c0.6,1,1.9,4,2.9,3.7
			c1.6,1.8,3,3.8,5,4.9c4.2,2.5,8.7,4.4,13.4,5.8c5.9,1.8,12,2.7,18.1,3.4c8.8,1,17.5,0.1,26.1-1.8c4-0.9,7.9-2.2,11.9-3
			c3.8-0.8,7.1-2.5,10-4.8c3.2-2.4,6.5-4.7,9.6-7.3c3.8-3.1,7.4-6.4,10.1-10.5c2.1-3,3.8-6.2,5.2-9.6
			C297.1,533.7,297.9,530,298.4,528.8z"/>
		<path d="M230.8,574.3c-2.6,0-5.1-0.1-7.6-0.4c-5.6-0.6-12.2-1.6-18.5-3.5c-5-1.5-9.7-3.5-13.8-6c-1.8-1-3.2-2.6-4.5-4.2
			c-0.2-0.2-0.3-0.4-0.5-0.6c-1.5-0.5-2.5-2.4-3.2-3.9c-0.1-0.3-0.3-0.5-0.4-0.7c-2.6-4.6-5.3-9.3-6.8-14.6
			c-0.8-3.1-1.6-6.1-2.1-9.2c-0.9-6.5-0.3-13.2,1.8-20.6c0.3-1,0.5-2.1,0.8-3.1c0.3-1.4,0.6-2.8,1.1-4.3l0.4-1.3
			c0.9-2.9,1.9-5.9,3.4-8.7c0.9-1.8,1.8-3.6,2.6-5.4c0.9-1.8,1.8-3.6,2.7-5.4c0.7-1.3,1.4-2.5,2.3-3.7c0.5-0.6,1-1.2,1.5-1.9
			c4.1-5.3,8.4-10.7,14.9-14.2c6.2-3.3,12.3-5.5,18.5-6.9c3.7-0.8,7.5-1.2,11.2-1.6c3.7-0.4,7.3-0.8,10.8-1.6
			c2.9-0.7,5.8-0.2,8.6,0.3c0.5,0.1,1,0.2,1.5,0.3c0.4,0.1,0.7,0.1,1.1,0.2c0.2,0.1,0.5,0.1,0.7,0.2c0.3,0,1.4,0,2.4-0.1
			c3.3-0.1,6-0.2,7.5,0.3c5.1,1.6,8.2,5,10.9,8.4c1.4,1.7,2.7,3.5,3.9,5.2c1.8,2.5,3.5,4.8,5.5,7.1c4,4.5,6.3,9.9,8,14.6
			c0.3,1,0.8,1.9,1.2,2.9c0.2,0.4,0.4,0.8,0.6,1.3c2.2,4.7,3.1,9.7,3.9,14.5l0.2,1.2c1.2,6.8,0.9,13.3-0.8,19.4c0,0.3-0.1,0.6-0.3,1
			c-0.1,0.4-0.4,1.1-0.6,1.8c-0.6,1.9-1,3.4-1.6,4.4c-1.5,3.6-3.3,6.8-5.3,9.8c-3,4.5-7,8-10.5,10.9c-2.3,1.9-4.7,3.7-7,5.4
			c-0.9,0.7-1.8,1.3-2.7,2c-3.3,2.6-6.9,4.3-10.8,5.2c-2.2,0.4-4.3,1-6.4,1.6c-1.8,0.5-3.6,1-5.4,1.4
			C243.1,573.6,236.8,574.3,230.8,574.3z M187.5,555.5l0.8,1c0.4,0.4,0.7,0.8,1,1.2c1.1,1.3,2.2,2.6,3.4,3.3c4,2.3,8.3,4.2,13,5.6
			c6,1.8,12.1,2.7,17.8,3.3c7.8,0.9,16.1,0.3,25.4-1.8c1.7-0.4,3.5-0.9,5.2-1.3c2.2-0.6,4.4-1.2,6.7-1.7c3.3-0.7,6.3-2.1,9.1-4.4
			c0.9-0.7,1.8-1.4,2.7-2c2.3-1.7,4.6-3.4,6.8-5.2c3.3-2.7,7-6,9.7-10.1c2-2.8,3.6-5.8,5-9.3l0.2-0.3c0.3-0.5,0.9-2.4,1.2-3.5
			c0.3-0.9,0.5-1.6,0.7-2.2v-0.1l0.1-0.3c1.6-5.5,1.9-11.5,0.8-17.8l-0.2-1.2c-0.8-4.6-1.6-9.3-3.6-13.6c-0.2-0.5-0.4-0.9-0.6-1.3
			c-0.5-1-0.9-2.1-1.3-3.3c-1.5-4.3-3.6-9.2-7.2-13.2c-2.1-2.4-4-4.9-5.8-7.4c-1.2-1.7-2.5-3.4-3.8-5.1c-2.7-3.4-5.2-5.8-9-7
			c-1-0.3-4.3-0.2-6.1-0.1c-1.8,0.1-2.6,0.1-3.2,0c-0.3-0.1-0.7-0.1-1-0.2c-0.2-0.1-0.5-0.1-0.7-0.2c-0.5-0.1-1-0.2-1.5-0.3
			c-2.5-0.4-4.9-0.9-7-0.4c-3.7,0.8-7.6,1.2-11.2,1.6c-3.6,0.4-7.3,0.8-10.8,1.6c-5.9,1.3-11.6,3.4-17.5,6.5
			c-5.7,3-9.5,7.9-13.6,13.1c-0.5,0.6-1,1.3-1.5,1.9c-0.7,0.9-1.3,1.9-1.9,3c-0.9,1.8-1.8,3.6-2.6,5.4c-0.9,1.8-1.8,3.6-2.7,5.4
			c-1.3,2.6-2.2,5.3-3.2,8.1l-0.4,1.3c-0.4,1.2-0.7,2.5-1,3.8c-0.2,1.1-0.5,2.3-0.8,3.4c-1.9,6.8-2.4,13.1-1.6,19
			c0.4,2.8,1.1,5.7,1.9,8.6c1.3,4.9,3.8,9.1,6.4,13.6c0.1,0.2,0.3,0.5,0.5,0.9c0.2,0.4,0.6,1.2,1,1.7L187.5,555.5z"/>
	</g>
	<g>
		<path d="M662,523.1c0.3,3.7-1.5,6.8-3.3,9.7c-3,4.6-7,7.9-12.3,9.4c-4.9,1.4-9.8,1.2-14.7-0.2c-2.9-0.8-5.8-1.7-8.4-3.4
			c-4.1-2.6-6.8-6.3-8.4-10.8c-2.4-6.4-1-12.3,2-18.2c3.3-6.6,9-10.2,15.5-12.3c6.3-2,12.8-2,18.7,1.7c4.5,2.8,7.2,7,9,11.8
			C661,513.4,661.9,522.2,662,523.1z M657.7,511.6c-1.7-2.7-1.7-3.4-2.9-5.4c-2.2-3.8-5.4-6.4-9.7-7.4c-6-1.4-11.9-0.7-17.2,2.5
			c-4.4,2.7-8.1,6.1-9.9,11.3c-1.2,3.5-2.1,7.1-1.5,10.7c1.1,6.3,4.6,11.2,10.4,14.2c3.8,1.9,7.8,2.7,12.1,3.1
			c3.7,0.3,7-0.5,10.2-2.2c3.5-1.8,6.1-4.6,8.1-7.9c2.3-3.7,2.2-9,2.2-9.7C659.4,517.8,659.4,514.7,657.7,511.6z"/>
	</g>
	<g>
		<path d="M228.3,493.5c6.4-1.9,12.2-1.5,17,3.6c2.6,2.8,4.6,7.1,4.2,9.2c-0.9-0.4-1.2-1.1-1.6-1.9c-1.2-2.3-2.4-4.7-4.3-6.5
			c-3.4-3.1-7.3-4.4-11.8-3.5c-2.8,0.6-4.9,2.5-6.8,4.6c-3.9,4.4-6.2,9.7-6.6,15.6c-0.2,3.5,0.5,6.9,2.6,10.1
			c4.3,6.7,10.6,9,17.9,9.3c5.3,0.2,9.8-1.9,13.3-6c0.4-0.5,0.7-1,0.9-1.6c2.9-6.6,3.6-13.2,0.3-20c-1.6-3.4-3.3-6.7-6.3-9.1
			c-0.8-0.6-0.4-1.4,0-1.9c0.5-0.6,1.2-0.2,1.5,0.3c2.1,2.9,5.3,4.8,6.6,8.2c0.5,1.4,2.3,3.8,2.4,5.8c0.3,3.3,0.5,6.6-0.1,9.7
			c0.5,0.5-0.7,3.1-0.9,3.9c-1.5,5-4.7,8.5-9.2,10.8c-2.9,1.4-6.1,2-9.4,1.8c-4.4-0.4-8.7-1.2-12.7-3.5c-7.9-4.6-11.3-14.6-8.5-23.1
			C217.4,504.1,228.8,491.7,228.3,493.5z"/>
	</g>
	<g>
		<g>
			<path d="M761.7,375.4c0,0,1.4-0.2,3.8-0.4c1.2-0.1,2.7-0.2,4.4-0.3c1.7-0.1,3.6-0.3,5.7-0.4c2.1-0.1,4.4-0.2,6.8-0.4
				c2.4-0.1,4.9-0.2,7.5-0.3c5.2-0.1,10.8-0.1,16.4-0.2c11.2-0.1,22.3-0.3,30.7-0.4s14-0.1,14-0.1v0.2c0,0-5.6,0.3-14,0.6
				c-8.4,0.4-19.5,0.8-30.7,1.3c-5.6,0.2-11.2,0.5-16.4,0.7c-2.6,0-5.1,0.1-7.6,0.1c-2.4,0-4.7,0-6.8,0s-4-0.1-5.7-0.1
				s-3.2-0.1-4.4-0.1c-2.4-0.1-3.8-0.1-3.8-0.1L761.7,375.4z"/>
		</g>
	</g>
	<g>
		<g>
			<path d="M779.2,391.3c0,0,1.4-0.2,3.8-0.4c1.2-0.1,2.7-0.2,4.4-0.3c1.7-0.1,3.6-0.3,5.7-0.4c2.1-0.1,4.4-0.2,6.8-0.4
				c2.4-0.1,4.9-0.2,7.5-0.3c5.2-0.1,10.8-0.1,16.4-0.2c11.2-0.1,22.3-0.3,30.7-0.4s14-0.1,14-0.1v0.2c0,0-5.6,0.3-14,0.6
				c-8.4,0.4-19.5,0.8-30.7,1.3c-5.6,0.2-11.2,0.5-16.4,0.7c-2.6,0-5.1,0.1-7.6,0.1c-2.4,0-4.7,0-6.8,0s-4-0.1-5.7-0.1
				s-3.2-0.1-4.4-0.1c-2.4-0.1-3.8-0.1-3.8-0.1L779.2,391.3z"/>
		</g>
	</g>
	<g>
		<g>
			<path d="M789.2,411.8c0,0,1.4-0.2,3.8-0.4c1.2-0.1,2.7-0.2,4.4-0.3c1.7-0.1,3.6-0.3,5.7-0.4c2.1-0.1,4.4-0.2,6.8-0.4
				c2.4-0.1,4.9-0.2,7.5-0.3c5.2-0.1,10.8-0.1,16.4-0.2c11.2-0.1,22.3-0.3,30.7-0.4s14-0.1,14-0.1v0.2c0,0-5.6,0.3-14,0.6
				c-8.4,0.4-19.5,0.8-30.7,1.3c-5.6,0.2-11.2,0.5-16.4,0.7c-2.6,0-5.1,0.1-7.6,0.1c-2.4,0-4.7,0-6.8,0s-4-0.1-5.7-0.1
				s-3.2-0.1-4.4-0.1c-2.4-0.1-3.8-0.1-3.8-0.1L789.2,411.8z"/>
		</g>
	</g>
	<g>
		<path d="M805.3,505.4c-1.4-2.6-1-5.4-1.5-8.1c-0.7-4-0.6-8.1-1.9-12c-0.8-2.6-2.6-3.4-4.7-3.9c-1.1-0.3-2.4-0.4-3.6-0.3
			c-2.1,0.2-4.2,0.1-6.3-0.3c-2.3-0.4-3.2-1.2-3.1-3.7c0.1-2.1,0.3-4.2,0.6-6.2c0.5-2.7,1.6-5.4-0.5-7.9c0-0.1,0-0.2,0-0.3
			c0-2.9-1.2-5.6-1.3-8.5c-0.1-2-0.1-4.2-0.9-6.1c-0.8-2.1-1.5-4.3-2.5-6.3c-1.4-2.8-2.6-5.6-4.1-8.4c-1.2-2.3-2.4-4.6-4.1-6.6
			c-2.6-3.1-5.2-6.1-7.8-9.2c-2-2.4-4.1-4.8-6.6-6.7c-1.9-1.5-4.3-2.5-5.9-4.2c-3.5-3.6-8.3-5-12.2-8c-0.6-0.5-1.6-1.3-2.1-1.4
			c-2.6-0.2-4.2-2.1-6.2-3.1c-1.4-0.7-3-1-4.2-1.8c-1.5-0.9-3-1.8-4.4-2.7c-7.2-4.7-15.1-8-22.8-11.6c-4.5-2.1-9.1-3.9-13.4-6.4
			c-0.8-0.5-1.7-0.8-2.6-1.1c-5.3-2-10.6-3.8-15.9-5.9c-3.6-1.5-7.4-2.6-11.1-3.6c-3.5-0.9-6.8-2.4-10.4-3.3c-3.2-0.8-6.3-2.3-9.6-3
			c-5.2-1-10.3-2.6-15.5-3.6c-5.2-1.1-10.4-1.6-15.6-2.5c-2.3-0.4-4.7-0.4-7-0.2c-2.4,0.2-4.9,0.3-7.3,0c-3.8-0.5-7.5-1.4-11.3-1.9
			c-5.8-0.8-11.4-2.4-17.2-2.8c-1.5-0.1-2.9-0.5-4.3-1.1c-2.2-1-3.7,0-3.9,2.4c-0.1,1.4-0.5,2.7-0.9,4.1c-1.2,4.4-2.8,8.6-3.5,13.1
			c-0.3,2.1-0.7,4.4-2.3,6.7c-0.1-1-0.1-1.5-0.2-2c-0.7-3.7-0.3-7.5-1.3-11.2c-0.3-1-0.6-2-0.9-3l-3.2,0.1c0.6,1.4,1.1,2.9,1.3,4.4
			c0.7,3.8,1,7.6,1.2,11.5c0.2,5.6-1.9,10.4-5.2,14.8c-5,6.8-10.7,12.9-16.9,18.5c-3.5,3.2-7.3,5.8-11.5,8.1
			c-6.7,3.7-13.2,7.8-20.2,10.9c-3.4,1.5-6.9,2.8-10.3,4.3c-0.9,0.4-1.6,0.7-2.2-0.5c-0.4-0.9-1.3-1.1-2.2-1c-2.8,0.3-5.5-1-8.3-0.1
			c-0.7,0.2-1.6-0.1-2.3-0.3c-4.7-1.2-9.5-1.9-14.2-3.3c-2.4-0.7-4.9-1.2-7.4-1.4c-2.1-0.2-4.2-0.9-6.3-1.5
			c-3.9-1.2-7.7-2.5-11.5-3.8c-3.7-1.3-7.4-2.4-10.8-4.3c-1.1-0.6-2.5-0.9-3.6-1.5c-5.5-3.3-11.4-5.9-16.5-9.9
			c-2.1-1.7-4.5-2.6-7.5-2.8c0.3-0.6,0.5-1.3,0.6-1.9l-23.5,0.6c-0.2,0.8-0.7,1.2-1.8,1.3c-4.1,0.4-8.2,0.6-12.3,0.9
			c-1.2,0.1-6.5-0.7-7.1-0.6c-2.1,0.3-4.8-0.1-5.1-0.5c0-0.1,0.1-0.2,0.1-0.3l-3.8,0.1c-0.7,0.8-1.7,1.2-2.8,1.6
			c-0.9,0.3-1.9,0.5-2.8,0.5c-5.1,0.3-10.2,1.3-15.3,1.4c-3.2,0.1-6.4,0.4-9.6,0.6c-6.1,0.5-12.1,1-18.2,0.9
			c-0.2-0.9-2.9-1.6-1.5,0.1c-6.4,0.3-12.5,1.1-18.6,1c-6.7-0.1-13.4,0.8-20,2c-3.8,0.6-7.6,1.3-11.4,1.2
			c-5.3-0.1-10.6,0.6-15.9,0.4c-1.8-0.1-3.7,0-5.5,0.1c-5.9,0.6-11.7,1.7-17.5,2.7c-1.9,0.3-3.8,0.8-5.7,0.7c-4-0.2-8-0.1-12,0
			c-1.2,0-2.4-0.2-3.6,0c-4,0.6-8.1,0.8-12.2,1.7c-0.6,0.1-7.8,1.7-9.7,1.9c-4.2,0.4-8.4,1.2-12.4,2.9c-2.9,1.3-6.1,2.1-9.1,3.2
			c-4.6,1.6-8.2,4.8-11.4,8.4c-1.4,1.5-2,3.4-2.8,5.2c-1.7,3.9-3.1,7.7-3.2,12.2c-0.1,4,0.4,7.8,1.1,11.7c0.3,1.5-0.1,3,0.4,4.4
			c1,2.6,1,5.4,1.6,8.1c0.7,3,0.8,6.2,1.2,9.3c0.5,4.1,0.8,8.2-0.8,12.3c-1.4,3.4-3.3,6.1-6.6,7.7c-3.4,1.7-6.6,3.7-9.9,5.7
			c-3.8,2.3-4.6,6.4-5.6,10.2c-0.5,2.1-0.2,4.5,0,6.7c0.4,3.9,1.6,7.6,2.3,11.5c0.7,4,4.3,7.5,9.3,7.8c5.8,0.3,11.6,0.8,17.5,1.1
			c8.9,0.5,17.7,1,26.6,0.6c0.5,0,1.1,0,1.6,0c2.9,0.3,5.9-0.2,8.8-0.3c2.6-0.1,5.2-0.9,7.8,0.1c1,0.4,1.7-0.2,2.1-1.1
			c0.5-0.9,0.4-1.6-0.2-2.4c-0.7-0.8-1.5-1-2.3-0.6c-2.5,1.4-5.4,1.6-8.1,1.6c-6,0-11.9,0.7-17.9,0.3c-4.8-0.3-9.5-0.2-14.3-0.5
			c-4-0.3-8-1.2-12.1-1.1c-3.7,0.1-7.3-0.6-10.8-1.4c-2.3-0.5-4-2.2-4.7-4.5c-0.9-2.8-0.9-5.8-1.7-8.7c-0.8-2.6-1-5.3-0.6-8
			c0.6-4.3,2-8.2,6.4-10.3c2.9-1.4,5.6-3.2,8.3-4.9c2.5-1.6,4.9-3.3,6-6.5c1-3.1,1.7-6.2,2.8-9.2c0.3-0.9,0.3-1.9,0.1-2.9
			c-0.3-1.2-0.4-2.4-0.5-3.6c-0.5-3.6-0.7-7.2-1.4-10.7c-0.5-2.4-0.9-4.8-1.1-7.2c2.8-0.8,5.5-0.2,8.1-0.3c1.6-0.1,3.2-0.6,4.9-0.6
			c2.9,0.1,5.8-0.1,8.7-0.1c4.3,0,8.5-0.8,12.8-1.2c1.9-0.2,3.1-1.1,3.6-2.9c1.7-6.3,2.4-12.8,2.5-19.4c0.1-5,0.2-9.9-0.3-14.9
			c-0.2-1.6-0.5-3.1-0.6-4.7c0-1.1,0.3-1.5,1.4-1.7c2.8-0.5,5.6-1.1,8.5-1.6c5.4-0.9,11-0.9,16.4-0.7c3.2,0.1,6.3,0,9.4-0.5
			c4.6-0.7,9.3-1.5,13.9-2.2c7.2-1.1,14.5-0.7,21.7-1.1c4.6-0.2,9.3-0.2,13.8-0.9c7.6-1.3,15.3-2.2,23.1-2.4
			c6.9-0.2,13.8-0.8,20.7-0.9c4.4-0.1,8.7-0.1,13.1-0.6c3.8-0.4,7.7-0.6,11.5-0.9c6.5-0.6,13.1-0.9,19.6-1.7c0.5-0.1,1.1-0.3,1.5,0
			c1.3,1.3,2.8,0.6,4.2,0.4c1.2-0.2,2.4-0.5,3.6-0.6c1-0.1,8-0.4,10.2-0.8c4-0.6,8.2-0.3,12.2-1.1c1.1-0.2,2,0.3,3,0.8
			c1.3,0.7,1.5-1.2,2.7-1.1c4.3,0.3,8.5-0.4,12.8-0.7c1.1-0.1,2.4,0.8,3.5-0.3c0.3-0.3,1,0,1.1,0.3c0.5,1.1,1.6,1.3,2.5,1.7
			c1.7,0.7,3.5,1.4,4.9,2.4c3.1,2.3,6.1,4.5,9.5,6.4c4.1,2.4,8.4,4.5,12.8,6.4c4,1.7,8,3.2,12.2,4.6c4.1,1.3,8.2,2.8,12.5,3.8
			c2.8,0.6,5.6,1.3,8.4,2c3.9,1,7.8,2.2,11.8,2.9c4,0.8,8.1,1.1,12.2,1.3c1.1,0,2,0.4,2.8,1.2c1.5,1.7,1.8,1.7,3.7,0.6
			c3.2-1.9,6.6-3.1,10.1-4.1c0.9-0.3,1.8-0.7,2.6-1l15.8-7.1c3.5-1.4,6.3-3.9,9.3-6.1c6.2-4.6,11.2-10.4,16.3-16.1
			c1.4-1.5,1.3-1.6,3.4-0.9c0.5,0.2,1.1,0.3,1.5,0.1c1.9-1,4.1-0.6,6-1.6c0.8-0.4,1.2-0.8,1.3-1.6c1-5.8,2.3-11.6,3.9-17.3
			c1.3-4.7,2.8-9.3,3.8-14.1c0.8-4.1,2.2-8.2,3.2-12.3c0.2-0.7,0.5-1,1.2-1c4.1,0.2,8.2,0.3,12.2,1.3c4.5,1.1,9,1.6,13.5,2.5
			c5.9,1.2,11.9,0.9,17.9,1.3c4.1,0.3,8.2,0.4,12.1,1.1c4.9,0.8,9.8,1.9,14.7,2.9c7.3,1.4,14.2,4,21.1,6.4c3.2,1.1,6.4,2.4,9.8,3.3
			c4,1,7.8,2.4,11.5,4s7.4,3.3,11.2,4.8c2.1,0.8,4.2,1.5,6.1,2.5c2.1,1.1,4.2,2.2,6.4,3.2c4.4,1.9,8.9,3.4,13,6c1.3,0.8,2.5,2,4,2.3
			c1.7,0.3,3.1,1.2,4.4,2.2c0.6,0.5,1.3,0.9,2,1.2c3.2,1.2,5.9,3.3,9,4.7c2.1,1,3.9,2.6,6,3.6c5.1,2.6,9.9,5.7,14.5,9.2
			c0.3,0.2,0.6,0.4,0.9,0.6c4.1,2.4,7.9,5,11,8.7c3.1,3.6,6.4,7.1,9.5,10.8c3.3,3.9,4.8,8.8,7.5,13.1c0.1,0.1,0.1,0.3,0.1,0.5
			c0.5,1.6,1.2,3.1,1.8,4.6c1.3,3.1,2.4,6.5,2.3,9.9c-0.1,3.8,1,7.4,1.4,11.1c0.4,3.3,0.4,6.3-0.8,9.4c-0.4,1.2-0.8,2.5-0.8,3.8
			c0,2.1,0.1,2.2,2.1,2.4c4.2,0.3,8.3,0.6,12.5,1c2.5,0.2,4.4,1.2,5.1,3.7c0.6,2.2,1,4.5,1.4,6.8c0.4,2.8-0.1,5.6,0.5,8.3
			c0.4,1.9-1,3.7-2.9,4.7c-1.4,0.8-3,0.9-4.4,1.4c-4.9,1.8-10.1,1.8-15.1,2.7c-4,0.7-8.1,1.2-12.1,2.1c-4.5,1.1-9.1,1.8-13.6,2.4
			c-2.6,0.4-5.3,0.2-7.8,0.7c-5.5,1.2-11,1.8-16.5,2.6c-6.5,1-13.1,1.8-19.7,2.7c-1,0.1-1.9,0.5-2.8,0.2c-1.9-0.4-3.1,0.8-4.5,1.6
			c-0.5,0.3-0.5,0.8-0.2,1.4c1.1,1.6,2.4,1.9,4.4,1.1c1-0.4,1.7-1.3,3-1.5c2.7-0.3,5.3-1.1,8-1.4c7.3-0.8,14.5-2.4,21.8-3.1
			c4.4-0.4,8.7-1.9,13.2-1.8c1.1,0,2.3-0.1,3.4-0.2c7-1.2,14.1-2.4,21.1-3.5c2.7-0.4,5.3-1.4,7.9-1.6c4.5-0.3,8.8-1.3,13.1-2.3
			c2.5-0.6,4.8-1.6,6.8-3.3C805.3,507.4,805.9,506.3,805.3,505.4z M156.4,438.3c-0.3,2.7-0.5,5.4-1,8c-0.2,1.4-0.7,2.7-1,4.1
			c-0.6,2.4-2.2,3.6-4.4,3.9c-3,0.5-6,0.8-9.1,0.8c-5.6,0-11.1,0-16.7-0.1c-1.1,0-2.3-0.1-3.4-0.2c-2.8-0.2-3.8-1.4-4.1-4.2
			c-0.3-3.8,0-7.5,0.1-11.2c0-0.7,0.2-1.4,0.4-2c0.8-2.4,2-4.7,2.5-7.2c0-0.1,0-0.2,0.1-0.3c2.2-2.6,3.7-5.9,7-7.6
			c0.2-0.1,0.5-0.1,0.7-0.3c1-0.8,1.9-1.8,3.1-2.2c7.5-2.7,15-5.8,23-6.6c1.3-0.1,1.6,0.3,2,1.4c0.7,2.5,0.9,5.1,1.1,7.7
			c0.1,1.3,0,2.6,0.1,3.6C157.3,430.4,156.9,434.3,156.4,438.3z M542.3,388.9c-0.6,1.8-1.8,2-4.6,1.3c1.7-3.1,4.3-5.6,6-8.7
			c0.2,0,0.4,0.1,0.6,0.1C543.6,384.1,543.1,386.5,542.3,388.9z"/>
	</g>
</g>
<g id="people_llnes">
	<g>
		<g>
			<g>
				<path d="M690.8,293.8c-4.2,0.6-9.6,0.6-14.9,0.5c-4.7-0.1-9.4-0.3-14.1-1.1c-5.5-0.9-11.1-1.2-16.7-0.9c-4.3,0.3-8.6,1.4-12.7,3
					c-5.7,2.3-11.3,4.9-17,7.4c-2.3,1-4.5,2.3-6.8,3.3c-7.3,3.4-14.9,5.4-22.8,6.4c-4.3,0.5-8.6,1.2-12.9,2
					c-5.4,1-10.8,2.1-16.2,0.2c-1.6-0.5-3.1-1-4.7-1.6c-0.3-0.1-0.7-0.3-0.9-0.6c-0.4-0.6-1.2-1.3-0.5-2.1c0.7-0.8,1.3,0.1,1.7,0.5
					c0.6,0.5,1.3,0.7,2.1,0.9c2,0.4,4,1,6.1,1.5c2.9,0.6,5.9,0.2,8.8-0.3c2.1-0.4,4.3-0.8,6.4-1.1c4.1-0.6,8.2-1.5,12.4-2
					c2.9-0.4,5.7-0.9,8.4-1.6c2.8-0.7,5.4-1.9,8.1-3c6.5-2.7,12.7-6.1,19.2-8.9c3.4-1.5,6.9-3,10.4-4.1c6.3-1.9,12.8-2.6,19.4-2.1
					c1.9,0.2,3.8,0.2,5.7,0.1c1.6-0.1,3.2,0.1,4.7,0.4c5.3,1.2,10.7,1,16.1,1c4.4,0,8.7-0.6,13-0.5c1.5,0,2.9-0.3,4.4-0.6
					c3.1-0.5,6.1-1.2,9.2-1.6c4.2-0.5,8.1-1.9,12.3-2.2c3-0.2,6.1-0.9,9.1-1.1c4.5-0.4,9.1-0.7,13.6-0.5c5.6,0.3,11.3,0.5,16.9,0
					c2.6-0.2,5.2-0.2,7.8-0.9c0.4-0.1,0.9-0.3,1.1,0.3c0.1,0.5-0.3,0.8-0.7,1c-1.3,0.6-2.7,0.8-4.1,0.9c-2.7,0.4-5.4,0.3-8,0.8
					c-2.1,0.4-4.2,0.2-6.2,0c-2.7-0.2-5.4-0.3-8.1-0.2c-5.4,0.1-10.8,0.5-16.2,1c-5.5,0.5-10.7,2.1-16.2,2.9
					C702.8,292.2,697.4,293.7,690.8,293.8z"/>
			</g>
			<g>
				<path d="M648.3,279.2c-3,0.7-5.5,0.6-7.9,0.6c-3.7,0.1-7.5-0.2-11.2-0.2c-4.5-0.1-9,0.2-13.5-0.5c-1.5-0.2-3.3-0.1-4.9,0.2
					c-2.9,0.4-5.9,0.1-8.8,0.2c-4.7,0.2-8.5-2.1-12.2-4.6c-2-1.4-3.9-3-5.8-4.5c-0.6-0.5-1.2-1-1.6-1.7c-2.9-4.9-7.4-7.1-12.9-7.9
					c-0.9-0.1-1.9-0.2-2.8-0.4c-2-0.4-3.9,0.2-5.8,0.7c-0.6,0.2-1.3,0.5-1.5-0.4c-0.2-0.7,0.6-0.7,1-0.9c2.6-1.3,5.3-0.7,7.9-0.5
					c0.8,0.1,1.5,0.3,2.3,0.3c4.8,0.2,8.6,2.4,11.4,6c2.8,3.6,6.2,6.4,10,8.8c1.3,0.8,2.8,1.4,4.1,2.1c2.9,1.6,6.1,1.2,9.2,1.4
					c2.9,0.1,5.8,0.2,8.6,0c4.7-0.3,9.4,0.1,14.1,0.3c5.3,0.2,10.6-0.3,15.8,0.5C645.1,278.8,646.5,278.2,648.3,279.2z"/>
			</g>
			<g>
				<path d="M454.5,278.7c0,1.5-1,2.7-2.6,2.5c-1.5-0.1-2.1,0.4-2.4,1.7c-0.3,1.5-1.2,2.5-2.8,2.7c-1.3,0.2-3.5-1.3-4.1-2.8
					c-0.3-0.7-0.1-1.7-1-2c-0.9-0.4-1.9-0.3-2.8,0.1c-2,0.9-3.5-0.6-5.3-0.8c-0.7-0.1-0.6-0.9-0.4-1.6c0.2-0.8,0.8-1.7,1.6-1.4
					c1.5,0.7,3.2-0.3,4.6,0.6c0.4,0.3,1.1,0.2,1.5-0.2c0.7-0.6,1.6-0.6,2.3-1.1c1.4-0.9,2.7-0.9,4.1,0c0.7,0.5,1.5,0.3,2.3,0.3
					c1.3,0,2.6-0.1,3.8,0.4C454.2,277.4,454.5,277.9,454.5,278.7z"/>
			</g>
			<g>
				<path d="M474.3,350.1c-2-0.1-4.6-2.5-4.8-4.6c-0.1-0.7,0.2-1.2,0.6-1.7c1.1-1.2,1.9-2.7,3.4-3.5c1-0.5,1.4-1.2,1.1-2.4
					c-0.5-1.7,0.8-3.2,0.8-4.8c0-0.4,0.4-0.4,0.8-0.6c2.8-1.2,2.9-1.4,2.3-4.3c-0.2-0.9,0.1-1.6,1-1.9c0.8-0.3,1.4-0.2,1.9,0.8
					c0.9,1.9,0.6,4.2-0.9,5.7c-0.5,0.5-0.9,1.1-1.5,1.4c-1.4,0.9-1.8,2-1.3,3.6c0.4,1.2,0.1,2.2-1,3c-1.3,1-2.5,2.1-3.6,3.4
					c-1.4,1.7-1.2,2.5,0.7,3.8c0.4,0.2,0.8,0.4,1.1,0.6c0.3,0.2,0.9,0.4,0.7,1C475.4,350.1,474.9,350.3,474.3,350.1z"/>
			</g>
			<g>
				<path d="M446.1,272.2c-2.5,0.7-5-0.2-7.5,0c-1.6,0.1-2.8,0.6-4,1.7c-1.9,1.7-3.5,1.3-4.2-1.2c-0.2-0.8,0.7-2.3,1.6-2.6
					c2.7-0.8,5.3-1.9,8.4-1.2c1.8,0.4,3.8,0.3,5.7-0.1c0.5-0.1,1-0.2,1.5-0.2c0.9,0.1,1.9,0.3,1.8,1.4c0,1-0.4,1.9-1.6,2.1
					C447.3,272.1,446.7,272.2,446.1,272.2z"/>
			</g>
			<g>
				<path d="M510.6,336.8c1.4-0.2,2.1-1.5,3.4-0.6c-0.3,1.7-1.8,2.3-3,3c-1,0.6-2.4-0.3-2.5-1.6c-0.1-1.5-0.6-2.2-2.1-2.7
					c-2.7-0.9-3.3-2.6-1.9-5.1c1.6-2.7,1.3-3.3-1.9-4c-0.9-0.2-1.7-0.3-2.5-0.8c-0.7-0.4-0.8-1.1-0.5-1.8c0.4-0.8,1.2-0.9,1.8-0.4
					c1.2,0.8,2.5,1.2,3.8,1.7c2.3,1,2.9,2.3,2.1,4.6c-0.1,0.3-0.4,0.6-0.5,0.9c-1,2.2-1,2.4,1.2,3.3
					C509.7,333.7,510.4,335,510.6,336.8z"/>
			</g>
			<g>
				<path d="M538.4,312.4c-0.8,1.3-1.8,1.5-3,0.8c-0.7-0.4-1.5-0.6-2.2-0.9c-2.9-1.2-4-2.8-4-6c0-1.9,0.3-3.8-0.5-5.7
					c-0.8-2.1-2-3.8-3.9-5.1c-1-0.7-1.7-1.5-1.6-2.7c0-0.5,0.2-0.9,0.7-1c0.4-0.1,0.8-0.1,0.9,0.3c0.9,2.1,3,3.1,4.3,4.8
					c1.5,2,1.5,4.4,1.9,6.7c0.1,0.9,0,1.9,0,2.9c0.1,2.7,0.9,3.7,3.5,4.4C535.9,311.2,537.2,311.3,538.4,312.4z"/>
			</g>
			<g>
				<path d="M522.6,307.4c0.3,2.1-1.2,3.6-1.9,5.3c-0.2,0.4-0.5,0.7-0.7,1.1c-1.5,2.6-1.3,2.8,1.5,3.5c0.8,0.2,1.5,0.4,2.3,0.7
					c0.5,0.2,0.9,0.5,1,1.1c0.3,2.4,0.5,4.8-0.5,7.1c-0.5,1.1-0.6,2.2-0.8,3.3c-0.1,1-0.2,1.9,0.8,2.5c0.8,0.5,0.4,1-0.1,1.4
					c-0.6,0.5-0.9,0.5-1.4-0.2c-1.4-1.9-1.5-3.9-0.5-5.9c1-1.9,1.5-3.9,1.4-6c0-1.3-0.2-2.2-1.9-2.1c-0.8,0.1-1.7-0.2-2.6-0.5
					c-2-0.7-2.8-2.5-1.6-4.1c1.7-2.2,2.9-4.7,4.5-7C522.1,307.5,522.3,307.5,522.6,307.4z"/>
			</g>
		</g>
	</g>
	<g>
		<g>
			<path d="M338.3,394.5c0.2-1.2,1.6-1.6,1.9-2.6c0.3-1.1-0.1-2.4,0.5-3.5c0-0.1,0.1-0.2,0.1-0.2c1.5-4.8,3.4-9.5,4.8-14.4
				c1.8-6.4,4.5-12.6,6.8-18.9c2-5.6,4.1-11.1,6.6-16.4c2-4.4,3.8-8.9,5.4-13.5c0.9-2.7,1.8-5.4,2.7-8.1c1.5-4.3,3.5-8.5,5.2-12.8
				c0.8-1.9,1.5-3.7,2.1-5.6s-0.4-2.8-2.3-2.5c-0.4,0.1-0.9,0.2-1.3,0.2c-2.5-0.3-5-0.2-7.5,0.2c-0.8,0.2-1.7,0-2.6-0.4
				c-1.9-0.8-2.8-0.4-3.4,1.6c-0.5,1.9-1.4,3.7-2.6,5.3c-2.4,3.2-4.8,6.4-6.8,9.8c-3.1,5.1-6.4,9.9-10,14.6
				c-3.2,4.1-6.6,8.1-9.5,12.4c-3.2,4.7-6.7,9.2-9.8,13.9c-3.3,4.8-7,9.4-10.7,13.9c-3.6,4.3-6.7,8.9-10.6,13
				c-1.7,1.8-3.3,3.8-4.7,5.9c-2.1,3.1-5,5.5-7.3,8.5c-1.1,1.5-2.7,2.6-0.9,4.7c-0.2,1.4,0.5,2.5,2.8,2.6c4.4,0.1,8.7-0.1,13.1-0.6
				c3.8-0.4,7.7-0.6,11.5-0.9c6.5-0.6,13.1-0.9,19.6-1.7c0.5-0.1,1.1-0.3,1.5,0c1.3,1.3,2.8,0.6,4.2,0.4
				C337.9,399,338.4,394.7,338.3,394.5z M335.9,390.8c-0.2,0.4-0.4,0.7-0.4,1.2c-0.1,2.3-1.8,3.2-3.7,3.9c-0.9,0.3-1.9,0.5-2.8,0.5
				c-5.1,0.3-10.2,1.3-15.3,1.4c-3.2,0.1-6.4,0.4-9.6,0.6c-6.1,0.5-12.1,1-18.2,0.9c-0.2-0.9,0.6-0.7,0.9-1c0.7-0.6,1.6-1.1,1.8-2.1
				c0.3-1.6,1.3-2.8,2.3-4c1.5-1.6,2.6-3.5,4.1-5c3.4-3.4,5.7-7.6,8.8-11.2c3.1-3.5,5.9-7.3,8.9-10.9c2.9-3.6,5.5-7.4,8.2-11.2
				c2.7-3.8,5.5-7.6,8.2-11.4c2.6-3.7,5.5-7.1,8.1-10.8c1.8-2.5,3.9-4.9,5.7-7.4c3.3-4.5,6.2-9.3,9.3-13.9c2.2-3.2,4.6-6.4,6.8-9.6
				c1.2-1.7,2.9-2.2,4.8-2.2c1.2,0,2.2,0.1,3.3-0.5c1.5-0.8,2.8,0.4,4.3,0.6c-0.6,2.7-1.4,5-2.4,7.2c-2.9,6.6-5.1,13.5-7.5,20.3
				c-1.5,4.2-3.5,8.3-5,12.5c-1.9,5.4-5.1,10.2-6.6,15.8c-0.9,3.5-2.6,6.8-3.9,10.2c-1.1,2.9-2.2,5.8-3.1,8.8
				c-1.1,3.6-2.1,7.4-3.9,10.7C337.9,386.5,336.9,388.6,335.9,390.8z"/>
		</g>
		<g>
			<path d="M860.6,268.1c-0.9-0.6-1.8,0-2.2,0.8c-0.9,1.7-2.5,0.8-3.7,0.9c-0.9,0.1-1.8,0.1-2.7-0.1c-7.1-1.8-14.2-1.5-21.2,0
				c-5.3,1.1-10.6,2.2-15.9,3.2c-1.7,0.3-3.4,0.3-5.7,0.5c1.6-1.8,2.9-3.1,4-4.5c1.4-1.8,3.2-3.5,3.6-5.9c0.2-1.2-0.3-1.8-1.1-2.4
				s-1.5-0.2-2.1,0.4c-1.3,1.1-2.8,1.7-4.4,2.2c-5.5,1.8-11.1,2.3-16.8,1.2c-2.6-0.5-5.1-0.9-7.7-1.2c-5.3-0.5-10.2-2.3-14.9-4.4
				c-2.5-1.1-5-2-7.4-3.2c-4.2-2.1-8.4-4.1-13.2-4.9c-1.7-0.3-3.5-0.3-5.2-0.8c-5.2-1.5-10.6-1.2-15.8-1.4c-3.2-0.1-6.5,0-9.7,0
				c-4.8-0.1-9.5,0.3-14.3,0.1c-4.6-0.2-9.3,0.4-13.9,0.4c-6.9,0.1-13.8-0.3-20.6-0.2c-3.1,0-6.3-0.4-9.3-0.9
				c-5.7-1.1-11.2-2.4-16.8-4.1c-4.7-1.4-9.5-2.9-14-4.9c-1.7-0.7-3.2-1.8-4.8-2.6c-4.1-1.8-8-3.9-11.7-6.3
				c-5.2-3.5-11.3-5.9-15-11.3c-0.1-0.1-0.2-0.2-0.2-0.3c-4.3-3.4-8.4-7-13.1-9.9c-5-3-10.3-5.6-15.3-8.4c-4.2-2.4-8.7-3.8-13.4-4.9
				c-2-0.5-4.2-0.6-6.2-1.1c-5.1-1.3-10.3-1.7-15.6-1.8c-2.5-0.1-5.1,0.1-7.6,0.1c-7.3-0.1-14.4,1.2-21.3,3.7
				c-3.6,1.3-7.3,2.7-10.8,4.4c-5.2,2.7-10.2,5.7-13.2,11c-0.7,1.2-1.5,1.5-2.7,1.3c-2.9-0.3-5.9-0.2-8.8-0.7
				c-1-0.2-2.1-0.5-3.1,0.7c1.4,0.2,2.7,1.2,3.8,1.2c2.3,0.1,4.6,0.8,7,0.4c2.2-0.3,2.2-0.2,1.8,2.1c-0.2,1.2,0.4,2.4,0.4,3.6
				c0,3.1,1.8,5.1,4,6.9c0.6,0.5,1.1,0.7,1.6,0.3c0.7-0.5,0.2-1.1,0-1.6c-0.1-0.4-0.5-0.7-0.8-1c-2.9-2.3-3.4-5.6-2.3-8.7
				c1.3-3.7,3.7-7.1,7-9.2c4.6-2.9,9.3-5.7,14.6-7.4c1.3-0.4,2.7-0.6,4-1.1c2.9-1.1,5.9-1.7,9-2.2c4-0.7,8.1-0.6,12.1-1
				c2.5-0.3,5,0.3,7.5-0.2c0.4-0.1,0.9,0.1,1.3,0.1c7.1,1.5,14.3,2,21.2,4.1c2.5,0.8,5.1,1.5,7.4,2.8c3.6,1.8,7,3.9,10.6,5.8
				c8,4.4,15.2,9.9,21.8,16.2c1.4,1.4,2.9,2.5,4.6,3.6c2.1,1.4,4.5,2.3,6.5,3.9s4.3,2.8,6.5,4.1c2.6,1.5,7,3.7,9.7,5
				c2.4,1.1,4.8,2.3,7.3,3.1c6.1,1.8,12,4,18.3,5.3c4.3,0.9,8.6,2.3,13.1,2.3c2.5,0,5.1-0.1,7.5,0.2c4.4,0.6,8.9,0.4,13.3,0.4
				c3.5,0,7,0.1,10.5-0.1c3.4-0.1,6.8-0.7,10.3-0.4c6.3,0.5,12.7-0.3,19.1,0c5.9,0.3,11.9-0.2,17.6,1.6c0.2,0.1,0.5,0,0.8,0
				c3.8,0,7.4,1.2,10.7,2.7c5.1,2.3,10.4,4.4,15.6,6.6c2.1,0.9,4.1,2,6.4,2.5c7,1.6,14.1,2.6,21.3,3c3.5,0.2,6.9-0.3,10.3-1.1
				c1.8-0.4,3.7-0.6,5-2.3c0.3,0.5,0.2,0.9,0,1.1c-1.5,2-3.3,3.9-5.2,5.4c-1.2,1-2.6,1.7-4.3,1.8c-1,0-1.9,0.6-2,1.7s0.9,1.9,2.3,2
				c0.4,0,0.9-0.1,1.3-0.1c2.2,0.1,4.2-1.2,6.4-1.1c4.4,0.3,8.5-1.2,12.7-1.8c5.1-0.8,10-2.4,15.2-2.5c1.1,0,2.2,0.4,3.4,0.2
				c1.9-0.3,3.8-0.1,5.7,0.2c2.4,0.4,4.7,0.7,7.1,0.8c0.5,0,1,0,1.2,0.6c-0.6,0.9-1.5,1.5-2.6,1.7c-2.1,0.4-4.1,1.6-6.3,1.2
				c-0.5-0.1-1.1,0.1-1.4,0.5c-0.6,0.7-1.4,0.7-2.2,0.8c-2.9,0.4-5.9,0.7-8.8,1.4c-5.3,1.4-10.2,3.9-15.2,6.2
				c-1.7,0.8-3.5,1.5-5.1,2.5c-4.9,3-9.8,6-14.3,9.7c-1.8,1.5-4,2.5-6.3,3c-7.3,1.6-14.6,0.9-21.7-1.1c-5.2-1.5-10.4-2.1-15.7-2.3
				c-2-0.1-4.1,0.3-6,1.6c-2.5,1.8-5,3.6-7.7,4.9c-5.4,2.7-10.5,6.1-15.9,8.9c-3.8,2-7.8,3.1-12,4c-4.9,1-9.9,0.8-14.8,1.2
				c-3,0.2-5.9-0.4-8.9-0.1c-3.5,0.3-6.8-0.6-10-1.5c-4.6-1.4-8.9-3.3-13.5-4.8c-2.5-0.8-5-1.7-7.7-1.5c-3.6,0.3-7.3,0.4-10.9,1.2
				c-6,1.2-11.8,3.1-17.4,5.6c-5.9,2.7-11.8,5.6-18,7.7c-7.6,2.6-15.4,5.1-23.3,6.9c-4.7,1.1-9.5,2.1-14.2,3
				c-4.4,0.9-8.8,1.2-13.3,1c-5.6-0.3-11.2-1.1-16.7-2c-2-0.3-3.7-1.4-5.6-2.1c-2.2-0.8-2.6-3.4-1.2-5.5c1.9-2.7,2.9-5.6,2-8.9
				c-0.1-0.3-0.1-0.7-0.2-1c-0.6-2-0.2-3.8,1.1-5.4c1.2-1.6,2.3-3.3,3.5-4.9c0.7-0.9,0.7-1.9,0.5-3c-0.1-0.9-0.6-1.5-1.6-1.5
				c-0.9,0-1.1,0.6-1.3,1.4c-0.3,1.7-1.2,3-2.2,4.4c-1.5,2.1-3.1,4.2-3.8,6.8c-0.2,0.7-0.4,1.2,0,1.9c1.6,3,1.1,5.8-0.9,8.5
				s-2.2,6.6-0.1,9.2c1.2,1.6,1.3,3.2,1.4,4.9c0,3.6-2.6,5.3-5.8,4.1c-3.6-1.4-7.3-2.6-11.1-2.3c-6.5,0.5-12.7,2.1-18.6,5
				c-3.4,1.7-6.8,3.2-10.2,4.7c-2.2,1-4.5-0.5-4.7-3c-0.1-1,0-2.2-0.5-2.8c-1.5-1.9-0.3-3.1,0.8-4.3c1.2-1.3,2.2-2.7,2.8-4.4
				c0.6-1.7,0.2-3.1-1.3-4.1c-0.6-0.4-1.2-0.6-1.3-1.4c-0.1-0.7-0.8-0.7-1.2-0.5c-0.6,0.3-1.5,0.1-1.6,1c-0.1,0.7,0,1.2,0.7,1.5
				c0.6,0.3,1.3,0.5,1.9,0.8c1,0.5,1.4,1,1,2.3c-0.7,1.9-1.9,3.3-3.4,4.5c-1.9,1.7-2,2.3-0.8,4.5c0.5,0.9,0.8,1.7,0.6,2.7
				c-0.3,2.3,0.6,4.2,2.5,5.5c-0.7,0.5-1.4,0.9-1.9,1.5c-2.6,2.6-5.4,3.1-8.8,1.4c-1.8-0.9-3.6-1.8-5.7-1.6
				c-1.2,0.2-1.6-0.9-1.6-1.7c0-2.7-1.9-3.9-3.9-5c-2.7-1.5-2.8-2.8-0.7-5.1c0.2-0.2,0.4-0.4,0.5-0.6c1.1-1.1,1.8-2.1,1.7-3.8
				c-0.1-2.1,0.3-4.2,3.1-4.7c0.7-0.1,1.3-0.9,1.9-1.3c0.9-0.6,1.8-1.4,1.5-2.6c-0.4-1.5,0.6-1.9,1.6-2.4c1.1-0.6,2.4-0.6,3.6-0.6
				c2.8-0.2,5.6,0.2,8.4-0.3c2-0.4,4-0.4,5.9-0.8c4.2-0.9,8.3-2.3,11.9-4.9c3.2-2.4,5.9-5,8.3-8.2c0.7-0.9,0.8-1.6,0.1-2.2
				c-1.1-1-1.2-2.3-1.4-3.6c-0.3-1.5-0.6-3.1-1-4.6c-0.2-0.8-0.3-1.8-1.3-2.1c-1.2-0.3-1.9,0.4-2.4,1.3c-0.7,1.4-2.1,2.1-3.3,2.9
				c-3.3,2.2-7.1,3-11,3.7c-4.4,0.8-8.8,0.4-13.2,0.3c-1.7,0-3.5,0-5.2-0.3c-1.6-0.3-3.2-0.9-4.9-0.9c0.1-0.4,0.1-0.6,0.1-0.9
				c0.1-0.3,0.3-0.6,0.4-1c0.8-3.6,3.6-5.3,6.6-6.9c1-0.5,2.1-0.4,3.1-0.1c0.9,0.3,1.4,0.8,1.1,2c-0.6,2.1-0.3,2.4,1.6,2.9
				c0.5,0.1,1.1,0.1,1.3,0.7c-0.3,0.6-0.7,1.2-0.8,1.9c-0.1,0.6-0.6,1.1,0.2,1.6c0.7,0.4,1.3,0.3,1.9-0.2c1.4-1,1.5-3.8,0.2-5
				c-0.5-0.5-1.6-0.5-1.7-1.5c1.8-1.5,4.1-1.8,6.2-2.7c1.1-0.5,2-0.5,2.8,0.5c0.4,0.5,0.9,0.9,1.6,0.7c1.8-0.4,1.9,0.6,2.1,2
				c0.3,2.5,0.7,3.2,3.1,2.8c-0.4-1.3-0.9-2.6-1.3-3.9c-0.3-1-0.5-2.1,0.7-2.7c1.6-0.9,3.5-0.9,4.4-0.1c1.7,1.7,1.6,1.6,3.6,0.8
				c5-2,8.7-5.8,13.1-8.7c2.7-1.8,4.3-4.5,5.9-7.2c1.2-2.1,2.6-4.1,4.4-5.8c0.8-0.8,1.7-1.4,1.7-2.7c0-0.8,0.6-1.2,1.4-1.2
				c2.4,0.1,4.7,0.1,7.1,0.3c1.3,0.1,1.4,0.4,1,1.7c-0.4,1.4-1.7,2.1-2.3,3.4c-1.7,4.1-1.5,8.1,0.9,11.9c0.4,0.7,0.6,1.4,0.8,2.2
				c0.1,0.4,0.1,0.9-0.3,1.2c-0.5,0.4-1,0.3-1.5,0c-0.4-0.2-0.7-0.5-1-0.8c-1.5-1.5-2.9-3.2-4.5-4.6c-1.2-1.1-1.7-2.7-3.3-3.8
				c-0.3,2.3,0.8,3.7,2.1,5c2.2,2.3,4.6,4.2,6.6,6.7c1.1,1.3,0.9,1.9,0.1,3c-0.8,1.1-0.8,2.6-0.1,3.3c1.1,1.1,2.9,1.4,4,0.3
				c0.8-0.7,1.6-0.9,2.5-1.2c2.3-0.6,4.5-1.3,6.2-3.1c2.6-2.5,4.8-5.3,7-8.1c2.4-3.1,3.7-6.5,4.3-10.2c0.9-5.7-2.2-12.5-9.5-13.3
				c-1.6-0.2-3.1-0.4-4.2-1.9c-0.3-0.4-0.8-0.7-1.4-0.5c-3.7,0.8-7.3-0.2-10.9-0.3c-0.7,0-1.2-0.3-1.2-1.1
				c-0.1-4.4-1.7-8.5-2.6-12.7c-0.2-0.7-0.5-1.2-0.9-1.8c-1.7-2.7-4.1-4.9-5.1-8c-0.5-1.8-1.5-3.2-2.8-4.3c-6-4.7-12.5-8.4-20.1-9.9
				c0.6-0.7,1.2-1.5,2.1-1.8c4.2-1.6,8.4-3,12.9-3.1c4-0.1,8,0.3,12-0.1c0.6-0.1,1.2,0.1,1.8,0.2c5,0.8,10,1.5,14.9,3.3
				c4,1.5,8,2.9,11.8,4.9c4.3,2.3,8.9,4.2,12.8,7.5c2.7,2.3,5.5,4.5,8.2,6.9c1.4,1.3,3.2,2.1,4.4,3.6c1.7,2,3.9,3.5,5.9,5.1
				c3.4,2.7,7.1,5,10.3,8c1.2,1.1,2.6,2,4,2.9c2.6,1.6,5.3,2.9,8,4.1c7,3,13.9,6.1,21.3,7.6c3.2,0.7,6.5,1.2,9.7,2
				c6.2,1.4,12.5,2.3,18.9,2.2c1.5,0,3-0.2,4.5,0.1c3,0.5,5.9-0.2,8.8-0.6c5.1-0.8,9.9-2.6,15-3.5c3.5-0.6,6.7-2.3,10.4-2.5
				c1,0,2,0,3.1-0.2c3.7-0.9,7.4-1,11.1-1.4c3.6-0.4,7.2,0.2,10.9,0.4c4.7,0.2,9.2,1.2,13.6,2.9c8.6,3.3,17.6,4.8,26.7,5.2
				c1.4,0.1,2.8-0.1,4.1,0c4.3,0.5,8.5,0.3,12.8,0c2.3-0.2,4.5-1.2,6.5-2.5c0.9-0.6,0.8-1.2,0.2-2.1c-1.5,0.9-3,1.7-4.9,2
				c-3.1,0.5-6.3,0.2-9.4,0.4c-7.9,0.4-15.6-0.6-23.4-1.8c-4.8-0.8-9.2-3.2-14-4c-2.6-0.5-4.9-1.8-7.6-1.7c-1.1,0-2.1,0-3.2-0.1
				c-6.9-1-13.8-1.2-20.6,0.3c-1.2,0.3-2.4,0.4-3.6,0.5c-3.2,0.5-6.4,0.7-9.5,1.7c-2.4,0.8-4.8,1.4-7.4,1.7
				c-1.6,0.2-3.3,0.5-4.8,1.1c-3,1.2-6.3,1.5-9.4,2c-2.7,0.4-5.4-0.2-8.1,0.1c-3.7,0.5-7.3-0.1-10.9-0.5c-4.2-0.4-8.2-1.6-12.3-2.3
				c-9-1.5-17.6-4.2-25.9-7.8c-4.3-1.9-8.7-3.8-12.3-6.8c-5.5-4.7-11.7-8.4-17-13.3c-1.5-1.3-2.8-2.9-4.3-4.1
				c-1.6-1.2-3.1-2.5-4.6-3.7c-4.4-3.5-8.6-7.1-13.8-9.3c-2.5-1.1-5-2.3-7.5-3.3c-3-1.2-5.9-2.5-8.9-3.6c-3.6-1.4-7.3-2.1-11.1-2.7
				c-5.1-0.7-10.2-0.1-15.3-0.1c-5.9,0-11.3,1.3-16.7,3.6c-1.1,0.5-2.3,1-3.1,1.8c-0.7,0.7-1.3,0.9-2.2,1.1
				c-2.8,0.4-5.5,0.7-8.3,0.6c-0.5,0-1.1-0.1-1.2,0.6c-0.1,0.6,0.4,0.9,0.9,1.1s1,0.6,1.5,0.3c1.4-0.9,3-0.3,4.5-0.6
				c4.4-1.1,8.8-0.5,12.9,1c3.5,1.3,7,3,10.1,5.2c2.8,2.1,5.5,4.2,6.5,7.8c0.2,0.7,0.7,1.2,1.1,1.8c1.7,2.9,4.2,5.4,4.6,9
				c0.1,0.9,0.6,1.8,0.7,2.8c0.3,2.1,1.4,4.1,1.2,6.3c-0.1,1.1-0.5,1.6-1.6,1.6c-3.8-0.1-7.7,0.3-11.5-0.3c-2.5-0.4-5-0.4-7.6-0.5
				c-3.2-0.2-6.4-0.4-9.6-1.4c1.2-2.4-0.3-3.9-1.8-4.9c-2.3-1.6-5-2.5-7.8-2c-4.6,0.8-9.2,0-13.8,0c0.2-1.7,1.3-3,1.6-4.6
				c0.7-3.2,1.6-6.4,3.1-9.4c1.2-2.4,1.7-5.1,3.3-7.4c0.8-1.1,0.4-2.8-0.4-3c-1.3-0.4-1.8,0.8-2.3,1.6c-2.1,3.3-3.3,7-4.6,10.5
				c-1.4,3.8-3.3,7.5-3.7,11.7c-0.1,1-1,1.6-1.9,1.4c-2.3-0.4-4.5,0.6-6.7,0.4c-0.9-0.1-1.4,0.3-1.7,1.3c-0.3,1.1-0.2,2,0.8,2.7
				s1.6,1.8,1.3,3.2c-0.1,0.3,0,0.7,0.1,1c0.9,5.4,0.2,10.4-3.3,14.8c-0.2,0.3-0.2,0.7-0.4,1c-2.4,4.9-4.5,10.1-9.4,13.1
				c-0.3,0.2-0.6,0.4-0.8,0.7c-0.5,1,2.7,4.1,3.1,4.5c2.1,2.1,4.5,3.1,7.5,2.2c0.6-0.2,1.2-0.1,1.8-0.2c0.5,0,1.1-0.3,1.4,0.3
				c0.3,0.6,0,1.2-0.4,1.7c-0.9,1.2-1.9,2.3-2.9,3.4c-0.6,0.7-0.7,1.3-0.3,2.1c0.7,1.5,1.7,2.5,3.4,2.9c2.3,0.5,2.6,1.3,1.6,3.4
				c-0.3,0.6-0.4,1.1-0.5,1.7c-0.5,2.1-0.9,4.3-1.8,6.2c-0.5,1.2-0.4,2.3-0.5,3.5c0,0.4,0.2,0.8,0.7,0.9c1.7,0.1,1.6,1.7,2.2,2.7
				c0.5,0.8,0.2,1.5-0.5,2.1c-0.6,0.4-1.2,0.7-1.7,1.2c-1.4,1.2-4.2,0.4-4.6,3.1c0,0.1-0.3,0.1-0.5,0.1c-5.6,1.5-11.2,3.1-17,3.7
				c-3.1,0.3-5.8,0-8.6-1.2c-2.5-1-3.2-2-3.3-4.4c0-1.6,0.6-3.1,1.1-4.6c0.3-1,1.4-0.3,2.1-0.7c0.5-0.3,1.7-0.1,3.2-0.9
				c2.8-1.4,5.5-4.5,8.6-3.9c0.4,0.1,0.8-0.3,1-0.7c1.5-2.3,0.6-4.2-2.3-5.1c-2.2-0.7-4.1-1.8-5.9-3.1c-2.1-1.5-4.2-3-7.1-2
				c-1.5,0.5-2.1,0-2.3-1.5c-0.4-2.2-1-3-3.2-3.4c-1.5-0.3-3.1-0.6-4.7-0.6c-1.4,0-2-0.9-1.8-2.3c0.2-0.8,0.4-1.5,1-2.1
				c1.6-1.5,2.4-3.6,3.7-5.4c1.2-1.6,2-3.6,2.1-5.6c0.1-2.7,0.6-5.3,0.7-8.1c0.1-1.9-0.3-3.3-1.4-4.8c-1.7-2.3-2.9-4.8-1.5-7.8
				c0.2-0.4,0.2-0.9,0.2-1.3c0.2-3.9,2-7.4,3.2-10.9c1.7-4.8,4.7-9,6.7-13.7c0.3-0.8,0.9-1,1.7-0.9c4,0.6,7.6,2.5,11.3,3.9
				c0.2,0.1,0.4,0.3,0.6,0.5c2.1,2.6,4.7,4.9,6.4,7.9c1.3,2.3,2.9,4.4,4.5,6.4c0.6,0.8,1,1.5,1.4,2.5c0.6,1.8,1.5,3.5,3.4,4.4
				c0.5,0.2,1,0.7,1.4,0.2c0.6-0.7-0.3-1-0.7-1.4c-0.5-0.4-1-0.7-1.4-1.2c-0.3-0.4-0.8-0.9-0.5-1.4c0.8-1.2-0.1-1.8-0.7-2.5
				c-2.5-2.6-4.3-5.7-6.2-8.7c-2.1-3.4-4.3-6.7-7.9-8.9c-1.3-0.8-2.7-1-4.1-1.5c-2.1-0.8-4.1-1.9-6.3-2.4c-4.2-1-6.3-5.7-3.9-8.9
				c0.9-1.2,1.4-2.7,0.6-4.2c-0.3-0.6-0.2-1.1,0.3-1.6c0.8-0.8,1.3-1.8,2.4-2.4c2.7-1.5,5.2-3.3,8.2-4.4c5-2,10-3.4,15.2-4.5
				c0.5-0.1,1.1,0.3,1.3-0.5c-0.2-0.7-0.9-0.9-1.2-0.7c-1.3,0.8-2.7,0.4-4,0.7c-1.7,0.3-3,1.4-4.7,1.6c-3.5,0.4-6.4,2.4-9.7,3.3
				c-2.3,0.6-4,2.3-6.2,3.3c-1.1,0.5-1.9,1.5-2.8,2.4c-0.4,0.4-0.8,0.8-0.6,1.6c0.4,2.3-0.6,4.1-2.3,5.5c-1.7,1.3-3,3-4.6,4.4
				c-3.2,2.9-6,6.2-8.6,9.6c-2.6,3.5-5.1,7.2-6.3,11.5c-0.7,2.7-1.8,5.3-1.8,8.1c0,3.7,0.5,7.3,1,10.9c0.3,2.4,0.8,4.8,2,7
				c0.9,1.6,1.2,3.4,1.4,5.3c0.3,4.3,0.1,8.5,0,12.8c-0.1,4.6-1.5,8.9-2.5,13.2c-0.6,2.5-1.9,4.6-3.2,6.7c-2.1,3.5-1.2,9.2,1.6,12.4
				c3.9,4.4,4.7,9.3,2.9,14.8c-0.9,2.9-2.8,5.4-3.9,8.2c-1.6,3.9-3.4,7.8-2.7,12.4c0.3,1.9,1.1,3.7,2.4,5.1c1.4,1.6,3.1,3,5.1,3.9
				c1.1,0.5,2.4,1,3.7,1.2c0.8,0.1,0.7,0.6,0.6,1.2c-0.1,1.1-1,1.1-1.8,1.2c-3.9,0.3-7.8,0.5-11.7,1c-6.7,0.9-13.5,1.4-19.6,4.6
				c-0.5-1-0.7-2-0.7-3.1c-0.1-2.7-0.3-5.4-0.4-8.1c-0.3-6.5-0.3-13-0.1-19.5c0.1-1.9,0.1-4-0.6-5.9c-0.8-2-1.3-2.4-3.4-2.3
				c-2.2,0.1-4.4,0-6.5-0.3c-0.8-0.1-1.6-0.2-2.3,0.3c-1.6,1.1-3.6,1.3-5.4,1.6c-2.4,0.5-2.4,0.5-2.7,2.9c-0.1,1-0.3,2.1-0.5,3.1
				c-0.6,3.7-1.7,14.4-1.7,14.7c0,1,0.1,2.1-0.1,3.1c-0.6,2.6-0.3,5.2,0,7.8c0.2,1.7,0.3,3.5,0.4,5.2c0,0.7-0.9,1.2-0.4,1.9
				c1.1,1.6,0.6,3.4,0.7,5.1c0,0.7-0.1,1.1-0.4,1.4c-0.6,0.5-0.8,1.3-0.8,2l0,0c0,0.2,0.2,0.4,0.4,0.5c0.7,0.1,1.4,0.5,2,0.8
				c1.3,0.7,1.5-1.2,2.7-1.1c4.3,0.3,8.5-0.4,12.8-0.7c1.1-0.1,2.4,0.8,3.5-0.3c0.3-0.3,1,0,1.1,0.3c0.5,1.1,1.6,1.3,2.5,1.7
				c1.7,0.7,3.5,1.4,4.9,2.4c3.1,2.3,6.1,4.5,9.5,6.4c4.1,2.4,8.4,4.5,12.8,6.4c4,1.7,8,3.2,12.2,4.6c4.1,1.3,8.2,2.8,12.5,3.8
				c2.8,0.6,5.6,1.3,8.4,2c3.9,1,7.8,2.2,11.8,2.9c4,0.8,8.1,1.1,12.2,1.3c1.1,0,2,0.4,2.8,1.2c1.5,1.7,1.8,1.7,3.7,0.6
				c3.2-1.9,6.6-3.1,10.1-4.1c0.9-0.3,1.8-0.7,2.6-1l15.8-7.1c3.5-1.4,6.3-3.9,9.3-6.1c6.2-4.6,11.2-10.4,16.3-16.1
				c1.4-1.5,8.1-6.3,14.2-19.4c0.6-2.8,0-8-0.1-8.4c-0.7-3.7-0.3-7.5-1.3-11.2c-1-3.5-2.1-7-5.1-9.4c-0.7-0.5-1-1.2-0.6-2.3
				c0.3-0.8,0.4-1.6,0.8-2.4c1-2.3,1.7-4.6,1.5-7.1c1.9,0.1,3.6,1.1,5.5,1.1c2.3,0,4.5,0.4,6.8,0.7c7.1,1,14.3,1.2,21.3-0.1
				c8-1.4,16-3.4,23.8-5.5c6.8-1.8,13.5-4.1,20.2-6.6c1.8-0.7,3.7-1.4,5.5-2.3c4.5-2.2,9-4.1,13.6-6.1c2.9-1.2,6.1-1.7,9.2-2.7
				c1.8-0.6,3.5-1,5.3-1c2.8,0,5.5-0.9,8.3-0.5c4.2,0.6,8.1,2.1,11.9,3.8c4.4,1.9,9,3.4,13.7,3.9c4.1,0.4,8.3,0.5,12.5,0.4
				c7.2-0.2,14.4-0.2,21.4-2.5c3.7-1.3,7.3-2.8,10.8-4.6c4-2.1,8-4.3,11.8-6.7c1.9-1.2,4-1.7,5.8-2.9c3-2,6.1-3.1,9.8-3.2
				c3.6-0.1,7.1,0.9,10.5,1.6c4.4,0.9,8.6,2.6,13.2,2.6c5.4,0,10.6-0.5,15.8-2c0.9-0.3,1.7-0.6,2.2-1.3c0.9-1.2,2.3-1.8,3.6-2.6
				c0.9-0.6,2.1-1.1,2.8-1.9c2.2-2.4,5.2-3.5,7.8-5.2c3.8-2.5,8.2-3.8,12.1-6.2c1.2-0.8,2.5-1.6,3.9-2.1c4.8-1.6,9.8-2.5,14.7-3.5
				c0.6-0.1,1.3-0.2,1.8,0c1.1,0.6,2.1,0.3,3-0.1c2.9-1.1,5.7-2.5,8.3-4.3c1.3-0.9,2.1-2.3,2.6-3.8
				C862,269.7,861.5,268.7,860.6,268.1z M550.4,270.7c1.3,0.3,1.9-0.2,2.7-1.1c1.8-2.1,2.5-2.2,4.8-0.6c3.5,2.5,4.7,6.2,3.2,10.6
				c-2,5.5-5.3,10.1-9.6,14.1c-1.9,1.8-4.3,2.2-6.7,2.7c-0.8,0.2-1.2-0.2-1-1c0.5-1.4,1-2.6,2.5-3.4c3.4-1.8,6.4-4.2,7.6-8.2
				c0.4-1.5,0.4-2.9,0-4.4c-0.2-0.9-0.3-2-1.6-2c-1.4,0-2.4,0.8-2.6,2.2c-0.1,0.4-0.1,0.7-0.3,1c-1.5,2-2.9,3.9-4.4,5.8
				c-0.3,0.4-0.6,0.6-1.1,0.4c-1.4-0.7-1.9-3.4-1-4.8c1.6-2.3,3.7-3.8,6-5.4c2-1.4,4-2.8,6.3-3.6c0.4-0.2,1.1-0.5,0.7-1.2
				c-0.3-0.6-0.9-1-1.5-0.6c-3,2-6.8,2.7-9.5,5.3c-0.8,0.7-1.6,1.4-2.4,2.1c-0.3-0.7-0.2-1.2,0.1-1.5c1.2-1.7,2.5-3.3,3.7-5
				C547.4,270.7,548.8,270.3,550.4,270.7z M545.9,289.9c2-3.3,3.4-6.5,6.1-9.6C552.1,284.5,550.2,287.5,545.9,289.9z M463.5,293.5
				c-1.7-0.5-1.9-1.6-0.8-3.1c2.5-3.2,4.6-6.7,6.2-10.5c0.8-2,1.6-4.1,3.3-5.9c0.9,1.4,1.6,2.6,1.7,4.1c0.1,1,0.7,1.7,1.2,2.5
				c2.1,3.2,5.2,2.6,8.1,2.2c2.3-0.3,4.4-1.4,6.8-1.4c0.7,0,3.1-0.7,5.5-2.1c2.4,0.8,5.8-3.1,6.5-5.5c0.5-1.6,1.4-3.2,1.5-4.9
				c0.1-1.1,0.6-1.8,1.8-1.7c0.5,0,1-0.1,1.6-0.1c2.6,0.4,5.3,0.5,8,0.8c4.2,0.5,8.4,1.1,12.6,1.7c1.4,0.2,3-0.2,4.3,0.8
				c-2.6,3.6-5.4,7-7.6,10.8c-1.2,2.1-3,3.3-5.1,4.2c-0.8,0.4-1.6,0.8-2,1.6c-1.1,2-2.9,3-4.7,3.9c-0.8,0.4-1.6,0.7-2.3,1.2
				c-1.6,1.1-3,1.6-4.5-0.1c-0.9-1-2.1-1-3.3-0.2c-1.5,1.1-3.3,1-4.9,1.6c-1.2,0.4-2.1-0.6-3.2-0.9c-1.4-0.4-2.4-0.4-3.6,0.4
				c-1,0.7-2.2,1-3.3,1.5c-1.1,0.5-2.2,0.6-3.2-0.2c-2-1.5-4.2-1.5-6.5-1.1c-0.4,0.1-1,0.4-1.2,0.3c-1.9-1.1-3.6,0.2-5.3,0.6
				C468.3,294.8,465.9,294.2,463.5,293.5z M473,317.3c0-0.5,0.5-1.5,1-1.5c1.6,0.1,3.4,0.6,4.9,0.6c5.3,0.3,9.5-0.2,14.7-0.9
				c2-0.3,4.8-1.7,6.9-1.8c0.9,0,1.4,0.1,1.8-0.7c0.5-1,0.2-0.4-0.9-0.6c-0.9-0.2-1.5-0.3-2.3,0.1c-3.8,1.8-6.5,1.6-10.5,2
				c-1.7,0.1-4.2-0.3-5.8,0.2c-0.7,0.2-4.1-0.5-4.9-0.2c-1.1,0.4-3.3,0-3.5-0.7c-0.3-1,1.9-4.6,3.2-4.5c2.9,0.4,5.8-0.3,8.6,0.4
				c1,0.2,1.9,0,2.8-0.1c3.8-0.3,7.7-0.5,11.3-1.8c2.5-0.9,4.8-2.3,7.2-3.5c0.5-0.3,1.1-0.6,2-1.1c0.4,1.9,2.1,3.5-0.1,5.1
				c-0.4,0.3-0.4,0.6-0.2,0.9c1.3,1.7-0.1,2.8-1.1,3.8c-4.2,4.2-9.1,7-15,7.7c-1.9,0.2-3.8,0.5-5.6,1.1c-0.6,0.2-1.2,0.2-1.8,0.1
				c-2.2-0.3-4.3-0.6-6.5,0c-0.8,0.2-1.5-0.3-2.3-0.5s-1.5-0.5-2.2-0.7s-1.7,0.4-2.1-0.6C472.3,319.2,473,318.3,473,317.3z
				 M476.2,357c1.3,0.7,2.6,1.4,4,1.7c-0.1,1.2-1.1,1.5-1.6,2.1c-1.5,2-3.6,3.4-4.6,5.9c-0.8,2-3,3.3-4.3,5.2
				c-3.4,4.6-7.5,8.6-10.9,13.3c-0.1,0.2-0.3,0.4-0.5,0.6c-3.5,3.8-3.5,3.9-8.3,1.7c-3.8-1.7-7.8-2.4-11.7-3.7
				c-1.7-0.6-3.5-1-5.3-1.5c-1.6-0.5-3.2-0.9-4.9-0.8c-0.5,0-1-0.1-1.6-0.2c-2.3-0.6-2.6-1.4-1.7-3.6c1.5-3.6,4.2-6.1,7.2-8.5
				c2-1.6,4.3-2.6,6.4-4c1.8-1.3,3.5-2.6,4.9-4.3c0.5-0.6,1.1-1.3,1.9-0.4c2.4,2.7,5.7,2.7,8.8,2.2c4.9-0.8,9.7-2,14-4.7
				c0.7-0.4,1.6-0.7,1.6-1.7C472,355.5,474.2,356,476.2,357z M437,323.2c-0.6,0.1-1.1-0.8-1-1.8c0.1-0.8-0.1-1.9,1.3-1.7
				c1.2,0.2,7.2-0.8,8.7-0.6C444.8,320.5,438.4,323,437,323.2z M444.2,315.8c-2.6,1.7-7.3-0.1-9.8,1.1
				C433.9,310.6,439.5,312.1,444.2,315.8z M420.5,376.6c-3-0.9-5-3.1-7-5.3c-1.7-1.9-1.5-4.4-1.3-6.7c0.2-2.7,1.1-5.3,2.2-7.7
				c0.6-1.4,1.5-2.7,2.2-4.1c2.9-5.4,3.9-11.1,1.7-17.1c-0.5-1.3-1.4-2.2-2.2-3.2c-1.8-2.5-2.9-5.3-2.9-8.5c0-0.8,0-1.6,0.5-2.2
				c2.3-2.9,2.8-6.5,3.8-9.9c0.3-1,0.7-2,1-3c1.6-5.5,1.4-11.2,1.1-16.8c-0.1-1.5,0.1-3.1-0.1-4.7c-0.3-3.1-1-6-2.5-8.7
				c-0.6-1-0.4-2-0.6-3.1c-1-5.1-1.4-10.2-0.8-15.4c0.3-2.9,1.5-5.6,2.8-8c2.6-4.6,5.6-8.8,9.5-12.5c1.9-1.8,3.9-3.3,5.4-5.3
				c1.1,0.3,1.1,1.1,1.4,1.7c0.3,0.5,0.1,1.3,0.6,1.7c2,1.5,1.3,3,0.6,5c-1.2,3-2.8,5.8-4.3,8.6c-0.7,1.2-1,2.6-1.6,3.9
				c-2,4.3-3.4,8.7-4.2,13.4c-0.4,2.3-0.5,4.5,0.5,6.9c1.4,3.2,2.2,6.7,2.1,10.2c-0.1,2.1-0.5,4.3-1.3,6.4c-1,2.5-2.7,4.4-4.5,6.3
				c-2.9,2.9-3.2,7.3,1.6,9.1c1.4,0.5,2.8,0.8,4.3,0.8c2.1,0,2.6,0.6,2.5,2.7c-0.1,1.2-0.6,2.2-1,3.2c-1.1,2.4-0.5,3.7,1.9,4.8
				c2.3,1,2.3,1.1,1.5,3.5c-0.2,0.5-0.1,1-0.1,1.6c0,0.5,0.3,1.1,0,1.5c-2.1,2.2-0.5,5.1-1.2,7.6c-0.2,0.9,0.5,2.1,1.3,3
				c3.3,3.7,7.5,4.7,12.1,4.1c4-0.5,8-0.6,11.8-1.8c2-0.6,4-1.1,5.9-1.9c0.5-0.2,0.9-0.5,1.7-0.2c-0.3,0.9-0.6,1.7-1.5,2.4
				c-1.2,0.9-2.1,2-2.5,3.6c-0.6,1.9,0,3.4,1.6,4.5c1.3,0.9,2.5,1.8,3.8,2.7c0.7,0.5,1.3,1.1,1.2,1.9c-0.3,2,0.7,3.3,2,4.6
				c-0.9-0.1-1.7,0.4-2.5,0.8c-5.2,2.1-10.4,4.1-16.1,3.7c-3.5-0.2-5.4-2.9-4.4-6.3c0.6-2.1,1.2-4.2,1.8-6.3
				c0.4-1.5,0.2-3.1-0.1-4.7c-0.1-0.7-0.6-1.2-1.2-1.2c-0.9,0-0.8,0.8-0.8,1.4c0.5,3.1-0.7,6-1.2,8.9c-0.4,2-2,3.3-2.6,5.1
				c-1,2.8-3,4.4-5.2,5.9c-1.1,0.8-2.4,1.5-3.5,2.3c-4,2.7-7.6,5.8-10.2,10C422.5,377.4,422.4,377.2,420.5,376.6z M543.2,357.3
				c0.7,3.8,1,7.6,1.2,11.5c0.2,5.6-1.9,10.4-5.2,14.8c-5,6.8-10.7,12.9-16.9,18.5c-3.5,3.2-7.3,5.8-11.5,8.1
				c-6.7,3.7-13.2,7.8-20.2,10.9c-3.4,1.5-6.9,2.8-10.3,4.3c-0.9,0.4-1.6,0.7-2.2-0.5c-0.4-0.9-1.3-1.1-2.2-1
				c-2.8,0.3-5.5-1-8.3-0.1c-0.7,0.2-1.6-0.1-2.3-0.3c-4.7-1.2-9.5-1.9-14.2-3.3c-2.4-0.7-4.9-1.2-7.4-1.4c-2.1-0.2-4.2-0.9-6.3-1.5
				c-3.9-1.2-7.7-2.5-11.5-3.8c-3.7-1.3-7.4-2.4-10.8-4.3c-1.1-0.6-2.5-0.9-3.6-1.5c-5.5-3.3-11.4-5.9-16.5-9.9
				c-2.1-1.7-4.5-2.6-7.5-2.8c1.2-2.4,0.3-4.7,0.9-7.2c1.6,1.3,3,0.7,4.6,0c4.4-2,9.1-2.8,13.9-3.1c2.6-0.2,5.1-0.6,7.7-1.2
				c3.1-0.7,6.2-0.5,9.4-0.2c5.4,0.7,10.6,1.8,15.7,3.6c2,0.7,4,1.3,6,1.8s3.6,1.7,5.3,2.6c0.4,0.2,0.7,0.5,0.8,1
				c0.3,1,0.6,2.1,1.7,2c1.2-0.1,2.6-0.1,3.5-1.3c0.6-0.8,1.3-1.5,1.7-2.3c2.6-5.6,6.8-10,10.7-14.6c1.9-2.3,3.7-4.9,5.9-7
				c3.9-3.7,7.4-7.9,11.7-11.1c2.1-1.5,3.9-3.5,6-5c2.3-1.7,4.8-3.3,7.4-4.4c4.5-1.9,9-3.7,13.7-5c4.1-1.1,8.2-1.3,12.6-0.7
				c5.2,0.8,9.2,3.1,12.6,6.7C541.6,351.5,542.6,354.3,543.2,357.3z"/>
		</g>
	</g>
	<g>
		<rect x="15" y="45.4" class="st5" width="900" height="132"/>
	</g>
	<g class="st6">
		<g>
			<path d="M57.6,53.6c0.7,0.8,1.1,1.4,1.1,2c0,0.6-0.3,1-0.9,1.4c-0.6,0.4-1.3,0.5-2.2,0.5c-1.1,0-2-0.4-2.7-1.2s-1-1.8-1-3
				c0-2.3,0.9-4.2,2.8-5.9c1.9-1.6,3.7-2.5,5.4-2.5c0.7,0,1.1,0.2,1.1,0.6c0,0.2-0.1,0.4-0.2,0.5c-0.1,0.1-0.5,0.3-1,0.6
				c-1.3,0.7-2.3,1.4-2.8,2c-0.5,0.7-0.8,1.6-0.8,2.9C56.5,52.1,56.9,52.8,57.6,53.6z M66.2,53.6c0.7,0.8,1.1,1.4,1.1,2
				c0,0.6-0.3,1-0.9,1.4c-0.6,0.4-1.3,0.5-2.2,0.5c-1.1,0-2-0.4-2.7-1.2s-1-1.8-1-3c0-2.3,0.9-4.2,2.8-5.9c1.9-1.6,3.7-2.5,5.4-2.5
				c0.7,0,1.1,0.2,1.1,0.6c0,0.2-0.1,0.4-0.2,0.5c-0.1,0.1-0.5,0.3-1,0.6c-1.3,0.7-2.3,1.4-2.8,2c-0.5,0.7-0.8,1.6-0.8,2.9
				C65.1,52.1,65.4,52.8,66.2,53.6z"/>
		</g>
		<g>
			<path d="M88.4,54.4L84.1,72c-0.3,1.1-0.3,1.9-0.1,2.7c0.2,0.7,0.6,1.2,1.2,1.4c0.1,0,0.3,0.1,0.5,0.2c0.2,0.1,0.4,0.2,0.5,0.2
				c0.1,0,0.2,0.1,0.4,0.1c0.2,0.1,0.3,0.1,0.4,0.2c0.1,0.1,0.2,0.1,0.3,0.2c0.1,0.1,0.2,0.2,0.2,0.2c0,0.1,0,0.2,0,0.3
				c0,0.2-0.2,0.4-0.5,0.6c-0.3,0.2-0.6,0.2-1,0.2c-0.1,0-0.8,0-2.3-0.1C82.2,78,81,78,80.1,78c-0.9,0-1.8,0-2.7,0.1
				c-0.9,0.1-1.5,0.1-1.6,0.1c-0.4,0-0.8-0.1-1.1-0.2c-0.3-0.2-0.5-0.4-0.5-0.6s0.1-0.4,0.4-0.6c0.2-0.1,0.6-0.3,1.2-0.5
				c0.5-0.2,0.9-0.3,1.1-0.4c1.2-0.6,2.1-1.9,2.6-4.1l4.4-17.6C84,54,84,53.6,84,53.3c0-0.4-0.2-0.7-0.5-0.9
				c-0.4-0.3-0.9-0.4-1.7-0.4h-4.2c-0.8,0-1.9,0.4-3.3,1.3c-1.4,0.9-2.2,1.3-2.4,1.3c-0.4,0-0.6-0.3-0.6-1c0-0.2,0.1-0.4,0.3-0.8
				s0.5-0.9,0.8-1.5c0.3-0.6,0.6-1.2,0.8-1.8c0.4-0.8,0.8-1.2,1.2-1.2c0.2,0,0.6,0.3,1.2,0.8c0.6,0.6,1.3,0.8,2,0.8h17.5
				c1.1,0,2.2-0.3,3.4-0.9c1.2-0.6,1.8-0.9,1.8-0.9c0.5,0,0.7,0.3,0.5,1c-0.4,1.3-0.8,3-1.1,4.8c-0.1,0.7-0.4,1-1.1,1
				c-0.2,0-0.4-0.2-0.6-0.5s-0.4-0.6-0.5-1c-0.1-0.4-0.4-0.7-0.8-1c-0.4-0.3-0.8-0.5-1.4-0.5h-4c-0.7,0-1.3,0.2-1.8,0.7
				C89,53.1,88.6,53.7,88.4,54.4z"/>
		</g>
		<g>
			<path d="M100.8,72.9l5.4-21.6c0.3-1.2,0.4-2,0.4-2.2c0-0.1-0.6-0.4-1.7-0.8c-1.1-0.4-1.7-0.8-1.7-1c0-0.4,0.8-0.8,2.5-1.2
				c1.7-0.5,2.9-0.7,3.8-0.7c0.8,0,1.2,0.4,1.2,1.2c0,0.7-0.2,2.1-0.7,4.1l-3.2,12.8c-0.2,0.7-0.1,1.1,0.1,1.2
				c0.1,0,0.2-0.1,0.4-0.4c1.6-2.4,3.3-4.1,5.2-5.2c1.9-1,3.5-1.6,4.9-1.6c1,0,1.8,0.4,2.5,1.3c0.7,0.9,1,1.9,1,3
				c0,3.2-0.9,7.1-2.6,11.8c-0.3,0.7-1.2,1.7-2.8,3.1c-1.6,1.4-2.8,2.1-3.7,2.1c-0.5,0-1-0.2-1.5-0.5c-0.5-0.3-0.7-0.7-0.7-1.2
				c0-0.3,0.3-0.8,0.8-1.5s1-1,1.3-1c0.2,0,0.6,0.1,1.1,0.4c0.5,0.2,0.8,0.4,1.1,0.4c0.4,0,0.7-0.3,0.9-0.9
				c1.5-4.6,2.3-8.5,2.3-11.8c0-0.6-0.2-1.1-0.6-1.5c-0.4-0.4-0.8-0.7-1.4-0.7c-1.3,0-2.8,0.9-4.4,2.7s-3,3.9-4.2,6.4
				s-2.4,5-3.4,7.7c-0.3,1-0.7,1.5-1.2,1.5c-0.4,0-0.7-0.1-1.1-0.4c-0.4-0.3-0.5-0.6-0.6-0.8C100.2,76.5,100.4,74.9,100.8,72.9z"/>
		</g>
		<g>
			<path d="M131.5,57.5c0.5,0,0.8,0.4,0.8,1.2c0,0.7-0.2,2.1-0.7,4.1l-2.9,11.6c-0.1,0.5,0,0.8,0.4,0.8c0.7,0,1.5-0.4,2.4-1.2
				c0.9-0.8,1.4-1.2,1.6-1.2c0.2,0,0.3,0.2,0.3,0.6c0,0.9-0.8,2-2.3,3.3c-1.6,1.3-3,2-4.4,2c-1.4,0-2.1-0.7-2.1-2
				c0-0.2,0.1-0.7,0.3-1.5l3-11.9c0,0,0-0.1,0.1-0.3c0-0.2,0.1-0.3,0.1-0.4c0-0.1,0-0.2,0-0.3c0-0.1,0-0.2-0.1-0.3
				c0-0.1-0.1-0.1-0.2-0.1c-0.4,0-0.9,0.2-1.6,0.7s-1,0.7-1.1,0.7c-0.4,0-0.6-0.3-0.6-1c0-0.5,1-1.5,3-2.9
				C129.4,58.2,130.7,57.5,131.5,57.5z M132.5,48c0.6,0,1.1,0.2,1.5,0.6c0.4,0.4,0.6,0.9,0.6,1.5c0,0.7-0.3,1.3-0.8,1.9
				c-0.5,0.6-1.1,0.9-1.8,0.9c-0.6,0-1.1-0.2-1.5-0.6c-0.4-0.4-0.5-0.9-0.5-1.6c0-0.7,0.3-1.3,0.8-1.9C131.2,48.2,131.8,48,132.5,48
				z"/>
		</g>
		<g>
			<path d="M145.4,57.5c0.8,0,1.6,0.3,2.3,0.9c0.7,0.6,1,1.2,1,1.9c0,0.3-0.2,0.7-0.5,1.1c-0.3,0.4-0.7,0.6-1,0.6
				c-0.1,0-0.6-0.3-1.6-1c-1-0.6-1.9-1-2.7-1c-0.3,0-0.6,0.2-0.8,0.5c-0.2,0.4-0.3,0.7-0.3,1.1c0,0.2,0,0.4,0.1,0.6
				c0.1,0.2,0.2,0.5,0.3,0.8c0.1,0.3,0.3,0.6,0.4,0.9c0.1,0.3,0.3,0.7,0.6,1.1c0.2,0.4,0.4,0.8,0.6,1.2c0.2,0.3,0.4,0.7,0.7,1.2
				c0.3,0.5,0.5,0.9,0.7,1.2c0.8,1.4,1.2,2.6,1.2,3.5c0,1.9-0.8,3.4-2.5,4.7c-1.7,1.3-3.4,1.9-5.3,1.9c-1,0-1.8-0.3-2.4-0.9
				c-0.7-0.6-1-1.4-1-2.3c0-0.4,0.2-0.7,0.5-1c0.3-0.3,0.7-0.4,1.1-0.4l1.5,1c1,0.6,1.9,1,2.8,1c0.5,0,1-0.2,1.3-0.7
				c0.3-0.4,0.5-1,0.5-1.6c0-1.1-1.3-3.7-3.8-8c-0.4-0.6-0.5-1.3-0.5-2.1c0-1.6,0.7-3,2.1-4.3C141.9,58.1,143.6,57.5,145.4,57.5z"/>
		</g>
		<g>
			<path d="M174.6,57.5c0.9,0,1.8,0.2,2.5,0.6c0.8,0.4,1.2,1,1.2,1.8c0,0.4-0.2,0.9-0.6,1.5c-0.4,0.6-0.8,0.9-1.1,0.9
				c-0.7,0-1.3-0.5-2-1.6c-0.2-0.2-0.4-0.4-0.8-0.6c-0.4-0.2-0.7-0.3-0.9-0.3c-1.4,0-2.8,1.4-4.1,4.1c-1.4,2.8-2.1,5.5-2.1,8.2
				c0,2.5,0.8,3.7,2.5,3.7c0.6,0,1.3-0.3,2.1-0.9c0.7-0.6,1.4-1.2,1.9-1.9c0.5-0.6,0.8-0.9,0.9-0.9c0.3,0,0.6,0.1,0.8,0.3
				c0.3,0.2,0.4,0.5,0.4,0.9c0,0.8-0.9,2-2.6,3.5c-1.7,1.5-3.5,2.3-5.3,2.3c-1.6,0-2.8-0.7-3.7-2c-0.8-1.3-1.3-2.9-1.3-4.7
				c0-2.8,0.7-5.4,2.2-8.1c1.1-2,2.5-3.6,4.2-4.8C170.7,58.1,172.6,57.5,174.6,57.5z"/>
		</g>
		<g>
			<path d="M189.6,57.5c1.6,0,3,0.6,4,1.9c1.1,1.3,1.6,2.8,1.6,4.5c0,3.6-1,7-2.9,10.1c-2,3.2-4.2,4.7-6.8,4.7c-1.7,0-3-0.7-4.1-2.1
				c-1.1-1.4-1.6-3-1.6-4.8c0-2.2,0.5-4.4,1.4-6.6c0.9-2.2,2.2-4.1,3.7-5.5C186.4,58.2,188,57.5,189.6,57.5z M183.6,73.1
				c0,2.3,0.7,3.5,2,3.5c1.4,0,2.8-1.5,4-4.6c1.2-3.1,1.8-6.1,1.8-9.2c0-2-0.6-3.1-1.7-3.1c-1.1,0-2.1,0.7-3,2.1
				c-1,1.4-1.7,3.1-2.3,5.2C183.9,69.1,183.6,71.1,183.6,73.1z"/>
		</g>
		<g>
			<path d="M198.9,75l4.3-12c0.2-0.4,0.3-0.8,0.2-1.3c0-0.5-0.2-0.7-0.6-0.7c-0.7,0-1.5,0.4-2.4,1.1c-0.9,0.7-1.4,1.1-1.5,1.1
				c-0.4,0-0.5-0.3-0.5-1c0-0.7,0.7-1.6,2.2-2.8c1.5-1.2,2.9-1.8,4.3-1.8c1.8,0,2.4,1.6,1.6,4.8c0,0.2,0,0.3,0.1,0.3
				c0.1,0.1,0.3,0,0.4,0c3.4-3.4,6.6-5.1,9.6-5.1c1.1,0,1.8,0.7,2,2c0.2,1.3,0.1,2.7-0.5,4.2l-3.7,10.6c-0.2,0.5-0.1,0.8,0.4,0.8
				c0.7,0,1.5-0.4,2.4-1.2c0.9-0.8,1.4-1.2,1.6-1.2c0.2,0,0.3,0.2,0.3,0.6c0,0.9-0.8,2-2.4,3.3c-1.6,1.3-3.1,2-4.5,2
				c-1.4,0-2.1-0.7-2.1-2c0-0.5,0.1-1,0.3-1.5l3.8-10.9c1-2.8,1-4.2,0-4.2c-1.4,0-3,1-4.8,3s-3.2,4.2-4.5,6.7
				c-1.3,2.5-2.4,5-3.3,7.5c-0.3,1-0.7,1.5-1.2,1.5c-0.4,0-0.9-0.1-1.4-0.5c-0.6-0.3-0.8-0.6-0.8-0.7
				C198.2,77.2,198.4,76.4,198.9,75z"/>
		</g>
		<g>
			<path d="M226.7,78.8c-1.4,0-2.3-0.8-2.7-2.4c-0.4-1.6-0.3-3.5,0.4-5.8l2.1-7.6c0.3-1.2,0.3-1.8-0.1-1.8c-0.5,0-1.2,0.4-2.2,1.2
				c-1,0.8-1.5,1.2-1.7,1.2c-0.4,0-0.5-0.4-0.5-1.2c0-0.5,0.9-1.5,2.8-2.9c1.9-1.4,3.4-2,4.6-2c0.9,0,1.4,0.4,1.5,1.2s0.1,1.5-0.2,2
				l-3,10.7c-0.3,0.8-0.3,1.6,0,2.5c0.3,0.9,0.8,1.3,1.6,1.3c1.2,0,2.5-0.6,3.8-1.9c1.4-1.3,2.5-2.8,3.4-4.5
				c0.9-1.7,1.3-3.2,1.3-4.5c0-0.7-0.3-1.5-0.8-2.4c-0.5-0.9-0.8-1.4-0.8-1.6c0-0.4,0.3-1,0.8-1.7c0.6-0.7,1.1-1,1.6-1
				c0.7,0,1.3,0.5,1.8,1.4c0.5,0.9,0.8,1.9,0.8,3.1c0,2.2-0.8,4.7-2.4,7.4c-1.6,2.7-3.5,4.9-5.8,6.7
				C230.8,77.9,228.7,78.8,226.7,78.8z"/>
		</g>
		<g>
			<path d="M255.4,57.5c3.1,0,4.6,1.2,4.6,3.7c0,1.8-1.3,3.5-3.9,5c-2.6,1.6-4.9,2.3-7,2.3c-0.2,0-0.4,0.3-0.6,0.8
				c-0.2,0.5-0.2,1.1-0.2,1.6c0,1.2,0.2,2.3,0.7,3.2c0.5,0.9,1.2,1.3,2.2,1.3c0.6,0,1.3-0.2,2.1-0.6c0.7-0.4,1.4-0.7,1.9-1.1
				c0.5-0.4,0.8-0.6,0.9-0.6c0.4,0,0.7,0.4,0.7,1.2c0,0.7-0.8,1.6-2.5,2.7c-1.7,1.1-3.4,1.6-5.1,1.6c-1.6,0-2.8-0.7-3.7-2.1
				c-0.9-1.4-1.3-3-1.3-4.8c0-3.5,1.2-6.8,3.6-9.8C250.1,59,252.6,57.5,255.4,57.5z M249.3,66.4c0,0.2,0.1,0.3,0.3,0.3
				c1.8,0,3.3-0.7,4.7-2.1c1.4-1.4,2.1-2.8,2.1-4.1c0-0.8-0.6-1.2-1.7-1.2c-0.8,0-1.9,0.9-3.3,2.6C250,63.8,249.3,65.3,249.3,66.4z"
				/>
		</g>
		<g>
			<path d="M274.6,62.2c-0.8,0-2.3,1.9-4.6,5.7s-3.9,6.9-5.1,9.4c-0.4,1-0.8,1.5-1.2,1.5c-0.4,0-0.9-0.1-1.4-0.5
				c-0.6-0.3-0.8-0.6-0.8-0.7c0-0.4,0.2-1.3,0.7-2.6l4.3-12c0.2-0.4,0.3-0.8,0.2-1.3c0-0.5-0.2-0.7-0.6-0.7c-0.7,0-1.5,0.4-2.4,1.1
				c-0.9,0.7-1.4,1.1-1.5,1.1c-0.4,0-0.5-0.3-0.5-1c0-0.7,0.7-1.6,2.2-2.8c1.5-1.2,2.9-1.8,4.3-1.8c0.5,0,1,0.3,1.3,0.9
				c0.4,0.6,0.5,1.2,0.3,1.9c-0.3,1.3-0.8,2.9-1.5,5c-0.1,0.2,0,0.3,0.2,0.4c0.2,0.1,0.3,0.1,0.4-0.1c2.4-3.4,4.1-5.6,5.1-6.6
				c1-1,2.1-1.5,3.1-1.5c0.6,0,1.1,0.1,1.6,0.4c0.5,0.3,0.8,0.7,0.8,1.2c0,0.9-0.3,1.8-1,2.7c-0.7,0.9-1.2,1.4-1.7,1.4
				c-0.4,0-0.8-0.2-1.3-0.5C275.2,62.4,274.8,62.2,274.6,62.2z"/>
		</g>
		<g>
			<path d="M288.7,53.3c0.5,0,0.8,0.4,0.8,1.2c0,0.8-0.2,2.1-0.7,3.9h4.8c0.8,0,1.2,0.2,1.2,0.7c0,0.3-0.2,0.7-0.7,1.2
				c-0.5,0.5-1,0.7-1.5,0.7h-4.5l-3.5,13.2c-0.1,0.5,0,0.8,0.4,0.8c0.7,0,1.5-0.4,2.4-1.2c0.9-0.8,1.4-1.2,1.6-1.2
				c0.2,0,0.3,0.2,0.3,0.6c0,0.9-0.8,2-2.3,3.3c-1.6,1.3-3,2-4.4,2c-1.4,0-2.1-0.7-2.1-2c0-0.2,0.1-0.7,0.3-1.5l3.7-14.2h-2.3
				c-0.7,0-1.1-0.2-1.1-0.7c0-0.4,0.2-0.9,0.6-1.3c0.4-0.5,0.9-0.7,1.4-0.7h1.9l0.7-2.7c0.1-0.4,0.4-0.9,1-1.5
				C287.4,53.6,288.1,53.3,288.7,53.3z"/>
		</g>
		<g>
			<path d="M302,57.5c0.5,0,0.8,0.4,0.8,1.2c0,0.7-0.2,2.1-0.7,4.1l-2.9,11.6c-0.1,0.5,0,0.8,0.4,0.8c0.7,0,1.5-0.4,2.4-1.2
				c0.9-0.8,1.4-1.2,1.6-1.2c0.2,0,0.3,0.2,0.3,0.6c0,0.9-0.8,2-2.3,3.3c-1.6,1.3-3,2-4.4,2c-1.4,0-2.1-0.7-2.1-2
				c0-0.2,0.1-0.7,0.3-1.5l3-11.9c0,0,0-0.1,0.1-0.3c0-0.2,0.1-0.3,0.1-0.4c0-0.1,0-0.2,0-0.3c0-0.1,0-0.2-0.1-0.3
				c0-0.1-0.1-0.1-0.2-0.1c-0.4,0-0.9,0.2-1.6,0.7s-1,0.7-1.1,0.7c-0.4,0-0.6-0.3-0.6-1c0-0.5,1-1.5,3-2.9
				C299.9,58.2,301.3,57.5,302,57.5z M303.1,48c0.6,0,1.1,0.2,1.5,0.6c0.4,0.4,0.6,0.9,0.6,1.5c0,0.7-0.3,1.3-0.8,1.9
				c-0.5,0.6-1.1,0.9-1.8,0.9c-0.6,0-1.1-0.2-1.5-0.6c-0.4-0.4-0.5-0.9-0.5-1.6c0-0.7,0.3-1.3,0.8-1.9C301.7,48.2,302.3,48,303.1,48
				z"/>
		</g>
		<g>
			<path d="M314.9,61.6c1.3-1.2,2.7-2.2,4.3-3c1.5-0.8,2.8-1.2,3.8-1.2c1,0,1.8,0.4,2.5,1.3c0.7,0.9,1,1.9,1,3
				c0,2.8-0.8,5.5-2.4,8.2c-1.6,2.7-3.5,4.8-5.7,6.4c-2.2,1.6-4.3,2.4-6.2,2.4c-1.2,0-2.2-0.5-3.1-1.4s-1.4-2-1.4-3.2
				c0-0.8,0.2-1.9,0.6-3.5l4.8-19.4c0.3-1.2,0.4-2,0.4-2.2c0-0.1-0.6-0.4-1.7-0.8c-1.1-0.4-1.7-0.8-1.7-1c0-0.4,0.8-0.8,2.5-1.2
				c1.7-0.5,2.9-0.7,3.8-0.7c0.8,0,1.2,0.4,1.2,1.2c0,0.7-0.2,2.1-0.7,4.1l-2.5,10.2c-0.1,0.4-0.1,0.7-0.1,0.9
				C314.3,61.9,314.5,61.9,314.9,61.6z M311.4,73.1c0,0.8,0.2,1.4,0.7,2c0.5,0.6,1,0.8,1.6,0.8c2,0,4-1.4,5.9-4.2
				c1.9-2.8,2.8-5.8,2.8-8.9c0-1.5-0.5-2.3-1.4-2.3c-1.5,0-3,0.8-4.6,2.4c-1.6,1.6-2.8,3.4-3.7,5.4
				C311.8,70.3,311.4,71.9,311.4,73.1z"/>
		</g>
		<g>
			<path d="M333.4,74.4c-0.1,0.5,0,0.8,0.4,0.8c0.7,0,1.5-0.4,2.4-1.2c0.9-0.8,1.4-1.2,1.6-1.2c0.2,0,0.3,0.2,0.3,0.6
				c0,0.9-0.8,2-2.3,3.3c-1.6,1.3-3,2-4.4,2c-1.4,0-2.1-0.7-2.1-2c0-0.2,0.1-0.7,0.3-1.5l6-24c0.3-1.2,0.4-2,0.4-2.2
				c0-0.1-0.6-0.4-1.7-0.8c-1.1-0.4-1.7-0.8-1.7-1c0-0.4,0.8-0.8,2.5-1.2c1.7-0.5,2.9-0.7,3.8-0.7c0.8,0,1.2,0.4,1.2,1.2
				c0,0.7-0.2,2.1-0.7,4.1L333.4,74.4z"/>
		</g>
		<g>
			<path d="M352.8,57.5c3.1,0,4.6,1.2,4.6,3.7c0,1.8-1.3,3.5-3.9,5c-2.6,1.6-4.9,2.3-7,2.3c-0.2,0-0.4,0.3-0.6,0.8
				c-0.2,0.5-0.2,1.1-0.2,1.6c0,1.2,0.2,2.3,0.7,3.2c0.5,0.9,1.2,1.3,2.2,1.3c0.6,0,1.3-0.2,2.1-0.6c0.7-0.4,1.4-0.7,1.9-1.1
				c0.5-0.4,0.8-0.6,0.9-0.6c0.4,0,0.7,0.4,0.7,1.2c0,0.7-0.8,1.6-2.5,2.7c-1.7,1.1-3.4,1.6-5.1,1.6c-1.6,0-2.8-0.7-3.7-2.1
				c-0.9-1.4-1.3-3-1.3-4.8c0-3.5,1.2-6.8,3.6-9.8C347.5,59,350,57.5,352.8,57.5z M346.7,66.4c0,0.2,0.1,0.3,0.3,0.3
				c1.8,0,3.3-0.7,4.7-2.1c1.4-1.4,2.1-2.8,2.1-4.1c0-0.8-0.6-1.2-1.7-1.2c-0.8,0-1.9,0.9-3.3,2.6C347.4,63.8,346.7,65.3,346.7,66.4
				z"/>
		</g>
		<g>
			<path d="M383.9,72.7c-1.2,1.7-2.7,3.2-4.4,4.3c-1.7,1.2-3.1,1.8-4.3,1.8c-1.4,0-2.3-0.8-2.7-2.4c-0.4-1.6-0.3-3.5,0.4-5.8L375,63
				c0.3-1.2,0.3-1.8-0.1-1.8c-0.5,0-1.2,0.4-2.2,1.2c-1,0.8-1.5,1.2-1.7,1.2c-0.4,0-0.5-0.4-0.5-1.2c0-0.5,0.9-1.5,2.8-2.9
				c1.9-1.4,3.4-2,4.6-2c0.9,0,1.4,0.4,1.5,1.2s0.1,1.5-0.2,2l-3,10.7c-0.3,0.8-0.3,1.6,0,2.5c0.3,0.9,0.8,1.3,1.6,1.3
				c1.2,0,2.4-0.7,3.7-2.1c1.2-1.4,2.4-3.1,3.4-5.1l0-0.7c0-0.5,0.1-1.1,0.2-1.8c0.1-0.7,0.2-1.4,0.4-2c0.3-1.1,0.8-2,1.4-2.7
				c0.6-0.7,1.3-1.1,2-1.1c0.2,0,0.3,0,0.5,0c0.1,0,0.2,0.1,0.4,0.2c0.2,0.1,0.3,0.3,0.4,0.6c0.1,0.3,0.1,0.8,0.1,1.3
				c0,1.2-0.6,2.9-1.9,5c-0.9,1.5-1.3,3.2-1.3,5c0,0.8,0.2,1.5,0.6,2.2c0.4,0.7,0.9,1,1.6,1c1.4,0,2.7-0.7,4-2
				c1.3-1.3,2.3-2.8,3.1-4.5c0.8-1.7,1.1-3.2,1.1-4.5c0-0.7-0.3-1.5-0.8-2.4c-0.5-0.9-0.8-1.4-0.8-1.6c0-0.4,0.3-1,0.8-1.7
				c0.6-0.7,1.1-1,1.6-1c0.7,0,1.3,0.5,1.8,1.4c0.5,0.9,0.8,1.9,0.8,3.1c0,2.3-0.7,4.7-2.2,7.4c-1.4,2.7-3.2,4.9-5.4,6.7
				c-2.2,1.8-4.2,2.7-6.1,2.7c-0.9,0-1.6-0.5-2.2-1.4c-0.5-0.9-0.8-2-0.8-3.2c0-0.3,0-0.7,0.1-1.2c0.1-0.3,0-0.4,0-0.5
				C384.1,72.5,384,72.5,383.9,72.7z"/>
		</g>
		<g>
			<path d="M411.1,57.5c0.5,0,0.8,0.4,0.8,1.2c0,0.7-0.2,2.1-0.7,4.1l-2.9,11.6c-0.1,0.5,0,0.8,0.4,0.8c0.7,0,1.5-0.4,2.4-1.2
				c0.9-0.8,1.4-1.2,1.6-1.2c0.2,0,0.3,0.2,0.3,0.6c0,0.9-0.8,2-2.3,3.3c-1.6,1.3-3,2-4.4,2c-1.4,0-2.1-0.7-2.1-2
				c0-0.2,0.1-0.7,0.3-1.5l3-11.9c0,0,0-0.1,0.1-0.3c0-0.2,0.1-0.3,0.1-0.4c0-0.1,0-0.2,0-0.3c0-0.1,0-0.2-0.1-0.3
				c0-0.1-0.1-0.1-0.2-0.1c-0.4,0-0.9,0.2-1.6,0.7s-1,0.7-1.1,0.7c-0.4,0-0.6-0.3-0.6-1c0-0.5,1-1.5,3-2.9
				C409,58.2,410.3,57.5,411.1,57.5z M412.1,48c0.6,0,1.1,0.2,1.5,0.6c0.4,0.4,0.6,0.9,0.6,1.5c0,0.7-0.3,1.3-0.8,1.9
				c-0.5,0.6-1.1,0.9-1.8,0.9c-0.6,0-1.1-0.2-1.5-0.6c-0.4-0.4-0.5-0.9-0.5-1.6c0-0.7,0.3-1.3,0.8-1.9C410.8,48.2,411.4,48,412.1,48
				z"/>
		</g>
		<g>
			<path d="M420.5,74.4c-0.1,0.5,0,0.8,0.4,0.8c0.7,0,1.5-0.4,2.4-1.2c0.9-0.8,1.4-1.2,1.6-1.2c0.2,0,0.3,0.2,0.3,0.6
				c0,0.9-0.8,2-2.3,3.3c-1.6,1.3-3,2-4.4,2c-1.4,0-2.1-0.7-2.1-2c0-0.2,0.1-0.7,0.3-1.5l6-24c0.3-1.2,0.4-2,0.4-2.2
				c0-0.1-0.6-0.4-1.7-0.8c-1.1-0.4-1.7-0.8-1.7-1c0-0.4,0.8-0.8,2.5-1.2c1.7-0.5,2.9-0.7,3.8-0.7c0.8,0,1.2,0.4,1.2,1.2
				c0,0.7-0.2,2.1-0.7,4.1L420.5,74.4z"/>
		</g>
		<g>
			<path d="M432.7,74.4c-0.1,0.5,0,0.8,0.4,0.8c0.7,0,1.5-0.4,2.4-1.2c0.9-0.8,1.4-1.2,1.6-1.2c0.2,0,0.3,0.2,0.3,0.6
				c0,0.9-0.8,2-2.3,3.3c-1.6,1.3-3,2-4.4,2c-1.4,0-2.1-0.7-2.1-2c0-0.2,0.1-0.7,0.3-1.5l6-24c0.3-1.2,0.4-2,0.4-2.2
				c0-0.1-0.6-0.4-1.7-0.8c-1.1-0.4-1.7-0.8-1.7-1c0-0.4,0.8-0.8,2.5-1.2c1.7-0.5,2.9-0.7,3.8-0.7c0.8,0,1.2,0.4,1.2,1.2
				c0,0.7-0.2,2.1-0.7,4.1L432.7,74.4z"/>
		</g>
		<g>
			<path d="M461.1,53.3c0.5,0,0.8,0.4,0.8,1.2c0,0.8-0.2,2.1-0.7,3.9h4.8c0.8,0,1.2,0.2,1.2,0.7c0,0.3-0.2,0.7-0.7,1.2
				c-0.5,0.5-1,0.7-1.5,0.7h-4.5l-3.5,13.2c-0.1,0.5,0,0.8,0.4,0.8c0.7,0,1.5-0.4,2.4-1.2c0.9-0.8,1.4-1.2,1.6-1.2
				c0.2,0,0.3,0.2,0.3,0.6c0,0.9-0.8,2-2.3,3.3c-1.6,1.3-3,2-4.4,2c-1.4,0-2.1-0.7-2.1-2c0-0.2,0.1-0.7,0.3-1.5l3.7-14.2h-2.3
				c-0.7,0-1.1-0.2-1.1-0.7c0-0.4,0.2-0.9,0.6-1.3c0.4-0.5,0.9-0.7,1.4-0.7h1.9l0.7-2.7c0.1-0.4,0.4-0.9,1-1.5
				C459.8,53.6,460.4,53.3,461.1,53.3z"/>
		</g>
		<g>
			<path d="M476.8,57.5c1.6,0,3,0.6,4,1.9c1.1,1.3,1.6,2.8,1.6,4.5c0,3.6-1,7-2.9,10.1c-2,3.2-4.2,4.7-6.8,4.7c-1.7,0-3-0.7-4.1-2.1
				c-1.1-1.4-1.6-3-1.6-4.8c0-2.2,0.5-4.4,1.4-6.6c0.9-2.2,2.2-4.1,3.7-5.5C473.5,58.2,475.1,57.5,476.8,57.5z M470.8,73.1
				c0,2.3,0.7,3.5,2,3.5c1.4,0,2.8-1.5,4-4.6c1.2-3.1,1.8-6.1,1.8-9.2c0-2-0.6-3.1-1.7-3.1c-1.1,0-2.1,0.7-3,2.1
				c-1,1.4-1.7,3.1-2.3,5.2C471,69.1,470.8,71.1,470.8,73.1z"/>
		</g>
		<g>
			<path d="M493.7,53.3c0.5,0,0.8,0.4,0.8,1.2c0,0.8-0.2,2.1-0.7,3.9h4.8c0.8,0,1.2,0.2,1.2,0.7c0,0.3-0.2,0.7-0.7,1.2
				c-0.5,0.5-1,0.7-1.5,0.7h-4.5l-3.5,13.2c-0.1,0.5,0,0.8,0.4,0.8c0.7,0,1.5-0.4,2.4-1.2c0.9-0.8,1.4-1.2,1.6-1.2
				c0.2,0,0.3,0.2,0.3,0.6c0,0.9-0.8,2-2.3,3.3c-1.6,1.3-3,2-4.4,2c-1.4,0-2.1-0.7-2.1-2c0-0.2,0.1-0.7,0.3-1.5l3.7-14.2h-2.3
				c-0.7,0-1.1-0.2-1.1-0.7c0-0.4,0.2-0.9,0.6-1.3c0.4-0.5,0.9-0.7,1.4-0.7h1.9l0.7-2.7c0.1-0.4,0.4-0.9,1-1.5
				C492.4,53.6,493,53.3,493.7,53.3z"/>
		</g>
		<g>
			<path d="M519.8,58.6l-3.9,15.7c-0.1,0.5,0,0.8,0.4,0.8c0.7,0,1.5-0.4,2.4-1.2c0.9-0.8,1.4-1.2,1.6-1.2c0.2,0,0.3,0.2,0.3,0.6
				c0,0.9-0.8,2-2.3,3.3c-1.6,1.3-3,2-4.4,2c-0.6,0-1.1-0.2-1.3-0.6c-0.3-0.4-0.4-0.9-0.4-1.5c0-0.6,0.1-1.2,0.2-1.9
				s0.3-1.3,0.4-1.9c0.1-0.3,0.1-0.4,0.1-0.5c0-0.2,0-0.4-0.1-0.4c-0.1,0-0.2,0-0.3,0.2c-3.3,4.4-6.8,6.7-10.6,6.7
				c-1,0-1.9-0.2-2.5-0.7c-0.6-0.5-1-1.1-1-2c0-2.2,1-4.7,3.1-7.4s4.3-5.1,6.9-7c2.5-1.9,4.5-2.8,6-2.8c0.3,0,0.5,0,0.8,0.1
				c0.3,0.1,0.4,0.1,0.5,0.1c0.3,0,0.7-0.5,1.2-1.6c0.2-0.4,0.4-0.6,0.9-0.6c0.9,0,1.5,0.2,1.9,0.5
				C519.8,57.8,519.9,58.2,519.8,58.6z M502.9,74c0,0.9,0.3,1.3,0.9,1.3c1.2,0,2.8-0.8,4.6-2.4c1.8-1.6,3.4-3.4,4.7-5.4
				s1.9-3.4,1.9-4.5c0-0.4-0.2-0.7-0.6-1.1c-0.4-0.4-0.8-0.6-1.3-0.6c-0.7,0-1.9,0.8-3.6,2.4c-1.6,1.6-3.2,3.4-4.5,5.4
				S502.9,72.9,502.9,74z"/>
		</g>
		<g>
			<path d="M527.3,74.4c-0.1,0.5,0,0.8,0.4,0.8c0.7,0,1.5-0.4,2.4-1.2c0.9-0.8,1.4-1.2,1.6-1.2c0.2,0,0.3,0.2,0.3,0.6
				c0,0.9-0.8,2-2.3,3.3c-1.6,1.3-3,2-4.4,2c-1.4,0-2.1-0.7-2.1-2c0-0.2,0.1-0.7,0.3-1.5l6-24c0.3-1.2,0.4-2,0.4-2.2
				c0-0.1-0.6-0.4-1.7-0.8s-1.7-0.8-1.7-1c0-0.4,0.8-0.8,2.5-1.2c1.7-0.5,2.9-0.7,3.8-0.7c0.8,0,1.2,0.4,1.2,1.2
				c0,0.7-0.2,2.1-0.7,4.1L527.3,74.4z"/>
		</g>
		<g>
			<path d="M539.5,74.4c-0.1,0.5,0,0.8,0.4,0.8c0.7,0,1.5-0.4,2.4-1.2c0.9-0.8,1.4-1.2,1.6-1.2c0.2,0,0.3,0.2,0.3,0.6
				c0,0.9-0.8,2-2.3,3.3c-1.6,1.3-3,2-4.4,2c-1.4,0-2.1-0.7-2.1-2c0-0.2,0.1-0.7,0.3-1.5l6-24c0.3-1.2,0.4-2,0.4-2.2
				c0-0.1-0.6-0.4-1.7-0.8s-1.7-0.8-1.7-1c0-0.4,0.8-0.8,2.5-1.2c1.7-0.5,2.9-0.7,3.8-0.7c0.8,0,1.2,0.4,1.2,1.2
				c0,0.7-0.2,2.1-0.7,4.1L539.5,74.4z"/>
		</g>
		<g>
			<path d="M554.2,63.7c-0.3-1.6-0.9-2.4-1.9-2.4c-0.5,0-1.1,0.3-1.7,0.9s-1.1,1.2-1.6,1.8c-0.5,0.6-0.8,0.9-0.9,0.9
				c-0.4,0-0.5-0.4-0.5-1.2s0.6-2,1.8-3.6c1.2-1.6,2.6-2.5,4-2.5c1,0,1.9,0.4,2.7,1.2c0.8,0.8,1.3,2,1.7,3.5
				c0.5,2.3,0.5,5.7,0.1,10.1c0,0.4,0,0.7,0,0.9s0.1,0.2,0.3,0.1c0.1-0.1,0.3-0.3,0.4-0.7c0.9-2,1.8-4.3,2.5-6.7
				c0.7-2.5,1.2-4.3,1.3-5.4c0.3-2.1,0.9-3.2,1.8-3.2c0.4,0,0.7,0.3,1,0.8c0.3,0.5,0.5,1.1,0.5,1.6c0,0.4-0.3,1.5-0.8,3.3
				c-0.5,1.8-1.4,4.2-2.5,7.1c-1.1,2.9-2.3,5.5-3.5,7.8c-0.7,1.4-1.4,2.6-1.8,3.5c-0.5,0.9-1.2,2-2.1,3.4c-0.9,1.4-1.8,2.4-2.6,3.2
				c-0.8,0.8-1.8,1.5-2.9,2.1c-1.1,0.6-2.2,0.9-3.4,0.9c-2.2,0-3.3-0.8-3.3-2.5c0-0.5,0.2-1,0.7-1.5c0.5-0.5,1-0.7,1.5-0.7
				c0.2,0,0.6,0.3,1.3,0.9s1.3,0.9,1.9,0.9c0.9,0,1.8-0.5,2.7-1.6c0.9-1.1,1.6-2.4,2.1-4.1c0.5-1.6,1-3.3,1.3-5.1s0.5-3.4,0.5-4.9
				C554.9,69.4,554.7,66.5,554.2,63.7z"/>
		</g>
		<g>
			<path d="M600.2,62.2c-0.1,0.2,0,0.3,0.1,0.3c0.1,0,0.3-0.1,0.5-0.3c1.8-1.8,3.4-3,4.8-3.7c1.4-0.7,2.9-1,4.3-1c1.1,0,1.8,0.7,2,2
				c0.2,1.3,0.1,2.7-0.5,4.2l-3.7,10.6c-0.2,0.5-0.1,0.8,0.4,0.8c0.7,0,1.5-0.4,2.4-1.2c0.9-0.8,1.4-1.2,1.6-1.2
				c0.2,0,0.3,0.2,0.3,0.6c0,0.9-0.8,2-2.4,3.3c-1.6,1.3-3.1,2-4.5,2c-1.4,0-2.1-0.7-2.1-2c0-0.5,0.1-1,0.3-1.5l3.8-10.9
				c1-2.8,1-4.2,0-4.2c-1.4,0-3,1-4.8,3c-1.7,2-3.2,4.2-4.5,6.7c-1.3,2.5-2.4,5-3.3,7.5c-0.3,1-0.7,1.5-1.2,1.5
				c-0.4,0-0.9-0.1-1.4-0.5c-0.6-0.3-0.8-0.6-0.8-0.7c0-0.4,0.2-1.3,0.7-2.6l3.7-10.6c0.2-0.7,0.4-1.3,0.5-1.8
				c0.1-0.5,0.2-0.9,0.2-1.3c0-0.4,0-0.7-0.2-0.9c-0.1-0.2-0.4-0.3-0.6-0.3c-1.4,0-3,1-4.8,3c-1.7,2-3.2,4.2-4.5,6.7
				c-1.3,2.5-2.4,5-3.3,7.5c-0.3,1-0.7,1.5-1.2,1.5c-0.4,0-0.9-0.1-1.4-0.5c-0.6-0.3-0.8-0.6-0.8-0.7c0-0.4,0.2-1.3,0.7-2.6l4.3-12
				c0.2-0.4,0.3-0.8,0.2-1.3c0-0.5-0.2-0.7-0.6-0.7c-0.7,0-1.5,0.4-2.4,1.1c-0.9,0.7-1.4,1.1-1.5,1.1c-0.4,0-0.5-0.3-0.5-1
				c0-0.7,0.7-1.6,2.2-2.8c1.5-1.2,2.9-1.8,4.3-1.8c1.8,0,2.4,1.6,1.6,4.8c0,0.2,0,0.3,0.1,0.3c0.1,0.1,0.3,0,0.4,0
				c3.4-3.4,6.6-5.1,9.6-5.1c0.9,0,1.6,0.5,1.9,1.4C600.6,59.9,600.6,61,600.2,62.2z"/>
		</g>
		<g>
			<path d="M635.8,58.6l-3.9,15.7c-0.1,0.5,0,0.8,0.4,0.8c0.7,0,1.5-0.4,2.4-1.2c0.9-0.8,1.4-1.2,1.6-1.2c0.2,0,0.3,0.2,0.3,0.6
				c0,0.9-0.8,2-2.3,3.3c-1.6,1.3-3,2-4.4,2c-0.6,0-1.1-0.2-1.3-0.6c-0.3-0.4-0.4-0.9-0.4-1.5c0-0.6,0.1-1.2,0.2-1.9
				s0.3-1.3,0.4-1.9c0.1-0.3,0.1-0.4,0.1-0.5c0-0.2,0-0.4-0.1-0.4c-0.1,0-0.2,0-0.3,0.2c-3.3,4.4-6.8,6.7-10.6,6.7
				c-1,0-1.9-0.2-2.5-0.7c-0.6-0.5-1-1.1-1-2c0-2.2,1-4.7,3.1-7.4s4.3-5.1,6.9-7c2.5-1.9,4.5-2.8,6-2.8c0.3,0,0.5,0,0.8,0.1
				c0.3,0.1,0.4,0.1,0.5,0.1c0.3,0,0.7-0.5,1.2-1.6c0.2-0.4,0.4-0.6,0.9-0.6c0.9,0,1.5,0.2,1.9,0.5
				C635.8,57.8,635.9,58.2,635.8,58.6z M618.9,74c0,0.9,0.3,1.3,0.9,1.3c1.2,0,2.8-0.8,4.6-2.4c1.8-1.6,3.4-3.4,4.7-5.4
				s1.9-3.4,1.9-4.5c0-0.4-0.2-0.7-0.6-1.1c-0.4-0.4-0.8-0.6-1.3-0.6c-0.7,0-1.9,0.8-3.6,2.4c-1.6,1.6-3.2,3.4-4.5,5.4
				S618.9,72.9,618.9,74z"/>
		</g>
		<g>
			<path d="M645.2,71c-0.2,0-0.3,0-0.4,0c-0.1,0-0.2,0.1-0.3,0.3c-0.1,0.2-0.3,0.5-0.5,0.9c-0.2,0.4-0.3,0.9-0.5,1.2
				c-0.1,0.4-0.3,0.9-0.5,1.6c-0.2,0.7-0.4,1.4-0.7,2.2c-0.3,1-0.7,1.5-1.2,1.5c-0.4,0-0.7-0.1-1.1-0.4s-0.5-0.6-0.6-0.8
				c-0.2-1.2,0-2.7,0.4-4.7l5.4-21.6c0.3-1.2,0.4-2,0.4-2.2c0-0.1-0.6-0.4-1.7-0.8s-1.7-0.8-1.7-1c0-0.4,0.8-0.8,2.5-1.2
				c1.7-0.5,2.9-0.7,3.8-0.7c0.8,0,1.2,0.4,1.2,1.2c0,0.7-0.2,2.1-0.7,4.1L646,63.6c0,0.2,0,0.3,0,0.4s0,0.1,0.1,0.1
				c0.1,0,0.2-0.1,0.2-0.1c0.1-0.1,0.2-0.1,0.3-0.2c0,0,0.2-0.2,0.5-0.6c0.3-0.3,0.6-0.7,1-1c0.3-0.3,0.7-0.7,1.2-1.2
				c0.5-0.5,1-0.9,1.5-1.3c0.5-0.4,1-0.8,1.5-1.1c0.5-0.4,1-0.6,1.5-0.8c0.5-0.2,1-0.3,1.4-0.3c1.1,0,1.9,0.4,2.4,1.1
				s0.8,1.7,0.8,2.8c0,1.4-0.8,2.9-2.4,4.5c-1.6,1.6-3.5,2.8-5.7,3.7c-0.4,0.2-0.5,0.4-0.1,0.7c0.4,0.4,0.9,1,1.5,1.8
				c0.6,0.9,1.2,1.6,1.7,2.2c0.5,0.6,1,0.9,1.5,0.9c0.7,0,1.4-0.4,2.3-1.3c0.9-0.9,1.4-1.3,1.5-1.3c0.2,0,0.3,0.2,0.3,0.6
				c0,1.1-0.5,2.3-1.6,3.6c-1.1,1.3-2.4,1.9-3.9,1.9c-0.5,0-1.1-0.3-1.6-0.9c-0.6-0.6-1.3-1.6-2.2-2.8c-0.9-1.2-1.5-2.1-2-2.6
				C647,71.5,646.2,71,645.2,71z M645.6,68.4c0,0.6,0.2,0.9,0.6,0.9c1.5,0,3.3-0.7,5.2-2.2c1.9-1.5,2.9-3,2.9-4.6
				c0-1.2-0.4-1.8-1.3-1.8c-0.9,0-2.4,1.1-4.4,3.4C646.6,66.3,645.6,67.7,645.6,68.4z"/>
		</g>
		<g>
			<path d="M673.6,57.5c3.1,0,4.6,1.2,4.6,3.7c0,1.8-1.3,3.5-3.9,5c-2.6,1.6-4.9,2.3-7,2.3c-0.2,0-0.4,0.3-0.6,0.8
				c-0.2,0.5-0.2,1.1-0.2,1.6c0,1.2,0.2,2.3,0.7,3.2c0.5,0.9,1.2,1.3,2.2,1.3c0.6,0,1.3-0.2,2.1-0.6c0.7-0.4,1.4-0.7,1.9-1.1
				c0.5-0.4,0.8-0.6,0.9-0.6c0.4,0,0.7,0.4,0.7,1.2c0,0.7-0.8,1.6-2.5,2.7c-1.7,1.1-3.4,1.6-5.1,1.6c-1.6,0-2.8-0.7-3.7-2.1
				c-0.9-1.4-1.3-3-1.3-4.8c0-3.5,1.2-6.8,3.6-9.8C668.2,59,670.8,57.5,673.6,57.5z M667.5,66.4c0,0.2,0.1,0.3,0.3,0.3
				c1.8,0,3.3-0.7,4.7-2.1c1.4-1.4,2.1-2.8,2.1-4.1c0-0.8-0.6-1.2-1.7-1.2c-0.8,0-1.9,0.9-3.3,2.6S667.5,65.3,667.5,66.4z"/>
		</g>
		<g>
			<path d="M712.2,62.2c-0.1,0.2,0,0.3,0.1,0.3c0.1,0,0.3-0.1,0.5-0.3c1.8-1.8,3.4-3,4.8-3.7c1.4-0.7,2.9-1,4.3-1c1.1,0,1.8,0.7,2,2
				c0.2,1.3,0.1,2.7-0.5,4.2l-3.7,10.6c-0.2,0.5-0.1,0.8,0.4,0.8c0.7,0,1.5-0.4,2.4-1.2c0.9-0.8,1.4-1.2,1.6-1.2
				c0.2,0,0.3,0.2,0.3,0.6c0,0.9-0.8,2-2.4,3.3c-1.6,1.3-3.1,2-4.5,2c-1.4,0-2.1-0.7-2.1-2c0-0.5,0.1-1,0.3-1.5l3.8-10.9
				c1-2.8,1-4.2,0-4.2c-1.4,0-3,1-4.8,3c-1.7,2-3.2,4.2-4.5,6.7c-1.3,2.5-2.4,5-3.3,7.5c-0.3,1-0.7,1.5-1.2,1.5
				c-0.4,0-0.9-0.1-1.4-0.5c-0.6-0.3-0.8-0.6-0.8-0.7c0-0.4,0.2-1.3,0.7-2.6l3.7-10.6c0.2-0.7,0.4-1.3,0.5-1.8
				c0.1-0.5,0.2-0.9,0.2-1.3c0-0.4,0-0.7-0.2-0.9c-0.1-0.2-0.4-0.3-0.6-0.3c-1.4,0-3,1-4.8,3c-1.7,2-3.2,4.2-4.5,6.7
				c-1.3,2.5-2.4,5-3.3,7.5c-0.3,1-0.7,1.5-1.2,1.5c-0.4,0-0.9-0.1-1.4-0.5c-0.6-0.3-0.8-0.6-0.8-0.7c0-0.4,0.2-1.3,0.7-2.6l4.3-12
				c0.2-0.4,0.3-0.8,0.2-1.3c0-0.5-0.2-0.7-0.6-0.7c-0.7,0-1.5,0.4-2.4,1.1c-0.9,0.7-1.4,1.1-1.5,1.1c-0.4,0-0.5-0.3-0.5-1
				c0-0.7,0.7-1.6,2.2-2.8c1.5-1.2,2.9-1.8,4.3-1.8c1.8,0,2.4,1.6,1.6,4.8c0,0.2,0,0.3,0.1,0.3c0.1,0.1,0.3,0,0.4,0
				c3.4-3.4,6.6-5.1,9.6-5.1c0.9,0,1.6,0.5,1.9,1.4C712.6,59.9,712.6,61,712.2,62.2z"/>
		</g>
		<g>
			<path d="M738.8,57.5c3.1,0,4.6,1.2,4.6,3.7c0,1.8-1.3,3.5-3.9,5c-2.6,1.6-4.9,2.3-7,2.3c-0.2,0-0.4,0.3-0.6,0.8
				c-0.2,0.5-0.2,1.1-0.2,1.6c0,1.2,0.2,2.3,0.7,3.2c0.5,0.9,1.2,1.3,2.2,1.3c0.6,0,1.3-0.2,2.1-0.6c0.7-0.4,1.4-0.7,1.9-1.1
				c0.5-0.4,0.8-0.6,0.9-0.6c0.4,0,0.7,0.4,0.7,1.2c0,0.7-0.8,1.6-2.5,2.7c-1.7,1.1-3.4,1.6-5.1,1.6c-1.6,0-2.8-0.7-3.7-2.1
				c-0.9-1.4-1.3-3-1.3-4.8c0-3.5,1.2-6.8,3.6-9.8C733.5,59,736.1,57.5,738.8,57.5z M732.7,66.4c0,0.2,0.1,0.3,0.3,0.3
				c1.8,0,3.3-0.7,4.7-2.1c1.4-1.4,2.1-2.8,2.1-4.1c0-0.8-0.6-1.2-1.7-1.2c-0.8,0-1.9,0.9-3.3,2.6S732.7,65.3,732.7,66.4z"/>
		</g>
		<g>
			<path d="M761,74.4c-0.1,0.5,0,0.8,0.4,0.8c0.7,0,1.5-0.4,2.4-1.2c0.9-0.8,1.4-1.2,1.6-1.2c0.2,0,0.3,0.2,0.3,0.6
				c0,0.9-0.8,2-2.3,3.3c-1.6,1.3-3,2-4.4,2c-1.4,0-2.1-0.7-2.1-2c0-0.2,0.1-0.7,0.3-1.5l6-24c0.3-1.2,0.4-2,0.4-2.2
				c0-0.1-0.6-0.4-1.7-0.8s-1.7-0.8-1.7-1c0-0.4,0.8-0.8,2.5-1.2c1.7-0.5,2.9-0.7,3.8-0.7c0.8,0,1.2,0.4,1.2,1.2
				c0,0.7-0.2,2.1-0.7,4.1L761,74.4z"/>
		</g>
		<g>
			<path d="M778.9,57.5c1.6,0,3,0.6,4,1.9c1.1,1.3,1.6,2.8,1.6,4.5c0,3.6-1,7-2.9,10.1c-2,3.2-4.2,4.7-6.8,4.7c-1.7,0-3-0.7-4.1-2.1
				c-1.1-1.4-1.6-3-1.6-4.8c0-2.2,0.5-4.4,1.4-6.6c0.9-2.2,2.2-4.1,3.7-5.5C775.7,58.2,777.2,57.5,778.9,57.5z M772.9,73.1
				c0,2.3,0.7,3.5,2,3.5c1.4,0,2.8-1.5,4-4.6c1.2-3.1,1.8-6.1,1.8-9.2c0-2-0.6-3.1-1.7-3.1c-1.1,0-2.1,0.7-3,2.1
				c-1,1.4-1.7,3.1-2.3,5.2C773.1,69.1,772.9,71.1,772.9,73.1z"/>
		</g>
		<g>
			<path d="M795.8,57.5c0.8,0,1.6,0.3,2.3,0.9c0.7,0.6,1,1.2,1,1.9c0,0.3-0.2,0.7-0.5,1.1s-0.7,0.6-1,0.6c-0.1,0-0.6-0.3-1.6-1
				c-1-0.6-1.9-1-2.7-1c-0.3,0-0.6,0.2-0.8,0.5c-0.2,0.4-0.3,0.7-0.3,1.1c0,0.2,0,0.4,0.1,0.6c0.1,0.2,0.2,0.5,0.3,0.8
				c0.1,0.3,0.3,0.6,0.4,0.9c0.1,0.3,0.3,0.7,0.6,1.1s0.4,0.8,0.6,1.2c0.2,0.3,0.4,0.7,0.7,1.2c0.3,0.5,0.5,0.9,0.7,1.2
				c0.8,1.4,1.2,2.6,1.2,3.5c0,1.9-0.8,3.4-2.5,4.7c-1.7,1.3-3.4,1.9-5.3,1.9c-1,0-1.8-0.3-2.4-0.9s-1-1.4-1-2.3
				c0-0.4,0.2-0.7,0.5-1c0.3-0.3,0.7-0.4,1.1-0.4l1.5,1c1,0.6,1.9,1,2.8,1c0.5,0,1-0.2,1.3-0.7c0.3-0.4,0.5-1,0.5-1.6
				c0-1.1-1.3-3.7-3.8-8c-0.4-0.6-0.5-1.3-0.5-2.1c0-1.6,0.7-3,2.1-4.3C792.4,58.1,794,57.5,795.8,57.5z"/>
		</g>
		<g>
			<path d="M812.6,57.5c3.1,0,4.6,1.2,4.6,3.7c0,1.8-1.3,3.5-3.9,5c-2.6,1.6-4.9,2.3-7,2.3c-0.2,0-0.4,0.3-0.6,0.8
				c-0.2,0.5-0.2,1.1-0.2,1.6c0,1.2,0.2,2.3,0.7,3.2c0.5,0.9,1.2,1.3,2.2,1.3c0.6,0,1.3-0.2,2.1-0.6c0.7-0.4,1.4-0.7,1.9-1.1
				c0.5-0.4,0.8-0.6,0.9-0.6c0.4,0,0.7,0.4,0.7,1.2c0,0.7-0.8,1.6-2.5,2.7c-1.7,1.1-3.4,1.6-5.1,1.6c-1.6,0-2.8-0.7-3.7-2.1
				c-0.9-1.4-1.3-3-1.3-4.8c0-3.5,1.2-6.8,3.6-9.8C807.3,59,809.9,57.5,812.6,57.5z M806.5,66.4c0,0.2,0.1,0.3,0.3,0.3
				c1.8,0,3.3-0.7,4.7-2.1c1.4-1.4,2.1-2.8,2.1-4.1c0-0.8-0.6-1.2-1.7-1.2c-0.8,0-1.9,0.9-3.3,2.6S806.5,65.3,806.5,66.4z"/>
		</g>
		<g>
			<path d="M851.2,62.2c-0.1,0.2,0,0.3,0.1,0.3c0.1,0,0.3-0.1,0.5-0.3c1.8-1.8,3.4-3,4.8-3.7c1.4-0.7,2.9-1,4.3-1c1.1,0,1.8,0.7,2,2
				c0.2,1.3,0.1,2.7-0.5,4.2l-3.7,10.6c-0.2,0.5-0.1,0.8,0.4,0.8c0.7,0,1.5-0.4,2.4-1.2c0.9-0.8,1.4-1.2,1.6-1.2
				c0.2,0,0.3,0.2,0.3,0.6c0,0.9-0.8,2-2.4,3.3c-1.6,1.3-3.1,2-4.5,2c-1.4,0-2.1-0.7-2.1-2c0-0.5,0.1-1,0.3-1.5l3.8-10.9
				c1-2.8,1-4.2,0-4.2c-1.4,0-3,1-4.8,3c-1.7,2-3.2,4.2-4.5,6.7c-1.3,2.5-2.4,5-3.3,7.5c-0.3,1-0.7,1.5-1.2,1.5
				c-0.4,0-0.9-0.1-1.4-0.5c-0.6-0.3-0.8-0.6-0.8-0.7c0-0.4,0.2-1.3,0.7-2.6l3.7-10.6c0.2-0.7,0.4-1.3,0.5-1.8
				c0.1-0.5,0.2-0.9,0.2-1.3c0-0.4,0-0.7-0.2-0.9c-0.1-0.2-0.4-0.3-0.6-0.3c-1.4,0-3,1-4.8,3c-1.7,2-3.2,4.2-4.5,6.7
				c-1.3,2.5-2.4,5-3.3,7.5c-0.3,1-0.7,1.5-1.2,1.5c-0.4,0-0.9-0.1-1.4-0.5c-0.6-0.3-0.8-0.6-0.8-0.7c0-0.4,0.2-1.3,0.7-2.6l4.3-12
				c0.2-0.4,0.3-0.8,0.2-1.3c0-0.5-0.2-0.7-0.6-0.7c-0.7,0-1.5,0.4-2.4,1.1c-0.9,0.7-1.4,1.1-1.5,1.1c-0.4,0-0.5-0.3-0.5-1
				c0-0.7,0.7-1.6,2.2-2.8c1.5-1.2,2.9-1.8,4.3-1.8c1.8,0,2.4,1.6,1.6,4.8c0,0.2,0,0.3,0.1,0.3c0.1,0.1,0.3,0,0.4,0
				c3.4-3.4,6.6-5.1,9.6-5.1c0.9,0,1.6,0.5,1.9,1.4C851.6,59.9,851.6,61,851.2,62.2z"/>
		</g>
		<g>
			<path d="M873.1,63.7c-0.3-1.6-0.9-2.4-1.9-2.4c-0.5,0-1.1,0.3-1.7,0.9s-1.1,1.2-1.6,1.8c-0.5,0.6-0.8,0.9-0.9,0.9
				c-0.4,0-0.5-0.4-0.5-1.2s0.6-2,1.8-3.6c1.2-1.6,2.6-2.5,4-2.5c1,0,1.9,0.4,2.7,1.2c0.8,0.8,1.3,2,1.7,3.5
				c0.5,2.3,0.5,5.7,0.1,10.1c0,0.4,0,0.7,0,0.9s0.1,0.2,0.3,0.1c0.1-0.1,0.3-0.3,0.4-0.7c0.9-2,1.8-4.3,2.5-6.7
				c0.7-2.5,1.2-4.3,1.3-5.4c0.3-2.1,0.9-3.2,1.8-3.2c0.4,0,0.7,0.3,1,0.8c0.3,0.5,0.5,1.1,0.5,1.6c0,0.4-0.3,1.5-0.8,3.3
				c-0.5,1.8-1.4,4.2-2.5,7.1c-1.1,2.9-2.3,5.5-3.5,7.8c-0.7,1.4-1.4,2.6-1.8,3.5c-0.5,0.9-1.2,2-2.1,3.4c-0.9,1.4-1.8,2.4-2.6,3.2
				c-0.8,0.8-1.8,1.5-2.9,2.1c-1.1,0.6-2.2,0.9-3.4,0.9c-2.2,0-3.3-0.8-3.3-2.5c0-0.5,0.2-1,0.7-1.5c0.5-0.5,1-0.7,1.5-0.7
				c0.2,0,0.6,0.3,1.3,0.9s1.3,0.9,1.9,0.9c0.9,0,1.8-0.5,2.7-1.6c0.9-1.1,1.6-2.4,2.1-4.1c0.5-1.6,1-3.3,1.3-5.1s0.5-3.4,0.5-4.9
				C873.9,69.4,873.6,66.5,873.1,63.7z"/>
		</g>
	</g>
	<g class="st6">
		<g>
			<path d="M263.5,115.1c0.8,0,1.6,0.3,2.3,0.9c0.7,0.6,1,1.2,1,1.9c0,0.3-0.2,0.7-0.5,1.1c-0.3,0.4-0.7,0.6-1,0.6
				c-0.1,0-0.6-0.3-1.6-1c-1-0.6-1.9-1-2.7-1c-0.3,0-0.6,0.2-0.8,0.5c-0.2,0.4-0.3,0.7-0.3,1.1c0,0.2,0,0.4,0.1,0.6
				c0.1,0.2,0.2,0.5,0.3,0.8c0.1,0.3,0.3,0.6,0.4,0.9c0.1,0.3,0.3,0.7,0.6,1.1c0.2,0.4,0.4,0.8,0.6,1.2c0.2,0.3,0.4,0.7,0.7,1.2
				c0.3,0.5,0.5,0.9,0.7,1.2c0.8,1.4,1.2,2.6,1.2,3.5c0,1.9-0.8,3.4-2.5,4.7c-1.7,1.3-3.4,1.9-5.3,1.9c-1,0-1.8-0.3-2.4-0.9
				c-0.7-0.6-1-1.4-1-2.3c0-0.4,0.2-0.7,0.5-1c0.3-0.3,0.7-0.4,1.1-0.4l1.5,1c1,0.6,1.9,1,2.8,1c0.5,0,1-0.2,1.3-0.7
				c0.3-0.4,0.5-1,0.5-1.6c0-1.1-1.3-3.7-3.8-8c-0.4-0.6-0.5-1.3-0.5-2.1c0-1.6,0.7-3,2.1-4.3C260.1,115.7,261.7,115.1,263.5,115.1z
				"/>
		</g>
		<g>
			<path d="M277.6,110.9c0.5,0,0.8,0.4,0.8,1.2c0,0.8-0.2,2.1-0.7,3.9h4.8c0.8,0,1.2,0.2,1.2,0.7c0,0.3-0.2,0.7-0.7,1.2
				c-0.5,0.5-1,0.7-1.5,0.7h-4.5l-3.5,13.2c-0.1,0.5,0,0.8,0.4,0.8c0.7,0,1.5-0.4,2.4-1.2c0.9-0.8,1.4-1.2,1.6-1.2
				c0.2,0,0.3,0.2,0.3,0.6c0,0.9-0.8,2-2.3,3.3c-1.6,1.3-3,2-4.4,2c-1.4,0-2.1-0.7-2.1-2c0-0.2,0.1-0.7,0.3-1.5l3.7-14.2h-2.3
				c-0.7,0-1.1-0.2-1.1-0.7c0-0.4,0.2-0.9,0.6-1.3c0.4-0.5,0.9-0.7,1.4-0.7h1.9l0.7-2.7c0.1-0.4,0.4-0.9,1-1.5
				C276.3,111.2,277,110.9,277.6,110.9z"/>
		</g>
		<g>
			<path d="M296.3,119.8c-0.8,0-2.3,1.9-4.6,5.7s-3.9,6.9-5.1,9.4c-0.4,1-0.8,1.5-1.2,1.5c-0.4,0-0.9-0.1-1.4-0.5
				c-0.6-0.3-0.8-0.6-0.8-0.7c0-0.4,0.2-1.3,0.7-2.6l4.3-12c0.2-0.4,0.3-0.8,0.2-1.3c0-0.5-0.2-0.7-0.6-0.7c-0.7,0-1.5,0.4-2.4,1.1
				c-0.9,0.7-1.4,1.1-1.5,1.1c-0.4,0-0.5-0.3-0.5-1c0-0.7,0.7-1.6,2.2-2.8c1.5-1.2,2.9-1.8,4.3-1.8c0.5,0,1,0.3,1.3,0.9
				c0.4,0.6,0.5,1.2,0.3,1.9c-0.3,1.3-0.8,2.9-1.5,5c-0.1,0.2,0,0.3,0.2,0.4c0.2,0.1,0.3,0.1,0.4-0.1c2.4-3.4,4.1-5.6,5.1-6.6
				c1-1,2.1-1.5,3.1-1.5c0.6,0,1.1,0.1,1.6,0.4c0.5,0.3,0.8,0.7,0.8,1.2c0,0.9-0.3,1.8-1,2.7c-0.7,0.9-1.2,1.4-1.7,1.4
				c-0.4,0-0.8-0.2-1.3-0.5C297,120,296.6,119.8,296.3,119.8z"/>
		</g>
		<g>
			<path d="M313.2,115.1c3.1,0,4.6,1.2,4.6,3.7c0,1.8-1.3,3.5-3.9,5c-2.6,1.6-4.9,2.3-7,2.3c-0.2,0-0.4,0.3-0.6,0.8
				c-0.2,0.5-0.2,1.1-0.2,1.6c0,1.2,0.2,2.3,0.7,3.2c0.5,0.9,1.2,1.3,2.2,1.3c0.6,0,1.3-0.2,2.1-0.6c0.7-0.4,1.4-0.7,1.9-1.1
				c0.5-0.4,0.8-0.6,0.9-0.6c0.4,0,0.7,0.4,0.7,1.2c0,0.7-0.8,1.6-2.5,2.7c-1.7,1.1-3.4,1.6-5.1,1.6c-1.6,0-2.8-0.7-3.7-2.1
				c-0.9-1.4-1.3-3-1.3-4.8c0-3.5,1.2-6.8,3.6-9.8C307.9,116.6,310.4,115.1,313.2,115.1z M307.1,124c0,0.2,0.1,0.3,0.3,0.3
				c1.8,0,3.3-0.7,4.7-2.1c1.4-1.4,2.1-2.8,2.1-4.1c0-0.8-0.6-1.2-1.7-1.2c-0.8,0-1.9,0.9-3.3,2.6
				C307.8,121.4,307.1,122.9,307.1,124z"/>
		</g>
		<g>
			<path d="M320.5,132.6l4.3-12c0.2-0.4,0.3-0.8,0.2-1.3c0-0.5-0.2-0.7-0.6-0.7c-0.7,0-1.5,0.4-2.4,1.1c-0.9,0.7-1.4,1.1-1.5,1.1
				c-0.4,0-0.5-0.3-0.5-1c0-0.7,0.7-1.6,2.2-2.8c1.5-1.2,2.9-1.8,4.3-1.8c1.8,0,2.4,1.6,1.6,4.8c0,0.2,0,0.3,0.1,0.3
				c0.1,0.1,0.3,0,0.4,0c3.4-3.4,6.6-5.1,9.6-5.1c1.1,0,1.8,0.7,2,2c0.2,1.3,0.1,2.7-0.5,4.2l-3.7,10.6c-0.2,0.5-0.1,0.8,0.4,0.8
				c0.7,0,1.5-0.4,2.4-1.2c0.9-0.8,1.4-1.2,1.6-1.2c0.2,0,0.3,0.2,0.3,0.6c0,0.9-0.8,2-2.4,3.3c-1.6,1.3-3.1,2-4.5,2
				c-1.4,0-2.1-0.7-2.1-2c0-0.5,0.1-1,0.3-1.5l3.8-10.9c1-2.8,1-4.2,0-4.2c-1.4,0-3,1-4.8,3s-3.2,4.2-4.5,6.7
				c-1.3,2.5-2.4,5-3.3,7.5c-0.3,1-0.7,1.5-1.2,1.5c-0.4,0-0.9-0.1-1.4-0.5c-0.6-0.3-0.8-0.6-0.8-0.7
				C319.8,134.8,320,134,320.5,132.6z"/>
		</g>
		<g>
			<path d="M354.8,115.1c0.1,0,0.7,0.1,1.8,0.4c1.2,0.2,2.2,0.4,3,0.4c0.1,0,0.6-0.1,1.6-0.2c1-0.1,1.7-0.2,2-0.2
				c1.2,0,1.9,0.5,1.9,1.5c0,1-0.7,1.5-2,1.5c-0.4,0-1.2,0-2.2-0.1c-1,0-1.6-0.1-1.8-0.1c-0.2,0-0.3,0.1-0.3,0.4c0,0.3,0,0.7,0,1.2
				c0.1,0.5,0.1,0.9,0.1,1.2c0,2.4-0.8,4.5-2.3,6.4c-1.5,1.9-3.3,3.1-5.4,3.7c-1.3,0.4-2,0.9-2,1.5c0,0.2,0.1,0.3,0.2,0.5
				c0.2,0.2,0.4,0.4,0.7,0.6c0.3,0.2,0.6,0.4,0.9,0.6c0.3,0.2,0.6,0.3,1,0.6c0.4,0.2,0.7,0.4,0.9,0.5c0.3,0.2,1,0.6,2,1.2
				c1,0.6,1.8,1,2.2,1.3s1,0.7,1.6,1.2c0.7,0.5,1.1,1,1.4,1.5c0.3,0.5,0.4,1,0.4,1.6c0,1.9-1.4,3.5-4.1,4.8
				c-2.7,1.3-5.6,1.9-8.6,1.9c-1.5,0-2.9-0.2-4.2-0.5c-1.3-0.3-2.4-0.9-3.5-1.7c-1-0.8-1.5-1.9-1.5-3.2c0-1.2,0.9-2.5,2.7-4
				c1.8-1.5,3.8-2.6,5.9-3.4c0.4-0.2,0.4-0.4,0-0.7c-0.8-0.7-1.2-1.2-1.2-1.6c0-0.9,0.7-1.7,2.1-2.4c0.2-0.1,0.2-0.3-0.1-0.4
				c-0.1,0-0.2-0.1-0.3-0.1c-0.9-0.3-1.7-0.9-2.5-1.7c-0.8-0.8-1.2-1.7-1.2-2.5c0-1.9,0.4-3.7,1.1-5.4c0.7-1.7,2-3.2,3.6-4.4
				C350.5,115.7,352.5,115.1,354.8,115.1z M342.6,142.6c0,1.1,0.8,2,2.5,2.7c1.7,0.8,3.6,1.2,5.8,1.2c0.9,0,1.8-0.1,2.6-0.3
				c0.8-0.2,1.6-0.5,2.2-1c0.7-0.5,1-1.2,1-1.9c0-0.2,0-0.3,0-0.5c0-0.2-0.1-0.3-0.1-0.4c0-0.1-0.1-0.2-0.1-0.4
				c-0.1-0.1-0.1-0.2-0.2-0.3c0-0.1-0.1-0.2-0.2-0.3c-0.1-0.1-0.2-0.2-0.2-0.2c0,0-0.1-0.1-0.2-0.2c-0.1-0.1-0.2-0.2-0.2-0.2
				c-1.8-1.5-3.7-2.6-5.6-3.3c-0.3-0.1-0.7,0-1.3,0.1c-1.1,0.4-2.3,1.1-3.7,2.1C343.3,140.7,342.6,141.7,342.6,142.6z M347.8,127.3
				c0,0.5,0.2,1,0.5,1.5c0.3,0.4,0.7,0.7,1.2,0.7c1.3,0,2.6-1,3.9-3.1c1.3-2.1,1.9-4.2,1.9-6.3c0-1.9-0.5-2.8-1.5-2.8
				c-1.7,0-3.2,1.1-4.3,3.2C348.4,122.6,347.8,124.9,347.8,127.3z"/>
		</g>
		<g>
			<path d="M373.5,110.9c0.5,0,0.8,0.4,0.8,1.2c0,0.8-0.2,2.1-0.7,3.9h4.8c0.8,0,1.2,0.2,1.2,0.7c0,0.3-0.2,0.7-0.7,1.2
				c-0.5,0.5-1,0.7-1.5,0.7H373l-3.5,13.2c-0.1,0.5,0,0.8,0.4,0.8c0.7,0,1.5-0.4,2.4-1.2c0.9-0.8,1.4-1.2,1.6-1.2
				c0.2,0,0.3,0.2,0.3,0.6c0,0.9-0.8,2-2.3,3.3c-1.6,1.3-3,2-4.4,2c-1.4,0-2.1-0.7-2.1-2c0-0.2,0.1-0.7,0.3-1.5l3.7-14.2h-2.3
				c-0.7,0-1.1-0.2-1.1-0.7c0-0.4,0.2-0.9,0.6-1.3c0.4-0.5,0.9-0.7,1.4-0.7h1.9l0.7-2.7c0.1-0.4,0.4-0.9,1-1.5
				C372.2,111.2,372.9,110.9,373.5,110.9z"/>
		</g>
		<g>
			<path d="M380.2,130.5l5.4-21.6c0.3-1.2,0.4-2,0.4-2.2c0-0.1-0.6-0.4-1.7-0.8c-1.1-0.4-1.7-0.8-1.7-1c0-0.4,0.8-0.8,2.5-1.2
				c1.7-0.5,2.9-0.7,3.8-0.7c0.8,0,1.2,0.4,1.2,1.2c0,0.7-0.2,2.1-0.7,4.1l-3.2,12.8c-0.2,0.7-0.1,1.1,0.1,1.2
				c0.1,0,0.2-0.1,0.4-0.4c1.6-2.4,3.3-4.1,5.2-5.2c1.9-1,3.5-1.6,4.9-1.6c1,0,1.8,0.4,2.5,1.3c0.7,0.9,1,1.9,1,3
				c0,3.2-0.9,7.1-2.6,11.8c-0.3,0.7-1.2,1.7-2.8,3.1c-1.6,1.4-2.8,2.1-3.7,2.1c-0.5,0-1-0.2-1.5-0.5c-0.5-0.3-0.7-0.7-0.7-1.2
				c0-0.3,0.3-0.8,0.8-1.5s1-1,1.3-1c0.2,0,0.6,0.1,1.1,0.4c0.5,0.2,0.8,0.4,1.1,0.4c0.4,0,0.7-0.3,0.9-0.9
				c1.5-4.6,2.3-8.5,2.3-11.8c0-0.6-0.2-1.1-0.6-1.5c-0.4-0.4-0.8-0.7-1.4-0.7c-1.3,0-2.8,0.9-4.4,2.7s-3,3.9-4.2,6.4
				s-2.4,5-3.4,7.7c-0.3,1-0.7,1.5-1.2,1.5c-0.4,0-0.7-0.1-1.1-0.4c-0.4-0.3-0.5-0.6-0.6-0.8C379.6,134.1,379.8,132.5,380.2,130.5z"
				/>
		</g>
		<g>
			<path d="M405.3,133.1c-0.9-0.8-1.3-1.4-1.3-2s0.3-1,0.9-1.4c0.6-0.4,1.3-0.5,2.2-0.5c1.2,0,2.1,0.4,3,1.2c0.8,0.8,1.2,1.8,1.2,3
				c0,1.5-0.6,3-1.7,4.4c-1.1,1.4-2.4,2.5-3.8,3.2c-1.4,0.8-2.6,1.1-3.7,1.1c-0.7,0-1.1-0.2-1.1-0.6c0-0.2,0.1-0.4,0.2-0.5
				c0.1-0.1,0.5-0.3,1-0.6c1.5-0.8,2.6-1.6,3.4-2.4c0.8-0.8,1.2-1.8,1.2-3C406.6,134.6,406.1,133.9,405.3,133.1z"/>
		</g>
		<g>
			<path d="M442.7,106.8c0.4,0,0.8,0.1,1.2,0.2c0.4,0.2,0.5,0.4,0.5,0.6c0,0.4-0.2,0.7-0.7,0.8c-1.4,0.4-2.4,0.8-2.9,1.2
				c-0.5,0.4-0.9,1.2-1.2,2.3l-4.4,17.6c-0.3,1.1-0.3,1.9-0.1,2.7c0.2,0.7,0.6,1.2,1.2,1.4c0.1,0,0.3,0.1,0.5,0.2
				c0.2,0.1,0.4,0.2,0.5,0.2c0.1,0,0.2,0.1,0.4,0.1c0.2,0.1,0.3,0.1,0.4,0.2c0.1,0.1,0.2,0.1,0.3,0.2c0.1,0.1,0.2,0.2,0.2,0.2
				c0,0.1,0,0.2,0,0.3c0,0.2-0.2,0.4-0.5,0.6c-0.3,0.2-0.6,0.2-1,0.2c0,0-0.8,0-2.3-0.1c-1.5-0.1-2.7-0.1-3.6-0.1
				c-0.9,0-1.8,0-2.7,0.1c-0.9,0.1-1.4,0.1-1.5,0.1c-0.4,0-0.8-0.1-1.1-0.2c-0.3-0.2-0.5-0.4-0.5-0.6s0.1-0.4,0.4-0.6
				c0.2-0.1,0.6-0.3,1.2-0.5c0.5-0.2,0.9-0.3,1.1-0.4c1.2-0.6,2.1-1.9,2.6-4.1L435,112c0.3-1.1,0.2-1.8-0.1-2.3
				c-0.3-0.5-1.1-0.9-2.4-1.2c-0.5-0.1-0.8-0.4-0.8-0.8c0-0.3,0.2-0.5,0.5-0.6c0.4-0.2,0.7-0.2,1.2-0.2c0.6,0,1.5,0,2.7,0.1
				c1.2,0.1,2,0.1,2.6,0.1c0.6,0,1.2,0,2-0.1C441.5,106.8,442.2,106.8,442.7,106.8z"/>
		</g>
		<g>
			<path d="M464,115.1c0.8,0,1.6,0.3,2.3,0.9c0.7,0.6,1,1.2,1,1.9c0,0.3-0.2,0.7-0.5,1.1c-0.3,0.4-0.7,0.6-1,0.6
				c-0.1,0-0.6-0.3-1.6-1c-1-0.6-1.9-1-2.7-1c-0.3,0-0.6,0.2-0.8,0.5c-0.2,0.4-0.3,0.7-0.3,1.1c0,0.2,0,0.4,0.1,0.6
				c0.1,0.2,0.2,0.5,0.3,0.8c0.1,0.3,0.3,0.6,0.4,0.9c0.1,0.3,0.3,0.7,0.6,1.1c0.2,0.4,0.4,0.8,0.6,1.2c0.2,0.3,0.4,0.7,0.7,1.2
				c0.3,0.5,0.5,0.9,0.7,1.2c0.8,1.4,1.2,2.6,1.2,3.5c0,1.9-0.8,3.4-2.5,4.7c-1.7,1.3-3.4,1.9-5.3,1.9c-1,0-1.8-0.3-2.4-0.9
				c-0.7-0.6-1-1.4-1-2.3c0-0.4,0.2-0.7,0.5-1c0.3-0.3,0.7-0.4,1.1-0.4l1.5,1c1,0.6,1.9,1,2.8,1c0.5,0,1-0.2,1.3-0.7
				c0.3-0.4,0.5-1,0.5-1.6c0-1.1-1.3-3.7-3.8-8c-0.4-0.6-0.5-1.3-0.5-2.1c0-1.6,0.7-3,2.1-4.3C460.6,115.7,462.2,115.1,464,115.1z"
				/>
		</g>
		<g>
			<path d="M482.6,130.3c-1.2,1.7-2.7,3.2-4.4,4.3s-3.1,1.8-4.3,1.8c-1.4,0-2.3-0.8-2.7-2.4c-0.4-1.6-0.3-3.5,0.4-5.8l2.1-7.6
				c0.3-1.2,0.3-1.8-0.1-1.8c-0.5,0-1.2,0.4-2.2,1.2c-1,0.8-1.5,1.2-1.7,1.2c-0.4,0-0.5-0.4-0.5-1.2c0-0.5,0.9-1.5,2.8-2.9
				c1.9-1.4,3.4-2,4.6-2c0.9,0,1.4,0.4,1.5,1.2c0.1,0.8,0.1,1.5-0.2,2l-3,10.7c-0.3,0.8-0.3,1.6,0,2.5c0.3,0.9,0.8,1.3,1.6,1.3
				c1.2,0,2.4-0.7,3.7-2.1c1.2-1.4,2.4-3.1,3.4-5.1l0-0.7c0-0.5,0.1-1.1,0.2-1.8c0.1-0.7,0.2-1.4,0.4-2c0.3-1.1,0.8-2,1.4-2.7
				c0.6-0.7,1.3-1.1,2-1.1c0.2,0,0.3,0,0.5,0c0.1,0,0.2,0.1,0.4,0.2c0.2,0.1,0.3,0.3,0.4,0.6c0.1,0.3,0.1,0.8,0.1,1.3
				c0,1.2-0.6,2.9-1.9,5c-0.9,1.5-1.3,3.2-1.3,5c0,0.8,0.2,1.5,0.6,2.2c0.4,0.7,0.9,1,1.6,1c1.4,0,2.7-0.7,4-2
				c1.3-1.3,2.3-2.8,3.1-4.5c0.8-1.7,1.1-3.2,1.1-4.5c0-0.7-0.3-1.5-0.8-2.4c-0.5-0.9-0.8-1.4-0.8-1.6c0-0.4,0.3-1,0.8-1.7
				c0.6-0.7,1.1-1,1.6-1c0.7,0,1.3,0.5,1.8,1.4c0.5,0.9,0.8,1.9,0.8,3.1c0,2.3-0.7,4.7-2.2,7.4c-1.4,2.7-3.2,4.9-5.4,6.7
				c-2.2,1.8-4.2,2.7-6.1,2.7c-0.9,0-1.6-0.5-2.2-1.4c-0.5-0.9-0.8-2-0.8-3.2c0-0.3,0-0.7,0.1-1.2c0.1-0.3,0-0.4,0-0.5
				C482.9,130.1,482.8,130.1,482.6,130.3z"/>
		</g>
		<g>
			<path d="M513.7,115.1c3.1,0,4.6,1.2,4.6,3.7c0,1.8-1.3,3.5-3.9,5c-2.6,1.6-4.9,2.3-7,2.3c-0.2,0-0.4,0.3-0.6,0.8
				c-0.2,0.5-0.2,1.1-0.2,1.6c0,1.2,0.2,2.3,0.7,3.2c0.5,0.9,1.2,1.3,2.2,1.3c0.6,0,1.3-0.2,2.1-0.6c0.7-0.4,1.4-0.7,1.9-1.1
				c0.5-0.4,0.8-0.6,0.9-0.6c0.4,0,0.7,0.4,0.7,1.2c0,0.7-0.8,1.6-2.5,2.7c-1.7,1.1-3.4,1.6-5.1,1.6c-1.6,0-2.8-0.7-3.7-2.1
				c-0.9-1.4-1.3-3-1.3-4.8c0-3.5,1.2-6.8,3.6-9.8C508.4,116.6,510.9,115.1,513.7,115.1z M507.6,124c0,0.2,0.1,0.3,0.3,0.3
				c1.8,0,3.3-0.7,4.7-2.1c1.4-1.4,2.1-2.8,2.1-4.1c0-0.8-0.6-1.2-1.7-1.2c-0.8,0-1.9,0.9-3.3,2.6S507.6,122.9,507.6,124z"/>
		</g>
		<g>
			<path d="M540.3,116.2l-3.9,15.7c-0.1,0.5,0,0.8,0.4,0.8c0.7,0,1.5-0.4,2.4-1.2c0.9-0.8,1.4-1.2,1.6-1.2c0.2,0,0.3,0.2,0.3,0.6
				c0,0.9-0.8,2-2.3,3.3c-1.6,1.3-3,2-4.4,2c-0.6,0-1.1-0.2-1.3-0.6c-0.3-0.4-0.4-0.9-0.4-1.5c0-0.6,0.1-1.2,0.2-1.9
				c0.1-0.7,0.3-1.3,0.4-1.9c0.1-0.3,0.1-0.4,0.1-0.5c0-0.2,0-0.4-0.1-0.4c-0.1,0-0.2,0-0.3,0.2c-3.3,4.4-6.8,6.7-10.6,6.7
				c-1,0-1.9-0.2-2.5-0.7c-0.6-0.5-1-1.1-1-2c0-2.2,1-4.7,3.1-7.4s4.3-5.1,6.9-7c2.5-1.9,4.5-2.8,6-2.8c0.3,0,0.5,0,0.8,0.1
				c0.3,0.1,0.4,0.1,0.5,0.1c0.3,0,0.7-0.5,1.2-1.6c0.2-0.4,0.4-0.6,0.9-0.6c0.9,0,1.5,0.2,1.9,0.5S540.4,115.8,540.3,116.2z
				 M523.3,131.6c0,0.9,0.3,1.3,0.9,1.3c1.2,0,2.8-0.8,4.6-2.4c1.8-1.6,3.4-3.4,4.7-5.4c1.3-2,1.9-3.4,1.9-4.5
				c0-0.4-0.2-0.7-0.6-1.1c-0.4-0.4-0.8-0.6-1.3-0.6c-0.7,0-1.9,0.8-3.6,2.4c-1.6,1.6-3.2,3.4-4.5,5.4
				C524,128.9,523.3,130.5,523.3,131.6z"/>
		</g>
		<g>
			<path d="M556.5,119.8c-0.8,0-2.3,1.9-4.6,5.7s-3.9,6.9-5.1,9.4c-0.4,1-0.8,1.5-1.2,1.5c-0.4,0-0.9-0.1-1.4-0.5
				c-0.6-0.3-0.8-0.6-0.8-0.7c0-0.4,0.2-1.3,0.7-2.6l4.3-12c0.2-0.4,0.3-0.8,0.2-1.3s-0.2-0.7-0.6-0.7c-0.7,0-1.5,0.4-2.4,1.1
				c-0.9,0.7-1.4,1.1-1.5,1.1c-0.4,0-0.5-0.3-0.5-1c0-0.7,0.7-1.6,2.2-2.8c1.5-1.2,2.9-1.8,4.3-1.8c0.5,0,1,0.3,1.3,0.9
				c0.4,0.6,0.5,1.2,0.3,1.9c-0.3,1.3-0.8,2.9-1.5,5c-0.1,0.2,0,0.3,0.2,0.4c0.2,0.1,0.3,0.1,0.4-0.1c2.4-3.4,4.1-5.6,5.1-6.6
				c1-1,2.1-1.5,3.1-1.5c0.6,0,1.1,0.1,1.6,0.4c0.5,0.3,0.8,0.7,0.8,1.2c0,0.9-0.3,1.8-1,2.7c-0.7,0.9-1.2,1.4-1.7,1.4
				c-0.4,0-0.8-0.2-1.3-0.5S556.8,119.8,556.5,119.8z"/>
		</g>
		<g>
			<path d="M581.3,119.2c1.3-1.2,2.7-2.2,4.3-3c1.5-0.8,2.8-1.2,3.8-1.2c1,0,1.8,0.4,2.5,1.3c0.7,0.9,1,1.9,1,3
				c0,2.8-0.8,5.5-2.4,8.2c-1.6,2.7-3.5,4.8-5.7,6.4c-2.2,1.6-4.3,2.4-6.2,2.4c-1.2,0-2.2-0.5-3.1-1.4s-1.4-2-1.4-3.2
				c0-0.8,0.2-1.9,0.6-3.5l4.8-19.4c0.3-1.2,0.4-2,0.4-2.2c0-0.1-0.6-0.4-1.7-0.8s-1.7-0.8-1.7-1c0-0.4,0.8-0.8,2.5-1.2
				c1.7-0.5,2.9-0.7,3.8-0.7c0.8,0,1.2,0.4,1.2,1.2c0,0.7-0.2,2.1-0.7,4.1l-2.5,10.2c-0.1,0.4-0.1,0.7-0.1,0.9
				C580.7,119.5,580.9,119.5,581.3,119.2z M577.8,130.7c0,0.8,0.2,1.4,0.7,2c0.5,0.6,1,0.8,1.6,0.8c2,0,4-1.4,5.9-4.2
				c1.9-2.8,2.8-5.8,2.8-8.9c0-1.5-0.5-2.3-1.4-2.3c-1.5,0-3,0.8-4.6,2.4c-1.6,1.6-2.8,3.4-3.7,5.4
				C578.2,127.9,577.8,129.5,577.8,130.7z"/>
		</g>
		<g>
			<path d="M615.9,116.2L612,132c-0.1,0.5,0,0.8,0.4,0.8c0.7,0,1.5-0.4,2.4-1.2c0.9-0.8,1.4-1.2,1.6-1.2c0.2,0,0.3,0.2,0.3,0.6
				c0,0.9-0.8,2-2.3,3.3c-1.6,1.3-3,2-4.4,2c-0.6,0-1.1-0.2-1.3-0.6c-0.3-0.4-0.4-0.9-0.4-1.5c0-0.6,0.1-1.2,0.2-1.9
				c0.1-0.7,0.3-1.3,0.4-1.9c0.1-0.3,0.1-0.4,0.1-0.5c0-0.2,0-0.4-0.1-0.4c-0.1,0-0.2,0-0.3,0.2c-3.3,4.4-6.8,6.7-10.6,6.7
				c-1,0-1.9-0.2-2.5-0.7c-0.6-0.5-1-1.1-1-2c0-2.2,1-4.7,3.1-7.4s4.3-5.1,6.9-7c2.5-1.9,4.5-2.8,6-2.8c0.3,0,0.5,0,0.8,0.1
				c0.3,0.1,0.4,0.1,0.5,0.1c0.3,0,0.7-0.5,1.2-1.6c0.2-0.4,0.4-0.6,0.9-0.6c0.9,0,1.5,0.2,1.9,0.5S616,115.8,615.9,116.2z
				 M599,131.6c0,0.9,0.3,1.3,0.9,1.3c1.2,0,2.8-0.8,4.6-2.4c1.8-1.6,3.4-3.4,4.7-5.4c1.3-2,1.9-3.4,1.9-4.5c0-0.4-0.2-0.7-0.6-1.1
				c-0.4-0.4-0.8-0.6-1.3-0.6c-0.7,0-1.9,0.8-3.6,2.4c-1.6,1.6-3.2,3.4-4.5,5.4C599.7,128.9,599,130.5,599,131.6z"/>
		</g>
		<g>
			<path d="M626.8,119.2c1.3-1.2,2.7-2.2,4.3-3c1.5-0.8,2.8-1.2,3.8-1.2c1,0,1.8,0.4,2.5,1.3c0.7,0.9,1,1.9,1,3
				c0,2.8-0.8,5.5-2.4,8.2c-1.6,2.7-3.5,4.8-5.7,6.4c-2.2,1.6-4.3,2.4-6.2,2.4c-1.2,0-2.2-0.5-3.1-1.4s-1.4-2-1.4-3.2
				c0-0.8,0.2-1.9,0.6-3.5L625,109c0.3-1.2,0.4-2,0.4-2.2c0-0.1-0.6-0.4-1.7-0.8s-1.7-0.8-1.7-1c0-0.4,0.8-0.8,2.5-1.2
				c1.7-0.5,2.9-0.7,3.8-0.7c0.8,0,1.2,0.4,1.2,1.2c0,0.7-0.2,2.1-0.7,4.1l-2.5,10.2c-0.1,0.4-0.1,0.7-0.1,0.9
				C626.2,119.5,626.4,119.5,626.8,119.2z M623.3,130.7c0,0.8,0.2,1.4,0.7,2c0.5,0.6,1,0.8,1.6,0.8c2,0,4-1.4,5.9-4.2
				c1.9-2.8,2.8-5.8,2.8-8.9c0-1.5-0.5-2.3-1.4-2.3c-1.5,0-3,0.8-4.6,2.4c-1.6,1.6-2.8,3.4-3.7,5.4
				C623.8,127.9,623.3,129.5,623.3,130.7z"/>
		</g>
		<g>
			<path d="M652.5,115.1c3.1,0,4.6,1.2,4.6,3.7c0,1.8-1.3,3.5-3.9,5c-2.6,1.6-4.9,2.3-7,2.3c-0.2,0-0.4,0.3-0.6,0.8
				c-0.2,0.5-0.2,1.1-0.2,1.6c0,1.2,0.2,2.3,0.7,3.2c0.5,0.9,1.2,1.3,2.2,1.3c0.6,0,1.3-0.2,2.1-0.6c0.7-0.4,1.4-0.7,1.9-1.1
				c0.5-0.4,0.8-0.6,0.9-0.6c0.4,0,0.7,0.4,0.7,1.2c0,0.7-0.8,1.6-2.5,2.7c-1.7,1.1-3.4,1.6-5.1,1.6c-1.6,0-2.8-0.7-3.7-2.1
				c-0.9-1.4-1.3-3-1.3-4.8c0-3.5,1.2-6.8,3.6-9.8C647.2,116.6,649.7,115.1,652.5,115.1z M646.4,124c0,0.2,0.1,0.3,0.3,0.3
				c1.8,0,3.3-0.7,4.7-2.1c1.4-1.4,2.1-2.8,2.1-4.1c0-0.8-0.6-1.2-1.7-1.2c-0.8,0-1.9,0.9-3.3,2.6
				C647.1,121.4,646.4,122.9,646.4,124z"/>
		</g>
		<g>
			<path d="M666.8,106.5c-0.7-0.8-1.1-1.4-1.1-2s0.3-1,0.9-1.4s1.3-0.5,2.2-0.5c1.1,0,2,0.4,2.7,1.2s1,1.8,1,3
				c0,2.3-0.9,4.2-2.8,5.9c-1.9,1.6-3.7,2.5-5.4,2.5c-0.7,0-1.1-0.2-1.1-0.6c0-0.2,0.1-0.4,0.2-0.5c0.1-0.1,0.5-0.3,1-0.6
				c1.3-0.7,2.3-1.4,2.8-2s0.8-1.6,0.8-2.9C668,108,667.6,107.3,666.8,106.5z M675,106.5c-0.7-0.8-1.1-1.4-1.1-2s0.3-1,0.9-1.4
				s1.3-0.5,2.2-0.5c1.1,0,2,0.4,2.7,1.2s1,1.8,1,3c0,2.3-0.9,4.2-2.8,5.9c-1.9,1.6-3.7,2.5-5.4,2.5c-0.7,0-1.1-0.2-1.1-0.6
				c0-0.2,0.1-0.4,0.2-0.5c0.1-0.1,0.5-0.3,1-0.6c1.3-0.7,2.3-1.4,2.8-2s0.8-1.6,0.8-2.9C676.1,108,675.7,107.3,675,106.5z"/>
		</g>
	</g>
	<g>
		<rect x="595" y="613.4" class="st5" width="312" height="25"/>
	</g>
	<g>
		<g>
			<path d="M907.2,603.6l-110.9,0.6l-110.8,0.4l-110.8,0.3L464,605l-110.8,0.1H242.5l-110.7-0.2L21,604.6h-1.2v-1.2l0.4-146.5
				l0.2-146.5l-0.1-146.5L19.9,17.4v-1.1H21l221.5-0.6L464,15.5l221.5-0.2L907,15.4h2v2l-0.6,293l-0.5,146.5L907.2,603.6z
				 M906.8,603.2l-0.7-146.3l-0.5-146.5l-0.6-293l2,2l-221.5,0.1L464,19.4l-221.5-0.3L21,18.5l1.1-1.1l-0.4,146.5l-0.1,146.5
				l0.2,146.5l0.4,146.5l-1.2-1.2l110.7-0.3l110.7-0.2h110.7l110.8,0.1l110.7,0.1l110.8,0.3l110.8,0.4L906.8,603.2z"/>
		</g>
	</g>
</g>
</svg>
