<svg id="Layer_1" data-name="Layer 1" xmlns="http://www.w3.org/2000/svg" viewBox="0 0 500 500"><title>1</title><path d="M73.08,3.75c20.19,0,40.39.12,60.58,0,16.46-.13,32.92-0.8,49.38-0.85,10.27,0,20.54.87,30.81,1,15.22,0.19,30.45.08,45.67,0.06q51.65-.06,103.3-0.18c16-.06,31.91-0.61,47.87-0.54,21.54,0.1,43.07.56,64.61,0.93,6.43,0.11,12.86.37,19.28,0.66a15.33,15.33,0,0,1,3.39.95c-0.43,1-.93,2-1.26,3a8.62,8.62,0,0,0-.55,2.8c0.7,23.26,1.74,46.51,2.1,69.77q0.71,45.69.55,91.38c-0.07,35.3-.75,70.6-0.74,105.9,0,32.08.76,64.16,0.9,96.24,0.13,29.84,0,59.68-.23,89.52,0,7.3-.56,14.61-1.12,21.9-0.47,6.1-2.59,9.65-9.25,9.3-13.95-.73-27.93-0.92-41.9-1.09-10.39-.13-20.8-0.07-31.19.24-12,.36-23.93,1.51-35.9,1.57-17.7.09-35.4-.63-53.1-0.72-19.8-.1-39.59.17-59.39,0.18-18,0-35.9-.31-53.85-0.1-10.74.12-21.47,1.26-32.21,1.46-21.91.4-43.83,0.36-65.74,0.71-16.57.26-33.14,1.11-49.71,1.18-8.39,0-16.78-1.38-25.19-1.59-10.75-.27-21.52,0-32.28.1-3.59,0-4.35-.73-4.24-4.22C4,482.54,4.91,471.74,4.31,461c-1.45-25.85-2.37-51.68-1.86-77.57Q3.25,342.24,3.63,301c0.29-33.56.08-67.12,0.59-100.68,0.31-20.55,1.69-41.07,2.36-61.62,0.4-12.13.61-24.27,0.47-36.4C6.84,83.5,6.23,64.7,5.84,45.89c-0.25-12-.49-24-0.58-36,0-5,1.67-6.33,6.53-6.31,20.43,0.05,40.86,0,61.28,0V3.75ZM51.23,9.22V8.84c-7.3,0-14.6-.11-21.9,0C23.54,9,17.74,9.32,12,9.86a3.83,3.83,0,0,0-2.66,2.57C9,17.1,9,21.82,9.11,26.51c0.25,8,.81,16.06,1.05,24.1,0.4,13.24.83,26.48,0.93,39.72,0.12,15.6.21,31.21-.25,46.8-0.54,18.43-1.92,36.83-2.49,55.25C7.92,206.23,8.21,220.11,8.15,234,8,261.35,7.82,288.71,7.73,316.07c0,11.62.48,23.26,0.09,34.87-0.49,14.46-2.4,28.9-2.37,43.34,0,17.17,1.74,34.33,2.25,51.51,0.41,14,.16,28,0.11,42,0,4.35.23,4.48,4.56,4.43,10-.12,20.08-0.57,30,0.19,15.45,1.17,30.84,2.24,46.36,1.32,14.33-.85,28.7-1.35,43.05-1.59,21.05-.34,42.11-0.2,63.16-0.49,11.71-.16,23.4-1,35.11-1.09,15.72-.13,31.45.21,47.18,0.22,11.27,0,22.53-.36,33.8-0.25,23.88,0.23,47.76,1,71.64.87,12.08-.05,24.15-2,36.24-2.19,14.22-.25,28.46.4,42.7,0.76,9.28,0.24,18.55.62,27.82,1.05,2.41,0.11,3.43-.92,3.62-3.14,0.3-3.33.8-6.65,0.86-10q0.36-19.81.47-39.62c0.08-18.43,0-36.87,0-55.3,0-23.65-.05-47.31-0.22-71-0.12-17-.7-33.93-0.68-50.89,0-28.73.45-57.46,0.6-86.19q0.23-44.77.21-89.54c0-16.1-.32-32.21-0.64-48.31-0.16-8.16-1-16.31-.85-24.45,0-3.16-.67-3.85-3.5-3.87-25.14-.18-50.28-0.53-75.42-0.64-13.12-.06-26.24.33-39.36,0.42-16.45.11-32.9,0.1-49.35,0.15q-27.49.08-55,.19c-13.49.06-27,.17-40.48,0.24-8.41,0-16.82.18-25.22,0.06C192.9,9,181.28,8.39,169.65,8.38c-12.62,0-25.24.51-37.87,0.67C120,9.2,108.28,9.2,96.52,9.22Q73.88,9.26,51.23,9.22Z"/><path d="M309,384.12l-10.58,4.79-0.68-4.36c-3.23.59-6.31,1.29-9.43,1.69-4.28.55-8.58,1.08-12.88,1.2-2.31.07-3.92,0.42-4.28,2.92-0.39,2.78-2.06,3.83-4.73,4.29-3.28.56-6.48,1.61-9.72,2.45-5.86,1.53-9.68,0-12.12-5.45-1.94-4.35-3.11-9-4.94-13.45-0.47-1.13-2.16-1.76-3.89-3.07a1.83,1.83,0,0,1,.25-1.43c2.71-2.79,1.87-5.77.9-8.92a14.19,14.19,0,0,1-.67-5.11c0.3-4.1,2.32-5.22,6.11-3.52a7.52,7.52,0,0,0-.37-1c-0.87-1.62-2.87-3.88-2.39-4.7,0.87-1.49,3.19-2.17,4.95-3.11,0.4-.22,1,0,1.44-0.22,3.56-1.66,6.9-2.19,9.48,2.33,2.33-4.47,5.5-4.14,9-2.91,3.82,1.34,4.31,4.39,4.34,7.76,0,2.58,0,5.16,0,8,1.09,0.08,2.16-.11,2.92.3a3.71,3.71,0,0,1,1.19,2c-3.23,2.52-1,5.54-.61,8.19,1,6,1.07,5.64,7,4.54,8.51-1.58,14.38-7.86,21.7-11.53,0.55-.27.73-1.86,0.61-2.77-0.46-3.5-1-7-1.71-10.46a6.87,6.87,0,0,0-1.35-3.23c-3.89-4.27-7.17-8.77-7.9-14.75-0.3-2.44-1.66-3.32-3.79-1.46-1.77,1.55-3.45,3.2-5.22,4.74-1,.83-2,1.54-3,2.31l-1-.5c0.79-4.42,1.73-8.82,2.3-13.26a13.52,13.52,0,0,0-.54-5.89c-2.91-8.5-3.38-16.65,2.29-24.33q11.1-15.05,22.09-30.19a9.11,9.11,0,0,0,.57-1.82c-4,.21-7.78.3-11.5,0.62-2.58.23-5.13,0.9-7.72,1.11-0.91.07-1.88-.63-2.82-1,0.69-.75,1.23-1.83,2.08-2.19,5.68-2.45,11.29-5.19,17.18-7,11.2-3.43,22.56-6.37,33.9-9.33,3.2-.83,6.59-1,9.88-1.48,1.13-.18,2.24-0.54,4.48-1.1-2.62-2.42-4.56-4-6.28-5.87a15.46,15.46,0,0,1-1.85-3.25c1.35-.06,2.84-0.53,4-0.12,9.13,3.14,18.14,6.54,25.65,12.92a10.63,10.63,0,0,0,2.58,1c0.14-1.82.17-3.34,0.41-4.82a6.75,6.75,0,0,1,.94-1.85,14,14,0,0,1,2,1.18,3.63,3.63,0,0,1,.69,1.3c2.75,5.84,2.73,5.79,8.9,3.51,2-.73,4.1-1.11,7.13-1.9-1.62,5.06-6.23,5.29-8.23,8.12,5.22,3.78,10.79,7,15.4,11.35s8,9.47,12,14.26l-0.91,1.11-13.1-6.69-0.77,1c2.57,5.93,5.32,11.78,7.66,17.8a142.86,142.86,0,0,1,8.3,34.88c0.15,1.22-.78,2.56-1.21,3.85a21.86,21.86,0,0,1-2.92-2.47c-2.2-2.61-4.26-5.33-6.38-8l-1.45,0c-2.84,7.22-6.49,14.25-8.28,21.73s-1.76,15.48-2.55,23.52c-5.8-2.11-8.5-7.52-12.26-11.73l-1,.2a15.52,15.52,0,0,0-.39,3.42c1.1,10.42,2.34,20.83,3.43,31.26a7,7,0,0,1-3.67,7.17,4.71,4.71,0,0,0-2,3.18q-0.85,12.58-1.23,25.19a7.55,7.55,0,0,0,1.65,4c1.57,2.27,1.75,4.11-1.06,5.36-2.49,1.11-4.2,5.33-8,1.59-0.57,1.65-1.45,3-1.41,4.29,0.1,3.13.23,6-3.7,7-0.42.11-.64,1.75-0.61,2.67,0.22,6.42.54,12.84,0.83,19.25,0.06,1.24.2,2.47,0.17,3.71-0.11,5.62-2.8,7.09-8.63,4.51,0.34-.6.54-1.5,1-1.71,2.06-.91,1.73-2.27,1.17-4-2.31-7-3.72-14.51-7.06-21-2.12-4.13-2.46-8.27-3.7-12.38-0.27-.89-2-1.86-3.13-1.88a156,156,0,0,0-15.59.45c-1,.09-2.28,2-2.61,3.21-0.64,2.42-.73,4.76-3.86,5.69-0.84.25-1.43,2.69-1.44,4.13-0.05,7.18.22,14.35,0.13,21.53,0,1.33-.89,3.44-1.89,3.81-2.22.83-4.76,0.78-7.17,1.1,0.2-.91.18-2.46,0.64-2.63,2-.72,2.14-1.94,1.8-3.78-1.38-7.53-2.13-15.21-4-22.61-4.22-16.51-3-33-.87-49.55C307.63,393.57,308.25,389.25,309,384.12Zm51.93-47.31c-2.23-.46-4.11-0.55-5.74-1.23-3.72-1.57-7.91-2.73-10.85-5.28-12.39-10.77-12.65-28.3-.53-39.43,3-2.75,3.68-4.84,2.19-8.34-1.69-4-3-8.13-4.61-12.37a30.13,30.13,0,0,0-9.8,14.74c-0.39,1.21-1.57,2.17-2.39,3.25A23.56,23.56,0,0,1,327,284.6a17.47,17.47,0,0,1-.63-3.65c-0.48-3-1-6-1.48-9.2-4.85,1.72-7.41,5.33-10.11,8.86-1.88,2.45-1.65,3.66,1.24,5.29,12.17,6.85,15.53,23.34,9.39,33.19-5.61,9-17.33,15.15-28.49,13.85-1.41-.17-2.83-0.29-4.46-0.45,0,1,0,1.46,0,1.93a4.61,4.61,0,0,0,.32,1.45c3.79,8,8.91,14.75,17.15,18.78,10.51,5.14,21.61,6.86,33.14,6.18,8.75-.51,17.13-2.28,24.5-7.52,4.13-2.93,4.79-7,5.25-12-1.76.19-3.19,0-4.34,0.54-3.15,1.38-6.15,3.11-9.29,4.53a12.75,12.75,0,0,1-3.35.54c0.12-1.09-.08-2.35.42-3.22C357.56,341.45,359.12,339.42,360.89,336.81Zm2.51-51.3c-4.26.95-7.63,1.29-10.69,2.45-10.51,4-15.47,11.6-15.56,23.15a22,22,0,0,0,14.32,20.57c5.84,2.27,11.6,3.67,17.1-1.81,3.79-3.78,8.59-6.6,13.1-9.61,4.89-3.25,7-8,5.5-13.69-0.76-3-1.28-6.15-2.71-8.8s-3.75-4.74-5.81-7a2.16,2.16,0,0,0-1.95-.3c-2.79,3.69-4.5.54-6.59-.87C367.84,288.1,365.41,286.74,363.4,285.51Zm-59.28-1.28c-3,1.17-6.14,2.15-9.05,3.56-7.64,3.7-13.6,9-15.31,17.81-2.1,10.89,2.71,20.44,13.89,24.17,7.78,2.6,14.6-.22,21.17-4,9.05-5.2,12.87-14.77,10.14-25.12C322.53,291.48,313.86,284.86,304.13,284.23Zm65.1,73.08c-5.56,1.86-11.06,3.9-16.69,5.51-3,.86-5.58,1.85-7.92,4.2-3.71,3.73-9.34,2.64-12.29-1.72a4.26,4.26,0,0,0-2.21-1.7,47.5,47.5,0,0,0-8-1.48,6.58,6.58,0,0,0-4,1.29c-3.61,2.6-.26,5.33.14,8,0.31,2.08,1.61,3.08,3.89,3.13,12,0.25,23.92.7,35.88,0.8,1.13,0,3.32-2,3.24-2.87-0.36-4,1.91-5,5.05-5.35,1.6-.19,3.2-0.36,4.8-0.47,5.62-.39,6.57-2.38,3.28-7.83l-4.51,5-1.06-.34ZM269.6,370.14c-3,.66-5.38,1.3-7.83,1.71a15.39,15.39,0,0,1-4.07,0c-3.73-.39-6.06,1.31-7.65,4.58a12.92,12.92,0,0,1-2.53,2.75c-0.86-1-1.69-2-2.58-2.95-0.66-.71-1.38-1.37-2.07-2-0.32,1-1.11,2.06-.87,2.85a124.32,124.32,0,0,0,4.36,12.87c2.1,5,4.5,5.95,9.74,4.57,2.39-.63,4.7-1.56,7.1-2.13,5.14-1.23,6.67-2.71,6.93-7.93,0.21-4.19.06-8.4,0-12.6A4.19,4.19,0,0,0,269.6,370.14Zm-30.66-11.38c0,1.72-.08,3.29,0,4.85,0.15,2.52.74,4.13,4.09,3.49,3.59-.69,7.35-0.5,11-0.69,10-.53,12.64-3.44,11.7-12.92,0-.25,0-0.5-0.07-0.74-0.51-3-2.24-4.41-4.77-4.19-1,2.65-1.16,5.79-2.75,6.9-4.14,2.91-8.23,7.17-14.31,4.19C242.53,359,240.81,359.06,238.94,358.75ZM365.35,407l-0.47.06c0.88,7.71,1.67,15.43,2.75,23.11,0.13,0.91,1.84,1.6,2.81,2.39,0.57-1.24,1.45-2.45,1.62-3.74s-0.54-2.88-.48-4.31c0.35-7.62.7-15.25,1.31-22.85,0.23-2.85-.64-3.48-3.4-3.65-3.44-.21-4.44,1.07-4.16,4.19C365.47,403.76,365.35,405.37,365.35,407Zm-12.56-10,0-.52a46.63,46.63,0,0,0,6.67-.09c1.17-.17,3.06-1.21,3.12-2,0.2-2.45-1.78-2.3-3.64-2.31-9.62,0-19.24,0-28.86-.38-5.43-.19-10.83-1.09-16.25-1.41-1-.06-2.08,1.13-3.12,1.74,0.7,0.5,1.37,1.39,2.11,1.46C326.17,394.7,339.48,395.82,352.79,397Zm9.87,16.42-1-1c-2.58,0-5.18.15-7.75,0-13.41-.9-26.82-1.9-40.24-2.8a45.37,45.37,0,0,0-5.19.22c0.41,3.15,3.2,2.49,5.13,3.2a4.45,4.45,0,0,0,1.1.16c6.4,0.62,12.79,1.46,19.2,1.78,8.62,0.44,17.26.54,25.89,0.58C360.76,415.48,361.71,414.11,362.67,413.39Zm-84-28.3,0.06,0.27c5.2-.93,10.42-1.79,15.6-2.85,1.76-.36,3.5-1.41,2.33-3.62-0.92-1.74-.9-5.13-4-4.27-6.12,1.69-12.12,3.82-18.09,6-0.79.29-1.41,1.87-1.49,2.91,0,0.46,1.41,1.27,2.29,1.5A13.84,13.84,0,0,0,278.65,385.08Zm79,85.16,1.37-.4c-0.19-4.15-.42-8.3-0.56-12.45a74.87,74.87,0,0,0-.26-8.45c-0.12-.79-2.12-1.93-3.1-1.78-1.19.17-3.26,1.79-3.12,2.34C353.64,456.46,355.67,463.34,357.61,470.24Zm-43.22-1.3,1.69-.06c0-6.86-.12-13.72.06-20.57,0.07-2.63-1.39-3.2-3.35-3.37-2.7-.24-2.65,1.78-2.41,3.49,0.58,4.13,1.29,8.25,2.08,12.35C313,463.53,313.74,466.23,314.39,468.95Zm42.89-196.88-1.21-.15-4.76,13.5,12.62-1.94ZM247.37,375.83c3.45-6.87,9.07-6.56,14.73-6.18a2.89,2.89,0,0,0,1.81-.16,13.21,13.21,0,0,0,1.74-2.39c-0.8-.26-1.66-0.85-2.4-0.73-3.38.58-6.72,1.47-10.1,2.05s-7.08.93-10.6,1.53c-0.53.09-.91,1-1.36,1.56C244.84,370.52,247.34,370.61,247.37,375.83Zm66.47,54c12.49,4,25.16,3.21,37.86,1.79Zm-3.41-156.7-1-.49-8.13,9.88h7.5Zm58.43,109.64c2.73-.29,5.21-0.42,7.63-0.88,0.72-.14,1.26-1.2,1.89-1.83-0.67-.58-1.32-1.63-2-1.65a92.63,92.63,0,0,0-9.62.29,2.29,2.29,0,0,0-1.55,1.58,2.51,2.51,0,0,0,1,2.06A7.33,7.33,0,0,0,368.86,382.79Zm6.2-106.62c-2.43,7.35-.57,12.16,5.93,12Zm-133,77c3.28-1.73,5.48-1.23,6.24,3.48l3.79-8.1-1.05-.68L248.48,351C242.32,349.15,242.32,349.15,242,353.16Zm59.13,31.57c1.92-4.21-2-12.57-4.94-12.8Zm33.93-20.48c2.34,3.17,4.72,3.17,7.85,0h-7.85Zm30.68,29.44-0.1,1.58,7.6-.53,0-1h-7.47Z"/><path d="M99.63,316.41c-0.49,2.32-.84,5.25-3.92,4.85A11.21,11.21,0,0,1,89,318.11c-1.77-2.06-1-5,1-7.09,0.83-.88,2-1.49,2.76-2.39,0.62-.7,1.45-1.77,1.3-2.48A31.25,31.25,0,0,1,95.69,288c1.64-4.42,1.59-9.45,3-14a43.1,43.1,0,0,1,15.2-21.9,6.63,6.63,0,0,0,1-1.56C87.58,251.83,77,226,87.92,211.83a4.44,4.44,0,0,1,1.79,1c3.16,5.19,8.52,5.7,13.72,6.95,9.24,2.23,17.72,6,21.63,15.56,1.06,2.59.86,5.69,1.25,8.6,3.83-.83,7.66-1.68,11.49-2.48,13.65-2.88,26.46-.66,38.71,6,7.68,4.17,15.14,8.52,20.36,15.73,1.48,2,2.25,4.6,3.49,6.84a20.82,20.82,0,0,0,2.72,3.87c6.72,7.44,10.11,16,9.19,26.13-0.63,7-4.33,12.16-9.57,16.55a12.49,12.49,0,0,0-3.44,4.88A43.63,43.63,0,0,1,183,341.65c-7.88,5.52-8.06,3.18-3.16,12.24,3.28,6.07,7.11,11.85,10.86,17.66,0.78,1.21,1.71,3.73,3.88,1.91,2-1.64.7-3.28-.78-4.67a2.69,2.69,0,0,1-.53-0.9l7.85-6.23a18.91,18.91,0,0,1,.79,2.48c0.35,2.06,1.2,2.78,3.34,1.86,0.84-.36,2,0.1,3.07.18a10.53,10.53,0,0,0-.6,2.54,4.62,4.62,0,0,0,.64,2.83c2.29,2.54,1.21,3.86-1.54,4.21s-3.56,2.09-4.56,4.22a86.49,86.49,0,0,1-5.88,11.08c-3.05,4.65-6.63,4.89-10.87,1.22-1.19-1-2.34-2.1-3.84-3.45a13.71,13.71,0,0,0-.64,2.42c-0.38,8-.85,16-1,24.06a33,33,0,0,0,1.18,8.39c1.25,5.06,1.1,10.17,1.43,15.3,0.49,7.71,2.42,15.36,4.18,22.94,0.43,1.87,2.6,3.33,4,5a7.79,7.79,0,0,1-10.73-3.72c-2.44-6.07-4.53-12.28-6.71-18.45-0.91-2.56-.84-5.78-4.76-6-0.45,0-1-1-1.21-1.69-0.89-2.82-2.05-5.64-2.41-8.54-0.51-4.19-2.8-5.29-6.54-5-6.52.51-13.07,0.73-19.56,1.46-3.92.44-6.52,2.54-7.73,6.85-1.09,3.87-3.89,7.22-5.38,11-2.62,6.66-4.8,13.5-7.18,20.25-1.68,4.77-4.81,6.09-10,4.26,6.05-7.38,2.69-16.66,4.94-24.83,0.88-3.19,1.68-6.68-.51-10-0.67-1-.19-2.91,0-4.38,0.6-5.63,1.08-11.28,2-16.85,0.74-4.41-.49-7.68-4.12-10.15a2,2,0,0,1-.86-0.65c-0.28-4.79-4.22-3.36-6.92-4.41a64,64,0,0,1-13.41-6.75c-4.12-2.86-4.44-7.52-2.92-12.11,2.35-7.11,7-12.78,12.14-18,5.33-5.34,11.08-10.23,18.11-13.33a8.84,8.84,0,0,0,1.82-1.69c-1.53-1.35-2.89-2.53-4.23-3.73-6.31-5.62-11.31-12-13.05-20.58-0.25-1.23-1.32-2.28-2-3.4a23.08,23.08,0,0,0-2.71-3.24c-1-.79-2.65-1.87-3.35-1.51-1,.52-2.1,2.42-1.84,3.36a4.49,4.49,0,0,0,3.1,2.76C96.33,318,98,316.95,99.63,316.41ZM195.42,321a1.7,1.7,0,0,0-.61-0.36,5.92,5.92,0,0,0-1.47.06,31.89,31.89,0,0,1-27.41-7.18c-6.86-5.75-10.88-12.75-9-22.1,1.76-8.87,7.49-14.87,14.56-19.79a22.33,22.33,0,0,1,18.71-3.69c2.12,0.51,4.29.8,6.51,1.21-1.42-7.64-16.59-18.15-26-20.78l1.54,3.46-0.48.88c-3.95-4.75-8.38-7.28-14.27-3.8l2.68,3.7a4,4,0,0,1-1.56,0c-3.75-4.09-7.84-2.82-12.07-.92a61,61,0,0,1-6.28,2.23c-3,1-4.54,2.83-4.25,6.08,0.11,1.25,0,2.52,0,3.77l-1.6.29-1.86-6.79c-6,3.74-13.77,4.31-16.16,11.49-1.41-.2-3.07-1-3.84-0.46a145.08,145.08,0,0,0-11.8,9c-1.11.93-1.49,2.73-2.2,4.12l1,0.65c1.2-1,2.49-1.86,3.58-2.94,6.48-6.45,14.28-6.94,22.28-4.26a31.63,31.63,0,0,1,10.39,6.28c5.77,5.06,9.82,11.48,8.91,19.47a25,25,0,0,1-21.39,21.66c-6,.74-12.12,0-18.1-0.08,1,8.85,16.08,26.37,41.14,27.76C165.64,351,190.43,336.18,195.42,321Zm-17.55,59.88,1.23-.22c-2-9.77-3.86-19.55-5.95-29.29-0.22-1-1.93-2.75-2.32-2.59-4.38,1.73-9.24,3-12.77,5.92-4.65,3.81-8.47,4.35-12.88-.07a9.52,9.52,0,0,0-3.69-2.13c-6.07-2-12.17-3.92-18.31-5.69a4.8,4.8,0,0,0-3.59.56c-0.48.32-.36,2.14,0,3.07a37.53,37.53,0,0,1,2,20.37,3.78,3.78,0,0,1-2.35,2.58c-2.53.45-2.91,1.6-2.4,3.87,2.33,10.25,2.16,20.61,1,31-0.23,2.08-.38,4.18-0.59,6.27s0.7,2.81,2.67,3.18c9.61,1.8,19.15,3.18,29,2,8.58-1,17.37-.53,25.59-3.75,1.33-.52,3.16-2.14,3.18-3.29C178,402.07,177.87,391.46,177.87,380.85ZM209.68,297c-0.41-2.56-.6-5.17-1.26-7.66-3.45-13-12-20-24.55-19-10.77.81-18.75,6.57-23.37,16.45-3.25,7-2.51,13.75,2,20,6.6,9,19.94,13.68,30.81,10.82C203.14,315,209.61,306.75,209.68,297Zm-93.14,23.92c3-.57,6-1.06,9-1.74,11.49-2.62,22.62-19.35,12.35-32.19-7.14-8.93-18.25-13.29-28.06-9.58-8.77,3.32-13.94,11.42-14.11,22.22C95.54,312.49,103.12,321.25,116.54,320.95Zm-0.41,77.25,1.11-1c-1-1.77-1.68-3.78-3-5.25a87.13,87.13,0,0,0-6.57-6c-3.28-3-3.47-5.61-.12-8.42,2.53-2.12,5.65-3.53,8.25-5.59,1.5-1.19,3.48-3,3.5-4.61a98.3,98.3,0,0,0-1.28-15.1c-0.28-1.92-1.67-3.33-4.07-1.79a62.32,62.32,0,0,0-23.33,25.81c-2.51,5.24-1.42,9.53,3.6,12.47,3.45,2,7.55,2.88,11.23,4.55,2.64,1.2,8.07-2.23,7.56,4.39a1.52,1.52,0,0,0,.43.38ZM88.6,217.07a10.46,10.46,0,0,0-1.27,1.7c-2.73,8.76,2.16,20.1,10.34,24.42,5.56,2.94,11.22,4.79,17.69,4.62,5.44-.14,7.18-0.73,7.36-6.24a15.1,15.1,0,0,0-2.47-8.24c-4.21-6.39-11.06-8.79-18.11-10.59a31.3,31.3,0,0,0-4.44-.5l-0.33.86,8.2,7.49-0.92,1.06C97.93,228.69,93,223.46,88.6,217.07ZM203.37,372.49a17.3,17.3,0,0,0-2.1-3.08c-0.6-.64-1.79-0.72-2.71-1.06-0.18.84-.31,1.68-0.54,2.51-0.57,2.11-.58,4.93-2,6.07-0.94.77-4.5-.18-5.7-1.46-3-3.21-5.38-7-7.93-10.65-1.24-1.77-2.28-3.68-3.59-5.8,0.71,6.17,2.07,11.82,1.8,17.4-0.32,6.65,3.19,10.56,7.54,14.38,2.14,1.87,4.32,1.62,5.65-.69,2.33-4,4.21-8.33,6.36-12.48C201,376,202.11,374.51,203.37,372.49Zm-89.14,90.65,0.93,0.27a8.91,8.91,0,0,0,1.19-1.78c2.67-7.29,5.29-14.6,7.95-21.9,0.67-1.83.48-3.34-1.77-3.48s-5.11-1.38-5.57,2.3C116,446.73,115.13,454.94,114.24,463.14Zm68.38-.21,1.19-.27a15.63,15.63,0,0,0,0-2.85c-1.27-6.76-2.6-13.52-3.94-20.27-0.3-1.54-.34-3.45-2.85-2.71s-2.53,2.27-1.8,4.34c1.1,3.12,2,6.32,3.08,9.45C179.69,454.75,181.17,458.84,182.62,462.94Zm-68.43-87.4c-2.24,1.69-3.56,2.54-4.71,3.59-1.44,1.32-2,2.9-.31,4.46,1.92,1.77,3.93,3.45,5.9,5.18l0.83-.38Zm19.35-128.48c-3.64-2.11-7.84-.43-8.73,3.05Z"/><path d="M264.6,29c13.59,1,28.56,1.68,43.4,3.48,13.47,1.63,26.84,4.26,40.16,6.92C366.3,43,383.54,49.44,400.27,57.2c13.34,6.19,24.57,15.17,31.06,28.63,5.07,10.51,4.82,21.39-1.65,31.54-7.39,11.6-18.65,18.18-31,23.21-16.11,6.57-33.25,8.25-50.28,10.44-5,.65-10.1.94-15.11,1.67-0.89.13-2.32,1.71-2.24,2.48,0.32,3,1.21,6,1.75,9a14,14,0,0,1-.12,3.08c-0.94-.58-2.24-0.93-2.76-1.77-2.26-3.69-4.43-7.45-6.36-11.31a6.39,6.39,0,0,0-6.95-3.78,541.23,541.23,0,0,1-72,2c-26.5-1-52.89-3.39-78.31-11.8-10.68-3.53-21.61-6.6-30.71-13.66-6.39-5-12.61-10.24-15.59-18-4.37-11.43-2.8-22.4,3.89-32.57,8.52-13,20.84-21.25,34.55-27.82,22-10.53,45.43-15.22,69.51-17.2C239.72,30.37,251.47,29.79,264.6,29ZM327.32,154.3l-0.2-1c1.59-1.14,3.07-3,4.79-3.28,9.79-1.4,19.68-2.09,29.44-3.63a221,221,0,0,0,27.88-5.76c12.75-3.75,24.75-9.27,33.92-19.53,8-9,10.48-19.2,6.84-30.64S418,71.15,408.4,64.87c-14.6-9.57-31.16-14.76-47.76-19.78-25.43-7.69-51.56-10.94-77.92-12.19-15.29-.73-30.68-0.11-46,0.68-20.71,1.07-41.11,4.34-60.82,11.11C157.66,50.95,140.77,59.27,128.47,75a34.71,34.71,0,0,0-7.85,22.23c0.09,13.27,8.17,21.86,18.32,28.36,17.09,10.93,36.61,15.49,56.25,19,21.12,3.81,42.55,4.63,64,4.63,16.81,0,33.62-.89,50.42-1.54,6.81-.26,13.81-1.52,17.41,6.54A0.7,0.7,0,0,0,327.32,154.3Z"/><path d="M154.43,182.35c-0.16,10.77-8.7,19.16-17.15,19-6.9-.15-13.89-9.41-12.43-17.05,1.42-7.42,5.63-12.77,13.12-15.17a9.06,9.06,0,0,1,9.06,1.55C151.43,174.24,154.24,178.69,154.43,182.35Zm-27,4.24c0.22,4.29,2.08,8.21,6.42,10.47a9.41,9.41,0,0,0,11.08-1.35,22.58,22.58,0,0,0,5.43-6.91c3.48-7.21-3.12-17.79-10.34-17C132.44,172.6,127.42,178.32,127.44,186.6Z"/><path d="M201.32,197.78L198.78,200a27.17,27.17,0,0,1-1.24-3.51c-0.28-1.32-.07-2.77-0.48-4a11.49,11.49,0,0,0-1.89-2.78c-0.93.7-2.32,1.22-2.69,2.15a24.3,24.3,0,0,0-1,5.36c-0.17,1.13-.26,2.27-0.42,3.71-3.66-1.16-2.72-4-3-6-0.55-3.93,3.23-8.64,7.19-8.63,1.43,0,3,1.58,4.21,2.78,0.67,0.68.63,2.05,1,3.33,4.31-2.15,5.84-11.66,13-5.1,3.69,3.4,3.91,8,1.39,11S206.66,201.16,201.32,197.78Zm13-5.33c-1.47-1.49-2.72-3.8-4.47-4.27-2.41-.65-6.76,4.15-6.36,6.53,0.45,2.7,2.63,3.31,5,3.33C211.93,198.07,213.63,196.41,214.34,192.44Z"/><path d="M249.32,175.26c-1.34,0-2.78-.31-4,0.09s-2.78,1.47-2.8,2.28c-0.11,5.18.22,10.36,0.3,15.55,0,2.34,1.14,2.88,3.3,2.77a42,42,0,0,1,5.88.48l0,2.14-19.15,1.84-0.39-1.85a21.32,21.32,0,0,0,4.38-1.39c1.07-.6,2.5-1.78,2.56-2.77,0.3-4.93.06-9.89,0.3-14.83,0.17-3.56-1.31-4.24-4.46-3.51a41.5,41.5,0,0,1-6.28.44C232.85,172.26,245.61,171.21,249.32,175.26Z"/><path d="M160.09,172.94c0.51,3,1.13,6,1.49,9.08s0.42,6.06.68,10.17c1.81-1.56,2.83-2.47,3.88-3.34,3.62-3,6.69-2.38,8.37,2,1.11,2.91,2.14,6,.43,9l-1.23.22a44.68,44.68,0,0,0-1.18-5.27,42,42,0,0,0-2.3-4.76c-1.59,1.2-3.61,2.12-4.64,3.68s-0.89,3.73-1.41,5.59a17.37,17.37,0,0,1-1.32,2.77,15,15,0,0,1-2.29-2.43,6.06,6.06,0,0,1-.46-2.53c-0.51-5.91-1-11.81-1.45-17.72-0.15-2.11,0-4.25,0-6.37Z"/><path d="M270.83,200.68c-4-.49-6.94-2.54-7.42-5.54-0.54-3.36,3.21-9,6.55-9.83a8.84,8.84,0,0,1,9.93,4c2.16,3.56,1.4,6.74-2.32,8.67C275.43,199.05,273.09,199.78,270.83,200.68Zm-1.72-3.33c4.68,0.06,9-2.55,8.38-4.6-0.53-1.73-2.43-3.9-4.09-4.26-3.58-.79-7.75,2.51-7.23,5.48C266.45,195.49,268.51,196.69,269.12,197.35Z"/><path d="M328.46,194.14c-0.95,2.57-.12,4,3.38,4.28,3.16,0.26,6.36.06,9.81,0.82-0.58.44-1.16,1.26-1.74,1.26-4,0-8.12.28-12-.6-2.36-.54-3.53-3.28-2.61-6.12,1.52-4.7,8.31-8.55,12.89-6.8,1.64,0.63,2.68,2.78,4,4.24-1.42,1.15-2.73,3.08-4.27,3.29C335,194.92,331.94,194.34,328.46,194.14Zm10.82-2.26L339,190.44c-4.34-2.42-6.85-1.89-8.39,2.55Z"/><path d="M306.32,214.75c-0.07-1.1-.51-2.35-0.15-3.28a67.89,67.89,0,0,1,4.34-9.78c1.28-2.22,1.49-3.72-.58-5.43a12.13,12.13,0,0,1-1.95-2.9l0.57-.78c0.79,0.29,1.9.34,2.33,0.9,2.25,3,3.69,1.77,5.2-.68a8,8,0,0,1,2.14-1.68l0.86,0.77L307.53,215Z"/><path d="M220.44,215.52c3.75,5.49,1.89,10.61-.06,15.27-2.15,5.15-5.46,9.69-11,11.53l-0.92-.88c2.89-3.71,6.52-7.07,8.46-11.22S219.2,221,220.44,215.52Z"/><path d="M295.57,200.83l-2.92-11.15-1.6-.08c-0.65,1.7-1.39,3.36-1.91,5.09s-0.74,3.33-1.1,5l-1.66,0-2-9.51a36.31,36.31,0,0,0,4.39-1.94c3.48-2.17,5.62-1.94,7.16,1.6a17.89,17.89,0,0,1,1.1,10.78Z"/><path d="M352.47,190c2.71,1.15,6.45.31,5.73,5-0.16,1,1.21,2.29,1.77,3.49a16.9,16.9,0,0,1,.72,2.38c-0.88-.08-2.27.18-2.57-0.28-2.13-3.25-4.14-2.14-6.66-.42s-5.1,1.09-6.64-1.61-0.27-4.78,2.22-6.11C348.86,191.4,350.81,190.68,352.47,190Zm3,4.69c-4-3.11-6.08-1.77-7.81.2-0.52.6-.2,1.94-0.26,2.94,1.08,0,2.34.45,3.21,0A38.82,38.82,0,0,0,355.5,194.65Z"/><path d="M364.59,178.21c1.47,3.87-.51,9.25,5.44,11.46-6.11,3.06-1.32,8.42-3.56,12.7-4.86-2.67,0-9.35-4.3-11.21l1.44-12.94h1Z"/><path d="M302.44,174.28a7.49,7.49,0,0,1,1.3,2.4q1.07,9.73,1.86,19.48c0.05,0.64-.76,1.35-1.17,2-0.54-.53-1.52-1-1.57-1.61-0.6-7.32-1.06-14.64-1.56-22Z"/><path d="M327.5,327.19c1.89,1.09,4.35,1.77,5.5,3.38,1,1.44-3,4.76-5.81,5s-6.68-1.88-6.63-4.07C320.67,326.76,324.72,329,327.5,327.19Zm-4.81,4.48c1.75,0.71,2.61,1.39,3.37,1.3a16,16,0,0,0,4-1.32,3,3,0,0,0,0-1.25,24.87,24.87,0,0,0-3.81.11A24.44,24.44,0,0,0,322.69,331.67Z"/><path d="M371.14,308.59c-1.78,1.27-3,2.72-3.68,2.5-1.29-.43-2.25-1.81-3.35-2.8,1-.86,2-2.34,3.08-2.39S369.33,307.28,371.14,308.59Z"/><path d="M295.83,306.49c-1.81,1.1-2.94,2.33-3.76,2.14-1-.22-1.7-1.65-2.53-2.55,0.89-.79,1.77-2.16,2.69-2.19S294.11,305.17,295.83,306.49Z"/><path d="M156.57,333.46c-2.19-.27-4.17-0.38-6.09-0.8-2.94-.64-3.43-2.52-1.37-4.78,2.84-3.11,9.82-4,13.3-1.56,1,0.69,2.15,2.19,2,3.1a4.93,4.93,0,0,1-2.63,3.08C160.13,333.22,158.18,333.2,156.57,333.46Zm5.24-3.34-0.18-1.36c-4.2-1.83-8.75-1.06-10.06,2.46Z"/><path d="M192.67,304c-1.85-2.33-3.53-3.64-3.87-5.24-0.17-.79,2.32-3.13,3.27-3a5.46,5.46,0,0,1,3.52,3.38C195.87,300.15,194.14,301.7,192.67,304Z"/><path d="M117.7,297.14c1.55,1.71,2.9,2.64,3.29,3.88,0.18,0.56-1.79,2.6-2.37,2.44a5.64,5.64,0,0,1-3.18-2.67C115.17,300.26,116.57,298.88,117.7,297.14Z"/><path d="M173.95,85c-1.47,2.65-2.55,5-4,7.14-3.06,4.45-7,4.53-10.21.18-4-5.31-3.72-11.64-3.75-17.8a86.54,86.54,0,0,1,.92-10.71,3.36,3.36,0,0,1,1.75-2.3c0,5.6-.24,11.22.09,16.8a44.48,44.48,0,0,0,2.08,10.82,6.16,6.16,0,0,0,3.86,3.4c0.93,0.24,3.11-1.4,3.52-2.6,1.43-4.26,2.29-8.71,3.47-13.07a27.3,27.3,0,0,1,1.59-3.68c0.62,1.16,1.33,2.29,1.86,3.49,1.8,4.11,3.16,8.48,5.45,12.29,1.61,2.68,3.58,2.15,4.84-.8,3.15-7.42,2.52-14.95.48-22.5-0.45-1.66-.72-3.36-1.07-5l1.27-.51c0.7,1,1.74,1.86,2.06,3,2.36,8.21,3.34,16.53.18,24.73-0.86,2.25-2.56,5.34-4.37,5.73s-4.41-1.92-6.29-3.48C176.22,88.89,175.35,87,173.95,85Z"/><path d="M296.53,63.5L300,79.39a13.58,13.58,0,0,0,2.21-1c2.46-1.81,5.16-2.72,7.92-1.09,3,1.76,3.79,4.69,3.31,8a7.18,7.18,0,0,1-5.56,6.24,15.71,15.71,0,0,1-6.57.34A4.57,4.57,0,0,1,298.19,89c-1.34-7.77-2.36-15.6-3.4-23.43a5.5,5.5,0,0,1,.65-2.09Zm14.11,19.2c-0.83-.67-2.12-2.5-3.74-2.85-2.62-.57-5.09,2.86-5.27,6.43-0.11,2.1.81,2.93,2.84,2.88C307.95,89.08,310.54,86.93,310.64,82.71Z"/><path d="M189.86,130c-2.82-2.53-4.76-9.24-3.69-10.73,3.28-4.59,9.18-5.58,13.47-2.25a2,2,0,0,0,.71-0.13c6.65-4.27,9-3.35,10.63,4.51,0.53,2.49,1.13,5.28-1.64,7.85a13.51,13.51,0,0,1-1-2.58c-0.19-1.47.14-3.08-.36-4.4a27.91,27.91,0,0,0-2.88-4.7A39,39,0,0,0,202,122a27.37,27.37,0,0,0-1.47,4.59l-1.49.07a41.6,41.6,0,0,0-1.71-4.73,52.32,52.32,0,0,0-2.89-4.63,25.66,25.66,0,0,0-3.6,4.24c-0.59,1.07-.25,2.64-0.39,4S190.11,128,189.86,130Z"/><path d="M238.38,106l3,12.61a51.8,51.8,0,0,1,5-2.61c4.8-1.85,8.59,1,8.13,6.11-0.41,4.53-4,7.2-9.63,7.16-4,0-5.71-2.08-6.14-7.12-0.37-4.18-1-8.33-1.52-12.51a31.36,31.36,0,0,1,0-3.5Zm6.75,20.1c3.94-.19,6.21-1.43,6.3-4.5,0-1-1.69-2.62-2.86-2.89-2.15-.5-5.51,2.83-5.23,5.1C243.45,124.76,244.75,125.61,245.13,126.06Z"/><path d="M234.49,56.84a20.18,20.18,0,0,1,1.28,3.45,30.32,30.32,0,0,1,.45,5.18c0,3.82.07,7.55,5.26,8a2,2,0,0,1,.61.84,2.08,2.08,0,0,1-.26.69c-4.79.07-5.37,2.89-4.66,6.8a85.88,85.88,0,0,1,1.07,8.81,20,20,0,0,1-.44,3.87l-1.38.12a13.71,13.71,0,0,1-1.34-3.36,71.42,71.42,0,0,1-.8-10.72c0.1-3.09-.73-4.39-3.9-3.93a14.51,14.51,0,0,1-3.11-.21l-0.27-1c1-.53,2-1.41,3.13-1.54,2.93-.33,3.66-1.89,3.41-4.59-0.37-4-.48-8-0.7-11.95Z"/><path d="M211.42,91.95l-5.88-2.37c-1.52,1.23-3,3.15-5,3.84a7,7,0,0,1-5.67-.58c-1.14-.84-1.69-3.47-1.38-5.09,0.75-4,3.39-6.78,7.09-8.51s7,0.14,7.88,4C209.07,85.78,210.16,88.27,211.42,91.95Zm-6.35-7.74c-0.62-1.32-.81-2.54-1.43-2.83a2.87,2.87,0,0,0-2.62.45,32.13,32.13,0,0,0-4.59,5.62A3.16,3.16,0,0,0,197,90.5a3.26,3.26,0,0,0,3.18,0A64.53,64.53,0,0,0,205.07,84.21Z"/><path d="M276.92,91.93l-5.62-2.77a25.31,25.31,0,0,1-2.7,3.51c-2.81,2.72-6.23,1.7-7.34-2.06-1.47-5,3.11-11.88,8.31-12.52a3.92,3.92,0,0,1,4.72,3.15C275.19,84.6,276,88,276.92,91.93ZM270,80.6c-4.76,1.79-7.31,5.47-6,8.89,0.29,0.75,2.17,1.69,2.77,1.4C269.52,89.56,271.13,84.22,270,80.6Z"/><path d="M389,74.68l5.43,1.94a5.26,5.26,0,0,1-1,1.24c-5.57,1-5.56,1-5,7,0.26,2.75.49,5.5,0.74,8.26l-1.08.36a17,17,0,0,1-1.8-3.57c-0.4-1.66-.23-3.46-0.54-5.16-0.58-3.1,1.35-7.37-4.51-8.38,4.06-.63,4.9-3,5.64-5.9,0.38-1.48,2.53-3.72,3.57-3.56,2.49,0.38,4.79,2,7,3.61C394.27,71.85,389,67.68,389,74.68Z"/><path d="M347.68,89.65A7.25,7.25,0,0,1,337,88.11c-2-3-1.16-6.59,2.65-8.27,2.37-1,5.35-1,8-.83,0.77,0,2.12,2.08,2,3s-1.77,2.11-2.88,2.26a60.43,60.43,0,0,1-7.87.11C339.61,89.69,344.75,87.65,347.68,89.65Z"/><path d="M332.68,104.9c3.6-3.34,11.27-4,14.87-1.36,2.05,1.49,2.21,3.22.37,4.95a25.3,25.3,0,0,1-4.08,3.2c-3,1.81-5.57,3.77-4.76,7.92-3.79-1.46-4.64-3.86-2.25-6.37,1.69-1.77,3.86-3.06,5.73-4.67a15.89,15.89,0,0,0,1.92-2.44,11.65,11.65,0,0,0-3.17-1.16C338.53,104.79,335.72,104.9,332.68,104.9Z"/><path d="M302.44,116.42c7.74-2.56,1.83-9.13,3.91-13.43l1.12-.17c0.47,2.11,1.11,4.19,1.38,6.32,0.33,2.63.09,5.42,4.09,5.14,0.56,0,1.19.92,2.58,2.08-6.95.34-5.25,4.7-5.16,8.3a5.3,5.3,0,0,1,0,1.84,35.46,35.46,0,0,1-1.56,3.27c-0.51-1.09-1-2.19-1.52-3.28a1,1,0,0,1,0-.37C307.06,119.84,307.06,119.84,302.44,116.42Z"/><path d="M375.53,93.2c-4.67-.12-8-3.1-7.85-7,0.13-3.58,3.3-7,6.38-6.93,4.07,0.14,9.17,4.46,9,7.62C382.89,90.74,379.82,93.31,375.53,93.2Zm0.18-1.46c1.88-1.87,3.62-2.95,4.19-4.46,0.27-.73-1.57-2.39-2.63-3.44a4.83,4.83,0,0,0-2.32-1c-1.06-.23-2.93-0.62-3.14-0.23-0.75,1.39-1.73,3.48-1.17,4.57C371.47,88.81,373.52,89.87,375.7,91.74Z"/><path d="M215.47,143.2c-2.12-3.28-.7-6-0.34-8.62a4.44,4.44,0,0,1,.58-1.74c2.37-3.72,3.19-7.25-.67-10.65-0.79-.7-1-2-1.52-3.07l0.91-.74a24.49,24.49,0,0,1,2.73,2.71c1.74,2.34,3.17,2.39,4.71-.19a27,27,0,0,1,2.57-3.15l1,0.58Z"/><path d="M335.91,82c-5.16.49-4.75,3.64-4.24,7,0.18,1.18-.35,2.47-0.55,3.71l-1.37.15c-0.39-1.61-1.12-3.23-1.09-4.83,0.06-3-.36-5.44-5.31-5.74,7.3-3.58,3.5-8.87,3.88-13.37,0.12-1.48.27-3,.41-4.45l1.4,0.06c0.51,3.61,1.06,7.21,1.53,10.82,0.31,2.33.14,4.91,3.71,4.74C334.68,80.09,335.12,81.06,335.91,82Z"/><path d="M330,123.41c-0.11,4-2.59,6.49-6.49,6.49s-6.94-2.81-6.91-6.16c0-4.68,2.64-7.63,6.67-7.57A6.79,6.79,0,0,1,330,123.41Zm-5.51,3.81c0.73-.9,2.36-2.1,2.81-3.64,0.61-2.07-2.32-4.53-4.84-4.54s-3.18,1.54-3.18,3.64C319.31,125.35,320.76,126.73,324.53,127.22Z"/><path d="M215,93.28l-2.36-9.11c2-1.29,3.75-2.06,5-3.3,3.58-3.42,6.29-3.12,8.28,1.36,1.4,3.15,2.08,6.45.91,9.79l-1.29.26a54.51,54.51,0,0,0-1.43-5.95,39.88,39.88,0,0,0-2.47-4.87c-1.36,1.6-3.21,3-4,4.85-0.83,2.07-.67,4.54-0.94,6.83Z"/><path d="M259.07,117.19a42,42,0,0,0,0,4.9c0.27,2.32,1.08,4.73,4,4.29s3-2.81,2.64-5.22c-0.19-1.2-.26-2.42-0.42-4a6.5,6.5,0,0,1,2.34,9.4,5.72,5.72,0,0,1-8.35,1.67A7.43,7.43,0,0,1,259.07,117.19Z"/><path d="M280.77,116.07c-2.33,1.48-5.15,2.29-5.87,4s0.51,4.46.77,6.75a1.38,1.38,0,0,1-2.24,1.39c-0.78-3.14-2-6.32-1.95-9.47,0-2.18,5.26-4.26,7.78-3.71A6.18,6.18,0,0,1,280.77,116.07Z"/><path d="M284.56,128.7c-0.48-2.73-1.93-5.77-1.17-8.09,0.7-2.13,3.7-3.6,5.89-5.05,0.49-.33,1.84.65,2.8,1a6.84,6.84,0,0,1-1.89,1.69c-2.84,1-3.72,2.92-3.38,5.77a36.71,36.71,0,0,1,0,4.42Z"/><path d="M320.28,92.89c-2.83-1.8-3.84-9.71-1.8-13.86A28,28,0,0,1,320.28,92.89Z"/><path d="M295.47,118.73c2.56,1.48,3.67,8.12,2.64,9.46a1.5,1.5,0,0,1-1.18.57,2.67,2.67,0,0,1-1.4-1.44C295.4,124.46,295.47,121.59,295.47,118.73Z"/></svg>